<svg version="1.2" xmlns="http://www.w3.org/2000/svg" viewBox="0 0 512 512" width="512" height="512"><defs><linearGradient id="P" gradientUnits="userSpaceOnUse"/><linearGradient id="g1" x2="1" href="#P" gradientTransform="matrix(551.729,1.379,-1.414,565.765,-24.874,78.547)"><stop stop-color="#78a0ea"/><stop offset=".19" stop-color="#6893e4"/><stop offset=".55" stop-color="#377dff"/><stop offset="1" stop-color="#0042be"/></linearGradient><linearGradient id="g2" x2="1" href="#P" gradientTransform="matrix(551.729,1.378,-0.116,46.534,-24.84,64.521)"><stop stop-color="#78a0ea"/><stop offset=".19" stop-color="#6893e4"/><stop offset=".55" stop-color="#377dff"/><stop offset="1" stop-color="#0042be"/></linearGradient><linearGradient id="g3" x2="1" href="#P" gradientTransform="matrix(551.729,1.379,-0.116,46.535,-24.912,94.068)"><stop stop-color="#78a0ea"/><stop offset=".19" stop-color="#6893e4"/><stop offset=".55" stop-color="#377dff"/><stop offset="1" stop-color="#0042be"/></linearGradient><linearGradient id="g4" x2="1" href="#P" gradientTransform="matrix(551.729,1.379,-1.415,565.773,-24.874,78.712)"><stop stop-color="#78a0ea"/><stop offset=".19" stop-color="#6893e4"/><stop offset=".55" stop-color="#377dff"/><stop offset="1" stop-color="#0042be"/></linearGradient><linearGradient id="g5" x2="1" href="#P" gradientTransform="matrix(551.729,1.379,-0.145,57.823,-25.163,197.202)"><stop stop-color="#78a0ea"/><stop offset=".19" stop-color="#6893e4"/><stop offset=".55" stop-color="#377dff"/><stop offset="1" stop-color="#0042be"/></linearGradient><linearGradient id="g6" x2="1" href="#P" gradientTransform="matrix(551.729,1.379,-1.417,566.822,-25.632,389.291)"><stop stop-color="#78a0ea"/><stop offset=".19" stop-color="#6893e4"/><stop offset=".55" stop-color="#377dff"/><stop offset="1" stop-color="#0042be"/></linearGradient></defs><style>.a{fill:#377dff}.b{fill:url(#g1)}.c{fill:url(#g2)}.d{fill:url(#g3)}.e{fill:url(#g4)}.f{fill:url(#g5)}.g{fill:url(#g6)}</style><path fill-rule="evenodd" class="a" d="m486 35.4v443.2c0 4.1-3.2 7.4-7.2 7.4h-446.6c-4 0-7.2-3.3-7.2-7.4v-443.2c0-4.1 3.2-7.4 7.2-7.4h446.6c4 0 7.2 3.3 7.2 7.4zm-446.6 7.4v73.8h432.2v-73.8zm0 88.6v339.8h432.2v-339.8z"/><path class="b" d="m455.1 59.7c-2.8-2.9-7.4-2.9-10.2 0l-9.3 9.6-9.3-9.6c-2.8-2.9-7.4-2.9-10.2 0-2.8 2.9-2.8 7.6 0 10.5l9.3 9.5-9.3 9.6c-2.8 2.8-2.8 7.5 0 10.4 2.8 2.9 7.4 2.9 10.2 0l9.3-9.5 9.3 9.5c2.8 2.9 7.4 2.9 10.2 0 2.8-2.9 2.8-7.6 0-10.4l-9.3-9.6 9.3-9.5c2.8-2.9 2.8-7.6 0-10.5z"/><path class="c" d="m226.7 57.5h-165.7c-4 0-7.2 3.4-7.2 7.4 0 4.1 3.2 7.4 7.2 7.4h165.7c4 0 7.2-3.3 7.2-7.4 0-4-3.2-7.4-7.2-7.4z"/><path class="d" d="m226.7 87.1h-165.7c-4 0-7.2 3.3-7.2 7.4 0 4.1 3.2 7.4 7.2 7.4h165.7c4 0 7.2-3.3 7.2-7.4 0-4.1-3.2-7.4-7.2-7.4z"/><path fill-rule="evenodd" class="e" d="m392.4 64.9v29.6c0 4.1-3.3 7.4-7.2 7.4h-28.9c-3.9 0-7.2-3.3-7.2-7.4v-29.6c0-4 3.3-7.4 7.2-7.4h28.9c3.9 0 7.2 3.4 7.2 7.4zm-28.9 7.4v14.8h14.5v-14.8z"/><path class="a" d="m97 175.7h317c3.9 0 7.2-3.3 7.2-7.3 0-4.1-3.3-7.4-7.2-7.4h-317c-3.9 0-7.2 3.3-7.2 7.4 0 4 3.3 7.3 7.2 7.3z"/><path class="f" d="m190.7 190.5c-4 0-7.2 3.3-7.2 7.4 0 4.1 3.2 7.4 7.2 7.4h129.6c4 0 7.2-3.3 7.2-7.4 0-4.1-3.2-7.4-7.2-7.4z"/><path fill-rule="evenodd" class="a" d="m53.8 449.1c0-34.4 8.1-67.5 23.5-97l-12.6-7.5c-3.5-2-4.7-6.6-2.7-10.1 2-3.5 6.4-4.7 9.9-2.7l12.6 7.5c16.2-26.4 38.2-49 64-65.6l-7.3-13c-2-3.5-0.9-8 2.6-10.1 3.4-2 7.8-0.8 9.8 2.7l7.3 13c26.7-14.6 56.5-22.8 87.4-23.9v-14.9c0-4.1 3.2-7.4 7.2-7.4 4 0 7.2 3.3 7.2 7.4v14.9c30.9 1.1 60.7 9.3 87.4 23.9l7.3-13c2-3.5 6.4-4.7 9.8-2.7 3.5 2.1 4.6 6.6 2.6 10.1l-7.3 13c25.8 16.6 47.8 39.2 64 65.6l12.6-7.5c3.5-2 7.9-0.8 9.9 2.7 2 3.5 0.8 8.1-2.7 10.1l-12.6 7.5c15.4 29.5 23.5 62.6 23.5 97 0 4-3.2 7.4-7.2 7.4h-28.8c-4 0-7.2-3.4-7.2-7.4 0-27-6.5-52.4-17.8-74.8l-12.3 7.3c-3.5 2-7.9 0.8-9.9-2.7-2-3.5-0.8-8.1 2.7-10.1l12.3-7.3c-12.4-19.8-28.9-36.6-48.1-49.3l-7.1 12.6c-2 3.6-6.4 4.7-9.9 2.7-3.4-2-4.6-6.5-2.6-10.1l7.1-12.6c-19.8-10.6-42.1-17-65.7-18.1v14.6c0 4.1-3.2 7.4-7.2 7.4-4 0-7.2-3.3-7.2-7.4v-14.6c-23.6 1.1-45.9 7.5-65.7 18.1l7.1 12.6c2 3.6 0.8 8.1-2.6 10.1-3.5 2.1-7.9 0.8-9.9-2.7l-7.1-12.6c-19.2 12.7-35.7 29.5-48.1 49.3l12.3 7.3c3.5 2 4.7 6.6 2.7 10.1-2 3.5-6.4 4.7-9.9 2.7l-12.3-7.3c-11.3 22.4-17.8 47.8-17.8 74.8 0 4-3.2 7.4-7.2 7.4h-28.8c-4 0-7.2-3.4-7.2-7.4zm367.3-89.6l-12.4 7.4c11.5 22.5 18.4 47.9 19.5 74.8h14.4c-1.1-29.6-8.7-57.5-21.5-82.2zm-65.8-72.9l-7.2 12.8c21.4 14 39.7 32.7 53.3 54.7l12.5-7.4c-14.9-24.2-35-44.8-58.6-60.1zm-92.6-29.4v14.7c26.2 1.1 50.9 8.3 72.9 20.1l7.2-12.8c-24.1-13.1-51.3-20.9-80.1-22zm-94.5 22l7.2 12.8c22-11.8 46.7-19 72.9-20.1v-14.7c-28.8 1.1-56 8.9-80.1 22zm-71.1 67.5l12.5 7.4c13.6-22 31.9-40.7 53.3-54.7l-7.2-12.8c-23.6 15.3-43.7 35.9-58.6 60.1zm-28.7 95h14.4c1.1-26.9 8-52.3 19.5-74.8l-12.4-7.4c-12.8 24.7-20.4 52.6-21.5 82.2z"/><path fill-rule="evenodd" class="g" d="m320.3 449.1c0 4-3.2 7.4-7.2 7.4h-115.2c-4 0-7.2-3.4-7.2-7.4 0-41.5 36.9-73.3 77.1-65.3l16.8-55.1c1.2-3.9 5.3-6.1 9.1-4.9 3.8 1.2 5.9 5.4 4.7 9.3l-16.8 55.1c22.8 10.3 38.7 33.7 38.7 60.9zm-43-46.7l-4.4 14.3c9.1 5.2 15.8 14.2 17.9 25h14.6c-2.4-17.4-13.3-31.9-28.1-39.3zm-42.2 39.3h40.8c-6.8-19.7-34-19.7-40.8 0zm-29.5 0h14.6c3.6-18.2 20.2-31.3 39-29.4l4.3-14.3c-28.2-4.6-54 15.6-57.9 43.7z"/></svg>