<svg version="1.2" xmlns="http://www.w3.org/2000/svg" viewBox="0 0 636 636" width="636" height="636"><style>.a{fill:#252f3e}.b{fill:#f90}</style><path class="a" d="m208.6 277c0 6.2 0.7 11.2 1.8 14.8 1.4 3.7 3 7.7 5.4 12 0.8 1.4 1.1 2.7 1.1 3.9 0 1.6-1 3.3-3.1 5l-10.5 7c-1.5 1-3 1.5-4.4 1.5-1.6 0-3.3-0.9-5-2.4-2.3-2.5-4.3-5.1-6-7.8-1.6-2.8-3.3-6-5.1-9.8q-19.5 23-49.1 23c-14 0-25.1-4-33.3-12-8.2-8-12.3-18.7-12.3-32.1 0-14.1 5-25.6 15.1-34.3 10.2-8.7 23.7-13 40.9-13 5.7 0 11.5 0.5 17.7 1.3 6.1 0.9 12.5 2.2 19.1 3.7v-12.2c0-12.6-2.6-21.5-7.8-26.7-5.3-5.1-14.3-7.6-27.2-7.6-5.8 0-11.8 0.6-18 2.1-6.2 1.5-12.2 3.4-18 5.7-2.7 1.2-4.7 1.8-5.8 2.2-1.2 0.3-2 0.5-2.7 0.5-2.3 0-3.5-1.7-3.5-5.2v-8.2c0-2.6 0.3-4.6 1.2-5.8 0.8-1.2 2.3-2.3 4.6-3.5q8.8-4.5 21-7.5c8.2-2.2 16.9-3.2 26.1-3.2 19.8 0 34.3 4.5 43.6 13.5 9.2 9 13.9 22.7 13.9 41.1v54zm-67.7 25.3c5.5 0 11.2-1 17.2-3 6-2 11.3-5.6 15.8-10.6 2.7-3.2 4.7-6.7 5.7-10.7 1-4 1.6-8.9 1.6-14.5v-7c-4.8-1.2-10-2.2-15.3-2.9-5.3-0.6-10.5-1-15.7-1-11.2 0-19.3 2.2-24.8 6.7-5.5 4.5-8.2 10.8-8.2 19.2 0 7.8 2 13.7 6.2 17.7 4 4.1 9.8 6.1 17.5 6.1zm133.9 18c-3 0-5-0.5-6.4-1.6-1.3-1-2.5-3.4-3.5-6.5l-39.1-128.9c-1-3.4-1.5-5.5-1.5-6.7 0-2.7 1.3-4.2 4-4.2h16.3c3.2 0 5.3 0.5 6.5 1.7 1.3 1 2.3 3.3 3.3 6.5l28 110.4 26.1-110.4c0.8-3.3 1.8-5.5 3.1-6.5 1.4-1 3.7-1.7 6.7-1.7h13.3c3.2 0 5.4 0.5 6.7 1.7 1.3 1 2.5 3.3 3.2 6.5l26.3 111.7 28.9-111.7c1-3.3 2.1-5.5 3.3-6.5 1.3-1 3.5-1.7 6.5-1.7h15.5c2.7 0 4.2 1.4 4.2 4.2 0 0.8-0.2 1.7-0.4 2.7-0.1 1-0.5 2.3-1.1 4.1l-40.2 128.9q-1.5 5-3.5 6.5c-1.3 1-3.5 1.7-6.4 1.7h-14.3c-3.2 0-5.3-0.5-6.7-1.7-1.3-1.1-2.5-3.3-3.1-6.6l-25.9-107.6-25.6 107.4c-0.9 3.3-1.9 5.5-3.2 6.7-1.4 1.1-3.7 1.6-6.7 1.6zm214.3 4.5c-8.7 0-17.4-1-25.7-3-8.3-2-14.8-4.1-19.2-6.6-2.6-1.5-4.5-3.2-5.2-4.7-0.6-1.5-1-3.2-1-4.7v-8.5c0-3.5 1.4-5.1 3.9-5.1q1.5 0 3 0.5c1 0.3 2.5 1 4.2 1.6 5.6 2.5 11.8 4.5 18.3 5.9 6.7 1.3 13.2 2 19.8 2 10.5 0 18.7-1.9 24.4-5.5 5.7-3.7 8.7-9 8.7-15.9 0-4.7-1.5-8.5-4.6-11.7-3-3.1-8.6-6-16.8-8.6l-24.2-7.5c-12.1-3.9-21.1-9.5-26.6-17-5.5-7.4-8.4-15.5-8.4-24.2q0-10.5 4.5-18.5c3-5.4 7-10 12-13.7 5-3.8 10.7-6.7 17.4-8.7 6.6-2 13.6-2.8 21-2.8 3.6 0 7.5 0.2 11.1 0.7 3.9 0.5 7.4 1.1 10.9 1.8 3.3 0.8 6.5 1.7 9.5 2.7q4.5 1.5 7 3c2.3 1.3 4 2.6 5 4.1q1.5 2 1.5 5.5v7.9c0 3.5-1.3 5.3-3.8 5.3-1.4 0-3.5-0.7-6.4-2q-14.2-6.5-32-6.5c-9.5 0-17 1.5-22.2 4.7-5.1 3.1-7.8 8-7.8 14.8 0 4.7 1.7 8.7 5 11.9 3.3 3.1 9.5 6.3 18.3 9.1l23.7 7.5c12 3.9 20.7 9.2 25.9 16 5.1 6.9 7.6 14.7 7.6 23.4 0 7.2-1.5 13.7-4.3 19.3-3 5.7-7 10.7-12.2 14.7-5.1 4.2-11.3 7.2-18.5 9.3-7.5 2.4-15.3 3.5-23.8 3.5z"/><path class="b" d="m520.6 405.9c-54.9 40.5-134.6 62-203.1 62-96 0-182.6-35.5-247.9-94.5-5.2-4.7-0.5-11.1 5.6-7.4 70.7 41 157.9 65.9 248.1 65.9 60.9 0 127.8-12.7 189.3-38.7 9.1-4.2 17 6 8 12.7zm22.8-26c-7-9-46.3-4.4-64.2-2.2-5.3 0.7-6.1-4-1.3-7.5 31.3-22 82.9-15.7 88.9-8.4 6 7.6-1.7 59.1-31 83.8-4.5 3.8-8.9 1.8-6.9-3.2 6.7-16.5 21.5-53.7 14.5-62.5z"/></svg>