<svg xmlns="http://www.w3.org/2000/svg" viewBox="0 0 36 36" id="Currency">
  <path fill-rule="evenodd" d="M12.861-.002a2.09 2.09 0 0 0-1.127.332c-.626.401-.997 1.095-1.06 1.85a.501.501 0 0 0-.026.164l.002.037-.002.017c0 .032.003.065.008.096.043 1.883.874 3.678 2.319 5.002a.49.49 0 0 0 .025.022v1.578C5.12 15.71 2.793 21.916 2.668 26.688h-.012v.939c0 2.415 1.688 4.53 4.268 6.008 2.58 1.478 6.092 2.367 9.976 2.367h2.2c3.884 0 7.396-.89 9.976-2.367 2.58-1.478 4.268-3.593 4.268-6.008v-.94h-.012c-.124-4.758-2.441-10.939-10.266-17.533V7.455c1.417-1.319 2.234-3.095 2.278-4.957a.504.504 0 0 0 .008-.1l-.002-.017.002-.037a.502.502 0 0 0-.026-.164c-.063-.755-.434-1.449-1.06-1.85a2.088 2.088 0 0 0-2.254 0 2.252 2.252 0 0 0-.586.574A2.252 2.252 0 0 0 20.84.33a2.085 2.085 0 0 0-2.252 0A2.254 2.254 0 0 0 18 .904a2.248 2.248 0 0 0-.586-.574 2.088 2.088 0 0 0-2.254 0 2.248 2.248 0 0 0-.586.574 2.252 2.252 0 0 0-.586-.574 2.09 2.09 0 0 0-1.127-.332zm0 .996c.2 0 .402.06.588.18.371.238.623.7.625 1.217v.007a.506.506 0 0 0 .643.487.559.559 0 0 0 .047-.018.5.5 0 0 0 .254-.229.503.503 0 0 0 .058-.24l-.002-.007c.003-.516.254-.98.625-1.217.374-.24.803-.24 1.176 0 .373.239.625.705.625 1.224a.5.5 0 0 0 0 .036.501.501 0 0 0 .104.277.5.5 0 0 0 .896-.313c0-.519.254-.985.627-1.224.373-.24.801-.24 1.174 0 .37.236.62.696.625 1.209l-.002.015a.507.507 0 0 0 .494.508.501.501 0 0 0 .194-.037l.004-.002a.508.508 0 0 0 .312-.469l-.002-.015c.005-.513.256-.973.625-1.21.373-.238.8-.238 1.174 0 .369.237.619.696.625 1.208-.01 1.508-.62 2.957-1.719 4.094H13.37c-1.098-1.137-1.709-2.586-1.718-4.094.005-.512.256-.971.625-1.207.186-.12.385-.18.586-.18zM14 7.474h8.066v1.284H14zm-.217 2.284h8.434c8.045 6.708 10.127 12.802 10.127 17.346v.523c0 1.947-1.377 3.77-3.766 5.139-2.389 1.368-5.748 2.236-9.478 2.236h-2.2c-3.73 0-7.09-.868-9.478-2.236-2.389-1.369-3.766-3.192-3.766-5.139v-.523c0-4.544 2.082-10.638 10.127-17.346zm4.197 6.244c-4.143 0-7.48 3.367-7.48 7.498 0 4.132 3.337 7.502 7.48 7.502 4.143 0 7.52-3.366 7.52-7.502a.502.502 0 0 0-.04-.193c-.108-4.04-3.406-7.305-7.48-7.305zm0 1c3.603 0 6.52 2.907 6.52 6.498 0 3.592-2.917 6.502-6.52 6.502A6.473 6.473 0 0 1 11.5 23.5a6.47 6.47 0 0 1 6.48-6.498zM15.5 20v.01h-.021v1h1.025c.933 0 1.406.441 1.576.99H15.5v1h2.58c-.17.549-.642.992-1.576.992h-.352l-.006-.006-.005.006h-.663v1h.266l3.08 3.01.7-.715-2.41-2.355A2.511 2.511 0 0 0 19.104 23h1.364v-1h-1.364a2.48 2.48 0 0 0-.48-1h1.844v-1z" color="#000" font-family="sans-serif" font-weight="400" overflow="visible" style="text-indent:0;text-align:start;line-height:normal;text-transform:none;block-progression:tb" fill="#377dff" class="color000000 svgShape"></path>
</svg>
