<svg xmlns="http://www.w3.org/2000/svg" id="Database" viewBox="0 0 1000 1000">
  <path d="M509.18,837.93H100a16,16,0,0,1-16-16V645.59a16,16,0,0,1,16-16H487.43a16,16,0,0,1,0,32H116V805.93H509.18a16,16,0,0,1,0,32Z" fill="#377dff" class="color56060d svgShape"></path>
  <path d="M244.79 782H170.24a16 16 0 0 1-16-16V701.49a16 16 0 0 1 16-16h74.55a16 16 0 0 1 16 16V766A16 16 0 0 1 244.79 782Zm-58.55-32h42.55V717.49H186.24ZM384.58 782H310a16 16 0 0 1-16-16V701.49a16 16 0 0 1 16-16h74.55a16 16 0 0 1 16 16V766A16 16 0 0 1 384.58 782ZM326 750h42.55V717.49H326ZM487.43 576.46H100a16 16 0 0 1-16-16V384.13a16 16 0 0 1 16-16H542.15a16 16 0 0 1 0 32H116V544.46H487.42a16 16 0 1 1 0 32Z" fill="#377dff" class="color56060d svgShape"></path>
  <path d="M244.79 520.57H170.24a16 16 0 0 1-16-16V440a16 16 0 0 1 16-16h74.55a16 16 0 0 1 16 16v64.55A16 16 0 0 1 244.79 520.57Zm-58.55-32h42.55V456H186.24ZM384.58 520.57H310a16 16 0 0 1-16-16V440a16 16 0 0 1 16-16h74.55a16 16 0 0 1 16 16v64.55A16 16 0 0 1 384.58 520.57Zm-58.55-32h42.55V456H326ZM844.19 315H100a16 16 0 0 1-16-16V122.66a16 16 0 0 1 16-16H844.19a16 16 0 0 1 16 16V299A16 16 0 0 1 844.19 315ZM116 283H828.19V138.66H116Z" fill="#377dff" class="color56060d svgShape"></path>
  <path d="M244.79 259.11H170.24a16 16 0 0 1-16-16V178.55a16 16 0 0 1 16-16h74.55a16 16 0 0 1 16 16v64.56A16 16 0 0 1 244.79 259.11Zm-58.55-32h42.55V194.55H186.24ZM384.58 259.11H310a16 16 0 0 1-16-16V178.55a16 16 0 0 1 16-16h74.55a16 16 0 0 1 16 16v64.56A16 16 0 0 1 384.58 259.11Zm-58.55-32h42.55V194.55H326Z" fill="#377dff" class="color56060d svgShape"></path>
  <path d="M765.8,779.26h-2.87a16,16,0,0,1,0-32h2.87a16,16,0,0,1,0,32Z" fill="#1862ec" class="colorec2e18 svgShape"></path>
  <path d="M233.73 661.6H174.2a16 16 0 0 1-16-16V560.46a16 16 0 0 1 16-16h59.53a16 16 0 0 1 16 16V645.6A16 16 0 0 1 233.73 661.6Zm-43.53-32h27.53V576.46H190.2ZM233.73 400.13H174.2a16 16 0 0 1-16-16V299a16 16 0 0 1 16-16h59.53a16 16 0 0 1 16 16v85.13A16 16 0 0 1 233.73 400.13Zm-43.53-32h27.53V315H190.2ZM770 375a16 16 0 0 1-16-16V315H726.47v37.19a16 16 0 1 1-32 0V299a16 16 0 0 1 16-16H770a16 16 0 0 1 16 16V359A16 16 0 0 1 770 375Z" fill="#377dff" class="color56060d svgShape"></path>
  <path d="M693.72,568.46C615,568.46,544.08,548.1,504.05,514c-21.34-18.17-32.62-39.55-32.62-61.81a66.13,66.13,0,0,1,1.18-12.41c5.15-27,26.61-51.11,62.09-69.79,41.78-22,98.26-34.1,159-34.1,5.75,0,11.59.11,17.36.34a411.7,411.7,0,0,1,62,7c40.12,7.77,74.61,21.22,99.73,38.9,28.28,19.91,43.23,44.12,43.23,70,0,31.86-22.89,61.27-64.45,82.81S753.84,568.46,693.72,568.46Zm0-200.59c-54.86,0-107.39,11.09-144.12,30.42-26.16,13.77-42.35,30.64-45.56,47.5a34.3,34.3,0,0,0-.61,6.38c0,15.91,11.62,29.15,21.37,37.45,33.91,28.9,98.63,46.84,168.92,46.84,54.29,0,106.45-10.89,143.1-29.89C866.81,491,884,471.2,884,452.17c0-32.3-48.13-64.17-117-77.51a379.1,379.1,0,0,0-57.12-6.48C704.48,368,699.06,367.87,693.72,367.87Z" fill="#1862ec" class="colorec2e18 svgShape"></path>
  <path d="M693.71,676.76c-73.92,0-142.46-18.47-183.33-49.4-25.17-19-38.63-41.85-38.94-66,0-.29,0-.58,0-.88a16,16,0,0,1,32-.08c0,.13,0,.27,0,.41.16,17.64,14.37,32.06,26.26,41.05,35,26.48,97.83,42.92,164,42.92s129-16.44,164-42.91c12-9.07,26.27-23.6,26.27-41.39a16,16,0,0,1,32,0c0,24.5-13.47,47.63-39,66.91C836.17,658.29,767.64,676.76,693.71,676.76ZM503.4,560v0Z" fill="#1862ec" class="colorec2e18 svgShape"></path>
  <path d="M693.71,676.76c-73.92,0-142.46-18.47-183.33-49.4-25.17-19-38.63-41.85-38.94-66,0-.29,0-.58,0-.88a16,16,0,0,1,32-.08c0,.13,0,.27,0,.41.16,17.64,14.37,32.06,26.26,41.05,35,26.48,97.83,42.92,164,42.92s129-16.44,164-42.91c12-9.07,26.27-23.6,26.27-41.39a16,16,0,0,1,32,0c0,24.5-13.47,47.63-39,66.91C836.17,658.29,767.64,676.76,693.71,676.76ZM503.4,560v0Z" fill="#1862ec" class="colorec2e18 svgShape"></path>
  <path d="M693.71,785.05a423.37,423.37,0,0,1-72-6c-45.21-7.83-84.77-23.24-111.38-43.37a119.76,119.76,0,0,1-22.28-21.57c-10.85-13.94-16.46-28.89-16.66-44.46,0-.29,0-.58,0-.88a16,16,0,0,1,32-.08c0,.13,0,.27,0,.4.08,8.48,3.41,17,9.92,25.36a88.05,88.05,0,0,0,16.35,15.72c22.61,17.1,57.24,30.37,97.52,37.35a401.06,401.06,0,0,0,133,0c29.12-5,55.61-13.46,76.62-24.35a146.26,146.26,0,0,0,20.92-13c12-9.06,26.26-23.61,26.26-41.39a16,16,0,0,1,32,0c0,24.49-13.47,47.63-39,66.91a178.26,178.26,0,0,1-25.5,15.91C827.67,763.94,798,773.44,765.66,779A423.28,423.28,0,0,1,693.71,785.05ZM503.41,668.31h0Zm0,0v0Z" fill="#1862ec" class="colorec2e18 svgShape"></path>
  <path d="M693.71,785.05a423.37,423.37,0,0,1-72-6c-45.21-7.83-84.77-23.24-111.38-43.37a119.76,119.76,0,0,1-22.28-21.57c-10.85-13.94-16.46-28.89-16.66-44.46,0-.29,0-.58,0-.88a16,16,0,0,1,32-.08c0,.13,0,.27,0,.4.08,8.48,3.41,17,9.92,25.36a88.05,88.05,0,0,0,16.35,15.72c22.61,17.1,57.24,30.37,97.52,37.35a401.06,401.06,0,0,0,133,0c29.12-5,55.61-13.46,76.62-24.35a146.26,146.26,0,0,0,20.92-13c12-9.06,26.26-23.61,26.26-41.39a16,16,0,0,1,32,0c0,24.49-13.47,47.63-39,66.91a178.26,178.26,0,0,1-25.5,15.91C827.67,763.94,798,773.44,765.66,779A423.28,423.28,0,0,1,693.71,785.05ZM503.41,668.31h0Zm0,0v0Z" fill="#1862ec" class="colorec2e18 svgShape"></path>
  <path d="M693.71,893.34c-82.59,0-157.57-23-195.67-59.92C480.63,816.53,471.42,797,471.42,777a16,16,0,0,1,32,0c0,11.29,5.69,22.53,16.9,33.41,31.87,30.91,99.93,50.89,173.39,50.89,52.73,0,102-9.86,138.87-27.76C865.25,817.7,884,797.09,884,777.05a16,16,0,0,1,16-16h0a16,16,0,0,1,16,16h0c0,33.25-24.66,63.55-69.43,85.31C805.47,882.34,751.19,893.34,693.71,893.34Z" fill="#1862ec" class="colorec2e18 svgShape"></path>
  <path d="M900 793.05a16 16 0 0 1-16-16V452.17a16 16 0 0 1 32 0V777A16 16 0 0 1 900 793.05ZM487.43 793.05a16 16 0 0 1-16-16V452.17a16 16 0 0 1 32 0V777.05A16 16 0 0 1 487.43 793.05Z" fill="#1862ec" class="colorec2e18 svgShape"></path>
  <path d="M774.8,259.11H448a16,16,0,0,1-16-16V178.55a16,16,0,0,1,16-16H774.8a16,16,0,0,1,16,16v64.56A16,16,0,0,1,774.8,259.11ZM464,227.11H758.8V194.55H464Z" fill="#377dff" class="color56060d svgShape"></path>
</svg>
