<svg xmlns="http://www.w3.org/2000/svg" viewBox="0 0 512 512" id="ServerIpAddress">
  <path d="M421 382a17.52 17.52 0 0 0 17.5-17.5v-70A17.52 17.52 0 0 0 421 277H91a17.52 17.52 0 0 0-17.5 17.5v70A17.52 17.52 0 0 0 91 382h7.5v25H91a17.52 17.52 0 0 0-17.5 17.5v70A17.52 17.52 0 0 0 91 512h330a17.52 17.52 0 0 0 17.5-17.5v-70A17.52 17.52 0 0 0 421 407h-7.5v-25ZM88.5 364.5v-70A2.5 2.5 0 0 1 91 292h330a2.5 2.5 0 0 1 2.5 2.5V322H294a7.5 7.5 0 0 0 0 15h129.5v27.5a2.5 2.5 0 0 1-2.5 2.5H91a2.5 2.5 0 0 1-2.5-2.5Zm335 60V452H294a7.5 7.5 0 0 0 0 15h129.5v27.5a2.5 2.5 0 0 1-2.5 2.5H91a2.5 2.5 0 0 1-2.5-2.5v-70A2.5 2.5 0 0 1 91 422h330a2.5 2.5 0 0 1 2.5 2.5Zm-25-17.5h-285v-25h285Z" fill="#377dff" class="color000000 svgShape"></path>
  <path d="M224 302h-20a17.52 17.52 0 0 0-17.5 17.5v20A17.52 17.52 0 0 0 204 357h20a17.52 17.52 0 0 0 17.5-17.5v-20A17.52 17.52 0 0 0 224 302zm2.5 37.5a2.5 2.5 0 0 1-2.5 2.5h-20a2.5 2.5 0 0 1-2.5-2.5v-20a2.5 2.5 0 0 1 2.5-2.5h20a2.5 2.5 0 0 1 2.5 2.5zM204 487h20a17.52 17.52 0 0 0 17.5-17.5v-20A17.52 17.52 0 0 0 224 432h-20a17.52 17.52 0 0 0-17.5 17.5v20A17.52 17.52 0 0 0 204 487zm-2.5-37.5a2.5 2.5 0 0 1 2.5-2.5h20a2.5 2.5 0 0 1 2.5 2.5v20a2.5 2.5 0 0 1-2.5 2.5h-20a2.5 2.5 0 0 1-2.5-2.5zM144 302h-20a17.52 17.52 0 0 0-17.5 17.5v20A17.52 17.52 0 0 0 124 357h20a17.52 17.52 0 0 0 17.5-17.5v-20A17.52 17.52 0 0 0 144 302zm2.5 37.5a2.5 2.5 0 0 1-2.5 2.5h-20a2.5 2.5 0 0 1-2.5-2.5v-20a2.5 2.5 0 0 1 2.5-2.5h20a2.5 2.5 0 0 1 2.5 2.5zM124 487h20a17.52 17.52 0 0 0 17.5-17.5v-20A17.52 17.52 0 0 0 144 432h-20a17.52 17.52 0 0 0-17.5 17.5v20A17.52 17.52 0 0 0 124 487zm-2.5-37.5a2.5 2.5 0 0 1 2.5-2.5h20a2.5 2.5 0 0 1 2.5 2.5v20a2.5 2.5 0 0 1-2.5 2.5h-20a2.5 2.5 0 0 1-2.5-2.5zm85.61-246.28 27.08 40.18a26.3 26.3 0 0 0 43.62 0l27.08-40.18a107.5 107.5 0 1 0-97.78 0zM265.37 235a11.3 11.3 0 0 1-18.74 0l-15.45-22.9a107.66 107.66 0 0 0 49.64 0zM256 15a92.5 92.5 0 1 1-92.5 92.5A92.61 92.61 0 0 1 256 15z" fill="#377dff" class="color000000 svgShape"></path>
  <path d="M229 158.5a7.5 7.5 0 0 0 7.5-7.5V64a7.5 7.5 0 0 0-15 0v87a7.5 7.5 0 0 0 7.5 7.5zm30 0a7.5 7.5 0 0 0 7.5-7.5v-34h13.75a30.25 30.25 0 0 0 0-60.5H259a7.5 7.5 0 0 0-7.5 7.5v87a7.5 7.5 0 0 0 7.5 7.5zm7.5-87h13.75a15.25 15.25 0 0 1 0 30.5H266.5z" fill="#377dff" class="color000000 svgShape"></path>
</svg>
