<svg version="1.2" xmlns="http://www.w3.org/2000/svg" viewBox="0 0 659 659" width="659" height="659"><style>.a{fill:#0080ff}</style><path class="a" d="m331 484.8v96.9c164.1 0 291.9-158.6 238.2-330.6-23.4-75.1-83.1-134.9-158.3-158.3-172-53.7-330.6 74.1-330.6 238.2h97.1q0 0 0 0c0-103 102-182.7 210.3-143.4 40.1 14.6 72.1 46.6 86.7 86.7 39.3 108.2-40.3 210.1-143.2 210.3v-96.5q0 0 0 0h-96.8q0 0 0 0v96.7zm-96.6 74.4h-74.3v-74.4h74.4v74.4q0 0-0.1 0zm-74.3-74.4h-62.3q0 0 0 0v-62.3c0 0 0 0 0 0h62.3q0 0 0 0z"/></svg>