<svg xmlns="http://www.w3.org/2000/svg" viewBox="0 0 48 48" id="Domain">
  <path fill-rule="evenodd" d="m44,7.99c0-2.2-1.78-3.99-3.99-3.99H7.99c-2.2,0-3.99,1.78-3.99,3.99v32.03c0,2.2,1.78,3.99,3.99,3.99h32.03c2.2,0,3.99-1.78,3.99-3.99V7.99h0Zm-23.46-1.99l-3.7,5.55c-.19.28-.5.45-.83.45H6v28.01c0,1.1.89,1.99,1.99,1.99h32.03c1.1,0,1.99-.89,1.99-1.99V7.99c0-1.1-.89-1.99-1.99-1.99h-19.48Zm6.98,31.55l2.93,1.95c.46.31,1.08.18,1.39-.28.31-.46.18-1.08-.28-1.39l-2.92-1.95c.24-.58.37-1.22.37-1.89,0-2.76-2.24-5-5-5s-5,2.24-5,5,2.24,5,5,5c1.37,0,2.62-.55,3.52-1.45h0Zm-3.52-6.55c1.66,0,3,1.34,3,3s-1.34,3-3,3-3-1.34-3-3,1.34-3,3-3h0ZM7,21c0,1.59.63,3.12,1.76,4.24,1.12,1.13,2.65,1.76,4.24,1.76h22c3.31,0,6-2.69,6-6h0c0-3.31-2.69-6-6-6H13c-3.31,0-6,2.69-6,6h0Zm2,0c0-2.21,1.79-4,4-4h22c2.21,0,4,1.79,4,4,0,0-.03.55-.08.8-.37,1.82-1.99,3.2-3.92,3.2H13c-1.06,0-2.08-.42-2.83-1.17s-1.17-1.77-1.17-2.83h0Zm8.03-2.24l-.57,2.29-.75-.75c-.39-.39-1.02-.39-1.42,0l-.75.75-.57-2.29c-.13-.54-.68-.86-1.21-.73-.54.13-.86.68-.73,1.21l1,4c.09.35.36.63.7.72.35.1.72,0,.97-.26l1.29-1.29,1.29,1.29c.26.25.63.35.97.26.35-.1.62-.37.7-.72l1-4c.13-.53-.19-1.08-.73-1.21-.53-.13-1.08.19-1.21.73h0Zm3,.48l1,4c.09.35.36.63.7.72.35.1.72,0,.97-.26l1.29-1.29,1.29,1.29c.26.25.63.35.97.26.35-.1.62-.37.7-.72l1-4c.13-.53-.19-1.08-.73-1.21-.53-.13-1.08.19-1.21.73l-.57,2.29-.75-.75c-.39-.39-1.02-.39-1.42,0l-.75.75-.57-2.29c-.13-.54-.68-.86-1.21-.73-.54.13-.86.68-.73,1.21h0Zm9,0l1,4c.09.35.36.63.7.72.35.1.72,0,.97-.26l1.29-1.29,1.29,1.29c.26.25.63.35.97.26.35-.1.62-.37.7-.72l1-4c.13-.53-.19-1.08-.73-1.21-.53-.13-1.08.19-1.21.73l-.57,2.29-.75-.75c-.39-.39-1.02-.39-1.42,0l-.75.75-.57-2.29c-.13-.54-.68-.86-1.21-.73-.54.13-.86.68-.73,1.21h0Zm-8.03-9.74c0,.66.26,1.3.73,1.77.47.47,1.1.73,1.77.73h14c.66,0,1.3-.26,1.77-.73.47-.47.73-1.1.73-1.77s-.26-1.3-.73-1.77c-.47-.47-1.1-.73-1.77-.73h-14c-.66,0-1.3.26-1.77.73-.47.47-.73,1.1-.73,1.77h0Zm-2.87-3.5l-2.67,4H6v-2.01c0-1.1.89-1.99,1.99-1.99h10.15Zm4.87,3.5c0-.13.05-.26.15-.35s.22-.15.35-.15h14c.13,0,.26.05.35.15.09.09.15.22.15.35s-.05.26-.15.35c-.09.09-.22.15-.35.15h-14c-.13,0-.26-.05-.35-.15-.09-.09-.15-.22-.15-.35h0Zm-14-2.5c.55,0,1,.45,1,1s-.45,1-1,1-1-.45-1-1,.45-1,1-1h0Zm4,0c.55,0,1,.45,1,1s-.45,1-1,1-1-.45-1-1,.45-1,1-1h0Z" fill="#377dff" class="color000000 svgShape"></path>
</svg>
