<svg xmlns="http://www.w3.org/2000/svg" viewBox="0 0 32 32" id="Email"><g color="#000" font-family="sans-serif" font-weight="400" fill="#000000" class="color000000 svgShape"><path style="line-height:normal;text-indent:0;text-align:start;text-decoration-line:none;text-decoration-style:solid;text-decoration-color:#000;text-transform:none;block-progression:tb;isolation:auto;mix-blend-mode:normal" fill="#377dff" fill-rule="evenodd" d="M-1003.508 55.914a.5.5 0 0 0-.306.115l-3.996 3.246a.5.5 0 1 0 .63.776l3.995-3.246a.5.5 0 0 0-.323-.89zm18.987.01a.5.5 0 0 0-.305.892l4.006 3.239a.5.5 0 1 0 .629-.778l-4.008-3.238a.5.5 0 0 0-.322-.115z" overflow="visible" transform="translate(1010 -46.357)" class="color2b4255 svgShape"></path><path style="line-height:normal;text-indent:0;text-align:start;text-decoration-line:none;text-decoration-style:solid;text-decoration-color:#000;text-transform:none;block-progression:tb;isolation:auto;mix-blend-mode:normal" fill="#427ff0" d="M-1003.5 48.355a.5.5 0 0 0-.5.5v13.518a.5.5 0 1 0 1 0V49.355h12.5a.5.5 0 1 0 0-1h-13zm18.992 6.026a.5.5 0 0 0-.492.508v7.457a.5.5 0 1 0 1 0V54.889a.5.5 0 0 0-.508-.508z" overflow="visible" transform="translate(1010 -46.357)" class="colorf05542 svgShape"></path><path style="line-height:normal;text-indent:0;text-align:start;text-decoration-line:none;text-decoration-style:solid;text-decoration-color:#000;text-transform:none;block-progression:tb;isolation:auto;mix-blend-mode:normal" fill="#427ff0" fill-rule="evenodd" d="M-996 52.357v1h5v-1h-5zm0 2v1h5v-1h-5zm-5 4v1h14v-1h-14z" overflow="visible" transform="translate(1010 -46.357)" class="colorf05542 svgShape"></path><path style="line-height:normal;text-indent:0;text-align:start;text-decoration-line:none;text-decoration-style:solid;text-decoration-color:#000;text-transform:none;block-progression:tb;isolation:auto;mix-blend-mode:normal" fill="#427ff0" d="M-1001.5 50.355a.5.5 0 0 0-.5.5v4a.5.5 0 0 0 .5.5h4a.5.5 0 0 0 .5-.5v-4a.5.5 0 0 0-.5-.5h-4zm.5 1h3v3h-3v-3z" overflow="visible" transform="translate(1010 -46.357)" class="colorf05542 svgShape"></path><path style="line-height:normal;text-indent:0;text-align:start;text-decoration-line:none;text-decoration-style:solid;text-decoration-color:#000;text-transform:none;block-progression:tb;isolation:auto;mix-blend-mode:normal" fill="#427ff0" fill-rule="evenodd" d="M-1001 56.357v1h14v-1h-14zm9 6v1h4v-1h-4zm-9-2v1h14v-1h-14zm12.492-12.002a.5.5 0 0 0-.492.5v4a.5.5 0 0 0 .5.5h4a.5.5 0 0 0 .354-.853l-4-4a.5.5 0 0 0-.362-.147zm.508 1.708 2.293 2.292H-988v-2.292z" overflow="visible" transform="translate(1010 -46.357)" class="colorf05542 svgShape"></path><path style="line-height:normal;text-indent:0;text-align:start;text-decoration-line:none;text-decoration-style:solid;text-decoration-color:#000;text-transform:none;block-progression:tb;isolation:auto;mix-blend-mode:normal" fill="#377dff" d="M-1007.508 59.35a.5.5 0 0 0-.492.507v16a.5.5 0 0 0 .5.5h27a.5.5 0 0 0 .5-.5v-16a.5.5 0 1 0-1 0v15.5h-26v-15.5a.5.5 0 0 0-.508-.507z" overflow="visible" transform="translate(1010 -46.357)" class="color2b4255 svgShape"></path><path style="line-height:normal;text-indent:0;text-align:start;text-decoration-line:none;text-decoration-style:solid;text-decoration-color:#000;text-transform:none;block-progression:tb;isolation:auto;mix-blend-mode:normal" fill="#377dff" fill-rule="evenodd" d="m-1007.443 59.379-.555.832 13.72 9.15a.5.5 0 0 0 .555 0l13.721-9.15-.555-.832L-994 68.344l-13.443-8.965z" overflow="visible" transform="translate(1010 -46.357)" class="color2b4255 svgShape"></path></g></svg>