<svg xmlns="http://www.w3.org/2000/svg" enable-background="new 0 0 64 64" viewBox="0 0 64 64" id="Onlineanalysis">
  <path d="M62,4H2C0.897,4,0,4.897,0,6v41c0,1.103,0.897,2,2,2h25v5h-9c-1.103,0-2,0.897-2,2v2c0,1.103,0.897,2,2,2h28c1.103,0,2-0.897,2-2v-2c0-1.103-0.897-2-2-2h-9v-5h25c1.103,0,2-0.897,2-2V6C64,4.897,63.103,4,62,4z M46.001,58H18v-2h28L46.001,58z M35,54h-6v-5h6V54z M2,47v-2h45c0.552,0,1-0.448,1-1s-0.448-1-1-1H2V6h60l0.001,37H51c-0.552,0-1,0.448-1,1s0.448,1,1,1h11.001l0,2H2z" fill="#377dff" class="color000000 svgShape"></path>
  <path d="M6 36h4c.552 0 1-.448 1-1V14c0-.552-.448-1-1-1H9V9c0-.552-.448-1-1-1S7 8.448 7 9v4H6c-.552 0-1 .448-1 1v21C5 35.552 5.448 36 6 36zM7 15h2v19H7V15zM14 30h1v6c0 .552.448 1 1 1s1-.448 1-1v-6h1c.552 0 1-.448 1-1V15c0-.552-.448-1-1-1h-1v-2c0-.552-.448-1-1-1s-1 .448-1 1v2h-1c-.552 0-1 .448-1 1v14C13 29.552 13.448 30 14 30zM15 16h2v12h-2V16zM46 37h4c.552 0 1-.448 1-1V15c0-.552-.448-1-1-1h-1v-4c0-.552-.448-1-1-1s-1 .448-1 1v4h-1c-.552 0-1 .448-1 1v21C45 36.552 45.448 37 46 37zM47 16h2v19h-2V16zM22 36h1c0 .552.448 1 1 1s1-.448 1-1h1c.552 0 1-.448 1-1v-6c0-.552-.448-1-1-1h-1v-7c0-.552-.448-1-1-1s-1 .448-1 1v7h-1c-.552 0-1 .448-1 1v6C21 35.552 21.448 36 22 36zM23 30h2v4h-2V30zM30 30h4c.552 0 1-.448 1-1V9c0-.552-.448-1-1-1h-4c-.552 0-1 .448-1 1v20C29 29.552 29.448 30 30 30zM31 10h2v18h-2V10zM38 33h1v2c0 .552.448 1 1 1s1-.448 1-1v-2h1c.552 0 1-.448 1-1v-3c0-.552-.448-1-1-1h-1V14c0-.552-.448-1-1-1s-1 .448-1 1v14h-1c-.552 0-1 .448-1 1v3C37 32.552 37.448 33 38 33zM39 30h2v1h-2V30z" fill="#377dff" class="color000000 svgShape"></path>
  <path d="M60,40V8c0-0.552-0.448-1-1-1s-1,0.448-1,1v31H5c-0.552,0-1,0.448-1,1s0.448,1,1,1h54C59.552,41,60,40.552,60,40z" fill="#377dff" class="color000000 svgShape"></path>
</svg>
