<svg xmlns="http://www.w3.org/2000/svg" viewBox="0 0 32 32" id="speedtest">
  <path fill-rule="evenodd" d="m30,1.5H2c-.2763672,0-.5.2236328-.5.5v12c0,.2763672.2236328.5.5.5s.5-.2236328.5-.5V2.5h27v19h-2.0253296c-.2645264-6.1085815-5.3026123-11-11.4746704-11s-11.210144,4.8914185-11.4746704,11h-2.0253296v-3.5c0-.2763672-.2236328-.5-.5-.5s-.5.2236328-.5.5v8c0,.2763672.2236328.5.5.5h9.359375l-.75,3h-.609375c-.2763672,0-.5.2236328-.5.5s.2236328.5.5.5h12c.2763672,0,.5-.2236328.5-.5s-.2236328-.5-.5-.5h-.609375l-.75-3h9.359375c.2763672,0,.5-.2236328.5-.5V2c0-.2763672-.2236328-.5-.5-.5ZM6.6752319,17.1937866l.4146118.2393188c.0791016.0454102.1650391.0668945.25.0668945.171875,0,.3408203-.0898438.4326172-.25.1386719-.2392578.0566406-.5449219-.1826172-.6831055l-.4129028-.2383423c.81427-1.2623901,1.8895874-2.3375244,3.1519775-3.1517944l.2384644.4130859c.0917969.1601562.2607422.25.4326172.25.0849609,0,.1708984-.0214844.25-.0668945.2392578-.1381836.3212891-.4438477.1826172-.6831055l-.2391968-.4144287c1.3015747-.6737061,2.760498-1.0767822,4.3065796-1.1500854v.4746704c0,.2763672.2236328.5.5.5s.5-.2236328.5-.5v-.4746704c1.5460815.0733032,3.0050049.4763794,4.3065796,1.1500854l-.2391968.4144287c-.1386719.2392578-.0566406.5449219.1826172.6831055.0791016.0454102.1650391.0668945.25.0668945.171875,0,.3408203-.0898438.4326172-.25l.2384644-.4130859c1.2623901.81427,2.3377075,1.8894043,3.1519775,3.1517944l-.4129028.2383423c-.2392578.1381836-.3212891.4438477-.1826172.6831055.0917969.1601562.2607422.25.4326172.25.0849609,0,.1708984-.0214844.25-.0668945l.4146118-.2393188c.673584,1.3015137,1.0765991,2.7603149,1.1499023,4.3062134h-7.0252075c-.0855713-.5900879-.3139648-1.1296387-.656311-1.5865479l3.2175903-3.2166748c.1953125-.1953125.1953125-.5117188,0-.7070312s-.5117188-.1953125-.7070312,0l-3.2175903,3.2167358c-.5842896-.4376831-1.3016968-.7064819-2.0861206-.7064819-1.7584839,0-3.2042236,1.3083496-3.4494629,3h-7.0252075c.0733032-1.5458984.4763184-3.0046997,1.1499023-4.3062134Zm11.774231,4.3062134h-4.8989258c.2322998-1.1397095,1.2418213-2,2.4494629-2s2.2171631.8602905,2.4494629,2Zm1.9099121,8h-8.71875l.75-3h7.21875l.75,3Zm9.140625-4H2.5v-3h27v3Z" fill="#377dff" class="color000000 svgShape"></path>
  <path fill-rule="evenodd" d="M18 23.5h-4c-.2763672 0-.5.2236328-.5.5s.2236328.5.5.5h4c.2763672 0 .5-.2236328.5-.5s-.2236328-.5-.5-.5zM5 5.5h7c.2763672 0 .5-.2236328.5-.5s-.2236328-.5-.5-.5h-7c-.2763672 0-.5.2236328-.5.5s.2236328.5.5.5zM5 8.5h5c.2763672 0 .5-.2236328.5-.5s-.2236328-.5-.5-.5h-5c-.2763672 0-.5.2236328-.5.5s.2236328.5.5.5z" fill="#377dff" class="color000000 svgShape"></path>
  <circle cx="2" cy="16" r=".5" fill="#377dff" class="color000000 svgShape"></circle>
</svg>
