<svg version="1.2" xmlns="http://www.w3.org/2000/svg" viewBox="0 0 444 351" width="444" height="351"><defs><linearGradient id="P" gradientUnits="userSpaceOnUse"/><linearGradient id="g1" x1="63" y1="232.9" x2="118.6" y2="232.9" href="#P"><stop stop-color="#00c6ff"/><stop offset="1" stop-color="#0072ff"/></linearGradient><linearGradient id="g2" x1="117.9" y1="27.4" x2="176.4" y2="27.4" href="#P"><stop stop-color="#00c6ff"/><stop offset="1" stop-color="#0072ff"/></linearGradient><linearGradient id="g3" x1="167.1" y1="68.7" x2="193" y2="68.7" href="#P"><stop stop-color="#00c6ff"/><stop offset="1" stop-color="#0072ff"/></linearGradient><linearGradient id="g4" x1="167.1" y1="124.3" x2="193" y2="124.3" href="#P"><stop stop-color="#00c6ff"/><stop offset="1" stop-color="#0072ff"/></linearGradient><linearGradient id="g5" x1="167.1" y1="152.1" x2="193" y2="152.1" href="#P"><stop stop-color="#00c6ff"/><stop offset="1" stop-color="#0072ff"/></linearGradient><linearGradient id="g6" x1="167.1" y1="96.5" x2="193" y2="96.5" href="#P"><stop stop-color="#00c6ff"/><stop offset="1" stop-color="#0072ff"/></linearGradient><linearGradient id="g7" x1="101.4" y1="52" x2="150.2" y2="52" href="#P"><stop stop-color="#00c6ff"/><stop offset="1" stop-color="#0072ff"/></linearGradient><linearGradient id="g8" x1="101.4" y1="68.7" x2="150.2" y2="68.7" href="#P"><stop stop-color="#00c6ff"/><stop offset="1" stop-color="#0072ff"/></linearGradient><linearGradient id="g9" x1="101.4" y1="85.4" x2="150.2" y2="85.4" href="#P"><stop stop-color="#00c6ff"/><stop offset="1" stop-color="#0072ff"/></linearGradient><linearGradient id="g10" x1="101.4" y1="102.1" x2="150.2" y2="102.1" href="#P"><stop stop-color="#00c6ff"/><stop offset="1" stop-color="#0072ff"/></linearGradient><linearGradient id="g11" x1="101.4" y1="118.8" x2="150.2" y2="118.8" href="#P"><stop stop-color="#00c6ff"/><stop offset="1" stop-color="#0072ff"/></linearGradient><linearGradient id="g12" x1="101.4" y1="135.5" x2="150.2" y2="135.5" href="#P"><stop stop-color="#00c6ff"/><stop offset="1" stop-color="#0072ff"/></linearGradient><linearGradient id="g13" x1="101.4" y1="152.2" x2="150.2" y2="152.2" href="#P"><stop stop-color="#00c6ff"/><stop offset="1" stop-color="#0072ff"/></linearGradient><linearGradient id="g14" x1="89.3" y1="181.1" x2="148.3" y2="181.1" href="#P"><stop stop-color="#00c6ff"/><stop offset="1" stop-color="#0072ff"/></linearGradient><linearGradient id="g15" x1="318.4" y1="103.8" x2="330.2" y2="103.8" href="#P"><stop stop-color="#00c6ff"/><stop offset="1" stop-color="#0072ff"/></linearGradient><linearGradient id="g16" x1="305.4" y1="100.9" x2="317.2" y2="100.9" href="#P"><stop stop-color="#00c6ff"/><stop offset="1" stop-color="#0072ff"/></linearGradient><linearGradient id="g17" x1="292.5" y1="97.9" x2="304.2" y2="97.9" href="#P"><stop stop-color="#00c6ff"/><stop offset="1" stop-color="#0072ff"/></linearGradient><linearGradient id="g18" x1="273.7" y1="63.9" x2="367.8" y2="63.9" href="#P"><stop stop-color="#00c6ff"/><stop offset="1" stop-color="#0072ff"/></linearGradient><linearGradient id="g19" x1="110.4" y1="300.6" x2="156.9" y2="300.6" href="#P"><stop stop-color="#00c6ff"/><stop offset="1" stop-color="#0072ff"/></linearGradient></defs><style>.a{fill:url(#g1)}.b{fill:#00c6ff}.c{fill:#002350}.d{opacity:.8;fill:#002350}.e{fill:#fff}.f{fill:#b2d3ea}.g{fill:#d4ecff}.h{fill:#fafdff}.i{fill:url(#g2)}.j{fill:url(#g3)}.k{fill:#396caa}.l{fill:url(#g4)}.m{fill:url(#g5)}.n{fill:url(#g6)}.o{fill:url(#g7)}.p{fill:url(#g8)}.q{fill:url(#g9)}.r{fill:url(#g10)}.s{fill:url(#g11)}.t{fill:url(#g12)}.u{fill:url(#g13)}.v{fill:url(#g14)}.w{fill:url(#g15)}.x{fill:url(#g16)}.y{fill:url(#g17)}.z{fill:#173d7a}.A{fill:url(#g18)}.B{fill:#5793ce}.C{fill:url(#g19)}</style><path class="a" d="m86.4 264.3q-0.1 0-0.2 0 0 0-0.1 0 0 0-0.1 0 0 0-0.1-0.1l-21.6-11.2q-0.6-0.3-0.9-0.9-0.4-0.5-0.4-1.2 0-0.7 0.3-1.3 0.4-0.5 1-0.9l21.4-11.7q0.1 0 0.1-0.1 0.1-0.1 0.1-0.3 0-0.1-0.1-0.2 0-0.1-0.1-0.1l-21.2-11.8q-0.5-0.3-0.9-0.9-0.3-0.5-0.3-1.2 0-0.6 0.3-1.2 0.3-0.6 0.8-0.9l29.8-17.9q0.9-0.5 1.8-0.7 0.9-0.3 1.9-0.3 0.9 0 1.8 0.2 1 0.2 1.8 0.7l16.6 9.4q0.3 0.2 0.4 0.6 0.1 0.4-0.1 0.8-0.2 0.3-0.6 0.4-0.4 0.1-0.7-0.1l-16.6-9.3q-0.6-0.4-1.3-0.6-0.6-0.1-1.3-0.1-0.7 0-1.4 0.2-0.6 0.2-1.2 0.5l-29.8 17.9q-0.1 0.1-0.2 0.2 0 0.1 0 0.2 0 0.1 0 0.2 0.1 0.1 0.2 0.1l21.2 11.8q0.5 0.3 0.9 0.9 0.3 0.6 0.3 1.2 0 0.7-0.3 1.3-0.4 0.5-1 0.9l-21.4 11.7q-0.1 0-0.1 0.1-0.1 0.1-0.1 0.3 0 0.1 0.1 0.2 0 0.1 0.1 0.1l21.6 11.3q0.3 0.1 0.5 0.4 0.1 0.3 0 0.7 0 0.3-0.3 0.5-0.3 0.2-0.6 0.2z"/><path class="b" d="m91.4 263.9l-2.6 4.6-10.1-5.7 2.7-4.7z"/><path class="b" d="m78.2 261.6q0-0.5 0.1-1 0.2-0.5 0.4-0.9 0.3-0.4 0.6-0.8 0.3-0.4 0.7-0.6c1.1-0.6 1.9-0.1 1.9 1.1q0 0.5-0.1 0.9-0.2 0.5-0.4 0.9-0.3 0.5-0.6 0.8-0.3 0.4-0.7 0.7c-1.1 0.6-1.9 0.1-1.9-1.1z"/><path class="c" d="m106.2 270.5l-4.3 7.5-15.7-9 4.3-7.6z"/><path class="d" d="m89.8 262.9l-3.4-1.9q-0.6 0.4-1 0.9-0.5 0.6-0.8 1.2-0.4 0.6-0.6 1.2-0.2 0.7-0.3 1.4l3.4 1.9q0.6-0.4 1-0.9 0.5-0.6 0.8-1.2 0.3-0.6 0.6-1.2 0.2-0.7 0.3-1.4z"/><path class="c" d="m85.3 267q0-0.8 0.2-1.6 0.3-0.7 0.7-1.4 0.4-0.7 0.9-1.3 0.6-0.6 1.2-1c1.7-1 3.1-0.2 3.1 1.7q0 0.8-0.3 1.6-0.2 0.8-0.6 1.5-0.4 0.7-0.9 1.2-0.6 0.6-1.3 1.1c-1.6 0.9-3 0.2-3-1.8z"/><path class="e" d="m82.2 260.5c-0.7 0-1.2-0.3-1.2-0.7 0-0.4 0.5-0.7 1.2-0.7 0.7 0 1.3 0.3 1.3 0.7 0 0.4-0.6 0.7-1.3 0.7z"/><path class="f" d="m154.2 191.6l-52.9-30.3c-2-1.1-1.7-3 0.5-4.3l30.5-17.6c2.2-1.3 5.6-1.5 7.5-0.3l53 30.2c2 1.1 1.7 3.1-0.5 4.3l-30.5 17.6c-2.2 1.3-5.6 1.5-7.6 0.4z"/><path class="d" d="m197.6 159.1v-123.7l-49.2-12.9-9.1-5.2c-2.1-1.2-5.7-1.1-8.1 0.3l-8.4 4.9h-26.3l7.8 119.4q0 0.4 0.1 0.7 0.1 0.3 0.3 0.6 0.2 0.3 0.4 0.5 0.3 0.3 0.6 0.4l49.1 37c2 1.2 5.7 1.1 8.1-0.3l32.7-18.9c1.4-0.8 2-1.8 2-2.8z"/><path class="g" d="m135.6 16.5q-0.6 0-1.2 0.1-0.5 0-1.1 0.2-0.5 0.1-1.1 0.3-0.5 0.3-1 0.5l-8.4 4.9h-26.3v124q0 0.4 0.1 0.7 0.1 0.3 0.3 0.6 0.2 0.3 0.4 0.5 0.3 0.3 0.6 0.4l56.9 32.4q0.4 0.2 0.9 0.4 0.4 0.2 0.9 0.3 0.5 0.1 1 0.1 0.4 0.1 0.9 0l0.6-124.8z"/><path class="c" d="m155.3 181.4q0.8 0.3 1.6 0.4 0.8 0.1 1.6 0.1 0.9 0 1.7-0.1 0.8-0.2 1.6-0.5v-125.7h-6.5z"/><path class="g" d="m154.8 57.1l-56.9-32.4c-2.1-1.2-1.8-3.3 0.6-4.7l32.7-18.9c2.4-1.3 6-1.5 8.1-0.3l56.9 32.4c2 1.2 1.8 3.3-0.6 4.7l-32.7 18.9c-2.4 1.4-6.1 1.5-8.1 0.3z"/><path class="h" d="m195.6 35.6l-32.7 18.9c-2.4 1.4-6.1 1.5-8.1 0.3l-56.9-32.4q-0.1-0.1-0.3-0.2-0.1-0.1-0.2-0.2-0.2-0.1-0.3-0.2-0.1-0.2-0.2-0.3c-0.7 1.1-0.4 2.4 1 3.2l56.9 32.4c2 1.2 5.7 1.1 8.1-0.3l32.7-18.9c1.9-1.1 2.4-2.6 1.6-3.8q-0.1 0.3-0.3 0.5-0.2 0.2-0.4 0.4-0.2 0.2-0.4 0.3-0.3 0.2-0.5 0.3z"/><path class="i" d="m156.4 44l-37.9-21.9c-0.9-0.6-0.8-1.6 0.3-2.2l15.3-8.9q0.4-0.2 0.9-0.4 0.5-0.1 1-0.1 0.5 0 1 0.1 0.5 0.1 0.9 0.3l37.9 21.9c0.9 0.6 0.8 1.5-0.3 2.2l-15.3 8.8q-0.5 0.3-0.9 0.4-0.5 0.1-1 0.2-0.5 0-1-0.1-0.5-0.1-0.9-0.3z"/><path class="g" d="m135.9 23l-2.1-1.2c-0.2-0.1-0.2-0.2 0-0.3l2.1-1.3q0.1 0 0.1 0 0.1 0 0.2 0 0 0 0.1 0 0.1 0 0.1 0l2.2 1.3c0.2 0.1 0.1 0.2 0 0.3l-2.1 1.2q-0.1 0-0.2 0.1 0 0-0.1 0-0.1 0-0.1 0-0.1 0-0.2-0.1z"/><path class="g" d="m143.3 27.3l-2.2-1.3c-0.2-0.1-0.1-0.2 0-0.3l2.1-1.2q0.1-0.1 0.2-0.1 0 0 0.1 0 0.1 0 0.1 0 0.1 0 0.2 0l2.2 1.3c0.1 0.1 0.1 0.2-0.1 0.3l-2.1 1.2q-0.1 0.1-0.1 0.1-0.1 0-0.2 0 0 0-0.1 0-0.1 0-0.1-0.1z"/><path class="g" d="m150.6 31.5l-2.2-1.3c-0.1-0.1-0.1-0.2 0-0.3l2.2-1.2q0-0.1 0.1-0.1 0.1 0 0.1 0 0.1 0 0.2 0 0 0 0.1 0.1l2.2 1.2c0.1 0.1 0.1 0.2-0.1 0.3l-2.1 1.2q0 0.1-0.1 0.1-0.1 0-0.1 0-0.1 0-0.2 0 0 0-0.1 0z"/><path class="g" d="m157.9 35.7l-2.2-1.3c-0.1-0.1-0.1-0.2 0.1-0.3l2.1-1.2q0 0 0.1-0.1 0.1 0 0.1 0 0.1 0 0.2 0 0 0 0.1 0.1l2.2 1.2c0.1 0.1 0.1 0.2 0 0.3l-2.2 1.3q0 0-0.1 0 0 0-0.1 0-0.1 0-0.1 0-0.1 0-0.2 0z"/><path class="c" d="m118.5 22.1h0.1q0 0 0-0.1 0.1 0 0.1 0 0 0 0 0 0.1-0.1 0.1-0.1l15.3-8.8q0.4-0.3 0.9-0.4 0.5-0.1 1-0.1 0.5-0.1 1 0 0.5 0.1 0.9 0.3l37.8 21.9c0.9-0.6 1-1.5 0.1-2l-37.9-21.9q-0.4-0.2-0.9-0.3-0.5-0.1-1-0.1-0.5 0-1 0.1-0.5 0.2-0.9 0.4l-15.3 8.9c-1.1 0.6-1.2 1.6-0.3 2.2z"/><path class="j" d="m169.3 81.6l21.5-12.3q0.5-0.3 0.9-0.8 0.4-0.5 0.7-1 0.3-0.6 0.4-1.2 0.2-0.6 0.2-1.2v-7.7c0-1.6-1-2.3-2.2-1.6l-21.5 12.3q-0.5 0.3-0.9 0.8-0.4 0.5-0.7 1-0.3 0.6-0.5 1.2-0.1 0.6-0.1 1.2v7.7c0 1.6 1 2.3 2.2 1.6z"/><path class="e" d="m191.8 55.5q0.2 0.2 0.3 0.4 0.1 0.2 0.2 0.4 0.1 0.2 0.1 0.4 0 0.2 0 0.4v7.7q0 0.7-0.2 1.2-0.1 0.6-0.4 1.2-0.3 0.5-0.7 1-0.4 0.5-0.9 0.8l-21.5 12.3q-0.1 0.1-0.3 0.2-0.1 0-0.2 0.1-0.2 0-0.3 0-0.1 0-0.3 0 0.2 0.1 0.4 0.2 0.2 0.1 0.4 0.1 0.3 0 0.5-0.1 0.2 0 0.4-0.2l21.5-12.3q0.5-0.3 0.9-0.8 0.4-0.5 0.7-1 0.3-0.6 0.4-1.2 0.2-0.6 0.2-1.2v-7.7c0-1.1-0.5-1.7-1.2-1.9z"/><path class="k" d="m175.7 73.3l2-1.2q0.1 0 0.2-0.1 0.1-0.1 0.2-0.3 0-0.1 0.1-0.2 0-0.1 0-0.3v-2.1c0-0.3-0.2-0.5-0.5-0.3l-2 1.1q-0.1 0.1-0.2 0.2 0 0.1-0.1 0.2-0.1 0.1-0.1 0.2 0 0.2 0 0.3v2.1c0 0.4 0.2 0.5 0.4 0.4z"/><path class="e" d="m182.3 69.5l2-1.2q0.1-0.1 0.2-0.2 0.1-0.1 0.2-0.2 0-0.1 0.1-0.2 0-0.2 0-0.3v-2.1c0-0.3-0.2-0.5-0.5-0.4l-2 1.2q-0.1 0.1-0.2 0.2 0 0.1-0.1 0.2-0.1 0.1-0.1 0.2 0 0.2 0 0.3v2.1c0 0.4 0.2 0.5 0.4 0.4z"/><path class="l" d="m169.3 137.2l21.5-12.3q0.5-0.3 0.9-0.8 0.4-0.5 0.7-1 0.3-0.6 0.4-1.2 0.2-0.6 0.2-1.2v-7.7c0-1.6-1-2.3-2.2-1.6l-21.5 12.3q-0.5 0.4-0.9 0.8-0.4 0.5-0.7 1-0.3 0.6-0.5 1.2-0.1 0.6-0.1 1.2v7.7c0 1.6 1 2.3 2.2 1.6z"/><path class="e" d="m191.8 111.1q0.2 0.2 0.3 0.4 0.1 0.2 0.2 0.4 0.1 0.2 0.1 0.4 0 0.2 0 0.4v7.7q0 0.7-0.2 1.3-0.1 0.6-0.4 1.1-0.3 0.5-0.7 1-0.4 0.5-0.9 0.8l-21.5 12.4q-0.1 0-0.3 0.1-0.1 0-0.2 0.1-0.2 0-0.3 0-0.1 0-0.3 0 0.2 0.1 0.4 0.2 0.2 0.1 0.4 0.1 0.3 0 0.5-0.1 0.2 0 0.4-0.2l21.5-12.3q0.5-0.3 0.9-0.8 0.4-0.5 0.7-1 0.3-0.6 0.4-1.2 0.2-0.6 0.2-1.2v-7.7c0-1.1-0.5-1.7-1.2-1.9z"/><path class="k" d="m175.7 128.9l2-1.2q0.1 0 0.2-0.1 0.1-0.1 0.2-0.3 0-0.1 0.1-0.2 0-0.1 0-0.3v-2.1c0-0.3-0.2-0.5-0.5-0.3l-2 1.1q-0.1 0.1-0.2 0.2 0 0.1-0.1 0.2-0.1 0.1-0.1 0.3 0 0.1 0 0.2v2.1c0 0.4 0.2 0.5 0.4 0.4z"/><path class="e" d="m182.3 125.1l2-1.2q0.1 0 0.2-0.1 0.1-0.1 0.2-0.3 0-0.1 0.1-0.2 0-0.1 0-0.3v-2.1c0-0.3-0.2-0.5-0.5-0.3l-2 1.1q-0.1 0.1-0.2 0.2 0 0.1-0.1 0.2-0.1 0.1-0.1 0.2 0 0.2 0 0.3v2.1c0 0.4 0.2 0.5 0.4 0.4z"/><path class="m" d="m169.3 165l21.5-12.3q0.5-0.3 0.9-0.8 0.4-0.5 0.7-1 0.3-0.6 0.4-1.2 0.2-0.5 0.2-1.2v-7.7c0-1.6-1-2.3-2.2-1.6l-21.5 12.3q-0.5 0.4-0.9 0.8-0.4 0.5-0.7 1-0.3 0.6-0.5 1.2-0.1 0.6-0.1 1.2v7.7c0 1.6 1 2.3 2.2 1.6z"/><path class="e" d="m191.8 139q0.2 0.1 0.3 0.3 0.1 0.2 0.2 0.4 0.1 0.2 0.1 0.4 0 0.2 0 0.5v7.7q0 0.6-0.2 1.2-0.1 0.6-0.4 1.1-0.3 0.6-0.7 1-0.4 0.5-0.9 0.8l-21.5 12.4q-0.1 0-0.3 0.1-0.1 0-0.2 0.1-0.2 0-0.3 0-0.1 0-0.3 0 0.2 0.1 0.4 0.2 0.2 0.1 0.4 0.1 0.3 0 0.5 0 0.2-0.1 0.4-0.3l21.5-12.3q0.5-0.3 0.9-0.8 0.4-0.5 0.7-1 0.3-0.5 0.4-1.1 0.2-0.6 0.2-1.3v-7.7c0-1.1-0.5-1.7-1.2-1.8z"/><path class="k" d="m175.7 156.7l2-1.2q0.1 0 0.2-0.1 0.1-0.1 0.2-0.3 0-0.1 0.1-0.2 0-0.1 0-0.3v-2.1c0-0.3-0.2-0.5-0.5-0.3l-2 1.1q-0.1 0.1-0.2 0.2 0 0.1-0.1 0.2-0.1 0.1-0.1 0.3 0 0.1 0 0.2v2.1c0 0.4 0.2 0.5 0.4 0.4z"/><path class="e" d="m182.3 152.9l2-1.2q0.1 0 0.2-0.1 0.1-0.1 0.2-0.3 0-0.1 0.1-0.2 0-0.1 0-0.3v-2.1c0-0.3-0.2-0.5-0.5-0.3l-2 1.1q-0.1 0.1-0.2 0.2 0 0.1-0.1 0.2-0.1 0.1-0.1 0.2 0 0.2 0 0.3v2.1c0 0.4 0.2 0.5 0.4 0.4z"/><path class="n" d="m169.3 109.4l21.5-12.3q0.5-0.3 0.9-0.8 0.4-0.5 0.7-1 0.3-0.6 0.4-1.2 0.2-0.6 0.2-1.2v-7.7c0-1.6-1-2.3-2.2-1.6l-21.5 12.3q-0.5 0.4-0.9 0.8-0.4 0.5-0.7 1-0.3 0.6-0.5 1.2-0.1 0.6-0.1 1.2v7.7c0 1.6 1 2.3 2.2 1.6z"/><path class="e" d="m191.8 83.3q0.2 0.2 0.3 0.4 0.1 0.2 0.2 0.4 0.1 0.2 0.1 0.4 0 0.2 0 0.4v7.7q0 0.7-0.2 1.3-0.1 0.6-0.4 1.1-0.3 0.5-0.7 1-0.4 0.5-0.9 0.8l-21.5 12.4q-0.1 0-0.3 0.1-0.1 0-0.2 0.1-0.2 0-0.3 0-0.1 0-0.3 0 0.2 0.1 0.4 0.2 0.2 0.1 0.4 0.1 0.3 0 0.5-0.1 0.2 0 0.4-0.2l21.5-12.3q0.5-0.3 0.9-0.8 0.4-0.5 0.7-1 0.3-0.6 0.4-1.2 0.2-0.6 0.2-1.2v-7.7c0-1.1-0.5-1.7-1.2-1.9z"/><path class="k" d="m175.7 101.1l2-1.2q0.1 0 0.2-0.1 0.1-0.1 0.2-0.3 0-0.1 0.1-0.2 0-0.1 0-0.3v-2.1c0-0.3-0.2-0.5-0.5-0.3l-2 1.1q-0.1 0.1-0.2 0.2 0 0.1-0.1 0.2-0.1 0.1-0.1 0.2 0 0.2 0 0.3v2.1c0 0.4 0.2 0.5 0.4 0.4z"/><path class="e" d="m182.3 97.3l2-1.2q0.1 0 0.2-0.1 0.1-0.2 0.2-0.3 0-0.1 0.1-0.2 0-0.1 0-0.3v-2.1c0-0.3-0.2-0.5-0.5-0.4l-2 1.2q-0.1 0.1-0.2 0.2 0 0.1-0.1 0.2-0.1 0.1-0.1 0.2 0 0.2 0 0.3v2.1c0 0.4 0.2 0.5 0.4 0.4z"/><path class="d" d="m150.6 73.8l-49.6-28.7q-0.5-0.3-0.8-0.8-0.4-0.4-0.7-0.9-0.2-0.5-0.4-1-0.1-0.6-0.1-1.1v-9.5c0-1.5 0.9-2.2 2-1.5l49.6 28.6q0.5 0.4 0.9 0.8 0.3 0.4 0.6 0.9 0.3 0.5 0.4 1.1 0.1 0.5 0.1 1.1v9.4c0 1.5-0.9 2.2-2 1.6z"/><path class="o" d="m149.2 70.4l-46.8-27q-0.2-0.1-0.4-0.4-0.2-0.2-0.3-0.4-0.2-0.3-0.2-0.6-0.1-0.2-0.1-0.5v-7.1c0-0.8 0.4-1.1 1-0.8l46.8 27q0.2 0.2 0.4 0.4 0.2 0.2 0.3 0.5 0.2 0.2 0.2 0.5 0.1 0.3 0.1 0.6v7.1c0 0.7-0.4 1.1-1 0.7z"/><path class="e" d="m112.2 45.5l-7-4.1q-0.3-0.1-0.4-0.3-0.2-0.3-0.3-0.5-0.2-0.3-0.2-0.5-0.1-0.3-0.1-0.6c0-0.7 0.4-1 1-0.7l7 4q0.2 0.2 0.4 0.4 0.2 0.2 0.3 0.4 0.1 0.3 0.2 0.6 0 0.2 0.1 0.5c0 0.7-0.5 1.1-1 0.8z"/><path class="e" d="m117.8 48.3c-0.5 0.3-1.2-0.1-1.6-0.9-0.5-0.8-0.5-1.6 0-1.9 0.4-0.3 1.1 0.2 1.6 0.9 0.4 0.8 0.4 1.7 0 1.9z"/><path class="e" d="m122.1 49.9c0 0.7-0.5 1-1.1 0.7q-0.2-0.2-0.5-0.4-0.2-0.2-0.3-0.5-0.2-0.3-0.2-0.5-0.1-0.3-0.1-0.6c0-0.8 0.5-1 1.1-0.7q0.3 0.2 0.5 0.4 0.2 0.2 0.3 0.5 0.2 0.2 0.2 0.5 0.1 0.3 0.1 0.6z"/><path class="e" d="m126.2 52.2c0 0.8-0.5 1.1-1.2 0.7q-0.2-0.2-0.4-0.4-0.2-0.2-0.4-0.5-0.1-0.2-0.2-0.5-0.1-0.3-0.1-0.6c0-0.7 0.5-1 1.1-0.7q0.3 0.2 0.5 0.4 0.2 0.2 0.4 0.5 0.1 0.3 0.2 0.5 0.1 0.3 0.1 0.6z"/><path class="e" d="m130.2 54.6c0 0.7-0.5 1-1.1 0.6q-0.3-0.1-0.5-0.4-0.2-0.2-0.3-0.4-0.2-0.3-0.3-0.6 0-0.3-0.1-0.6c0-0.7 0.5-1 1.2-0.6q0.2 0.1 0.4 0.4 0.2 0.2 0.4 0.4 0.1 0.3 0.2 0.6 0.1 0.3 0.1 0.6z"/><path class="e" d="m147.2 66.5l-2.3-1.4q-0.2-0.1-0.3-0.2-0.1-0.2-0.2-0.3-0.1-0.2-0.1-0.3-0.1-0.2-0.1-0.4v-2.5c0-0.5 0.3-0.7 0.7-0.5l2.3 1.4q0.2 0.1 0.3 0.2 0.1 0.2 0.2 0.3 0.1 0.2 0.1 0.4 0.1 0.1 0.1 0.3v2.5c0 0.5-0.3 0.7-0.7 0.5z"/><path class="d" d="m150.6 90.5l-49.6-28.7q-0.5-0.3-0.8-0.8-0.4-0.4-0.7-0.9-0.2-0.5-0.4-1-0.1-0.6-0.1-1.2v-9.4c0-1.5 0.9-2.2 2-1.5l49.6 28.6q0.5 0.3 0.9 0.8 0.3 0.4 0.6 0.9 0.3 0.5 0.4 1.1 0.1 0.5 0.1 1.1v9.4c0 1.5-0.9 2.2-2 1.6z"/><path class="p" d="m149.2 87.1l-46.8-27q-0.2-0.2-0.4-0.4-0.2-0.2-0.3-0.4-0.2-0.3-0.2-0.6-0.1-0.2-0.1-0.5v-7.2c0-0.7 0.4-1.1 1-0.7l46.8 27q0.2 0.2 0.4 0.4 0.2 0.2 0.3 0.4 0.2 0.3 0.2 0.6 0.1 0.3 0.1 0.5v7.2c0 0.7-0.4 1.1-1 0.7z"/><path class="e" d="m112.2 62.1l-7-4q-0.3-0.1-0.4-0.4-0.2-0.2-0.3-0.4-0.2-0.3-0.2-0.5-0.1-0.3-0.1-0.6c0-0.7 0.4-1 1-0.7l7 4q0.2 0.2 0.4 0.4 0.2 0.2 0.3 0.4 0.1 0.3 0.2 0.6 0 0.2 0.1 0.5c0 0.7-0.5 1.1-1 0.7z"/><path class="e" d="m118.1 64.3c0 0.7-0.5 1-1.1 0.6q-0.3-0.1-0.5-0.4-0.2-0.2-0.3-0.4-0.2-0.3-0.3-0.6-0.1-0.3-0.1-0.6c0-0.7 0.5-1 1.2-0.6q0.2 0.1 0.4 0.4 0.2 0.2 0.4 0.4 0.1 0.3 0.2 0.6 0.1 0.3 0.1 0.6z"/><path class="e" d="m122.1 66.6c0 0.7-0.5 1-1.1 0.7q-0.2-0.2-0.5-0.4-0.2-0.2-0.3-0.5-0.2-0.3-0.2-0.5-0.1-0.3-0.1-0.6c0-0.8 0.5-1.1 1.1-0.7q0.3 0.2 0.5 0.4 0.2 0.2 0.3 0.5 0.2 0.2 0.2 0.5 0.1 0.3 0.1 0.6z"/><path class="g" d="m126.2 68.9c0 0.8-0.5 1.1-1.2 0.7q-0.2-0.2-0.4-0.4-0.2-0.2-0.4-0.5-0.1-0.2-0.2-0.5-0.1-0.3-0.1-0.6c0-0.7 0.5-1 1.1-0.7q0.3 0.2 0.5 0.4 0.2 0.2 0.4 0.5 0.1 0.3 0.2 0.5 0.1 0.3 0.1 0.6z"/><path class="e" d="m129.9 72c-0.5 0.3-1.2-0.2-1.6-0.9-0.5-0.8-0.5-1.6 0-1.9 0.4-0.3 1.1 0.2 1.6 0.9 0.4 0.8 0.4 1.6 0 1.9z"/><path class="e" d="m147.2 83.2l-2.3-1.4q-0.2-0.1-0.3-0.2-0.1-0.2-0.2-0.3-0.1-0.2-0.1-0.4-0.1-0.1-0.1-0.3v-2.5c0-0.5 0.3-0.7 0.7-0.5l2.3 1.4q0.2 0.1 0.3 0.2 0.1 0.2 0.2 0.3 0.1 0.2 0.1 0.3 0.1 0.2 0.1 0.4v2.5c0 0.5-0.3 0.7-0.7 0.5z"/><path class="d" d="m150.6 107.1l-49.6-28.6q-0.5-0.3-0.8-0.8-0.4-0.4-0.7-0.9-0.2-0.5-0.4-1-0.1-0.6-0.1-1.2v-9.4c0-1.5 0.9-2.2 2-1.5l49.6 28.6q0.5 0.3 0.9 0.8 0.3 0.4 0.6 0.9 0.3 0.5 0.4 1 0.1 0.6 0.1 1.2v9.4c0 1.5-0.9 2.2-2 1.5z"/><path class="q" d="m149.2 103.8l-46.8-27q-0.2-0.2-0.4-0.4-0.2-0.2-0.3-0.4-0.2-0.3-0.2-0.6-0.1-0.3-0.1-0.5v-7.2c0-0.7 0.4-1.1 1-0.7l46.8 27q0.2 0.2 0.4 0.4 0.2 0.2 0.3 0.4 0.2 0.3 0.2 0.6 0.1 0.3 0.1 0.5v7.2c0 0.7-0.4 1.1-1 0.7z"/><path class="e" d="m112.2 78.8l-7-4q-0.3-0.2-0.4-0.4-0.2-0.2-0.3-0.4-0.2-0.3-0.2-0.5-0.1-0.3-0.1-0.6c0-0.7 0.4-1.1 1-0.7l7 4q0.2 0.2 0.4 0.4 0.2 0.2 0.3 0.4 0.1 0.3 0.2 0.5 0 0.3 0.1 0.6c0 0.7-0.5 1.1-1 0.7z"/><path class="e" d="m118.1 81c0 0.7-0.5 1-1.1 0.6q-0.3-0.1-0.5-0.4-0.2-0.2-0.3-0.4-0.2-0.3-0.3-0.6-0.1-0.3-0.1-0.6c0-0.7 0.5-1 1.2-0.6q0.2 0.1 0.4 0.4 0.2 0.2 0.4 0.4 0.1 0.3 0.2 0.6 0.1 0.3 0.1 0.6z"/><path class="e" d="m122.1 83.3c0 0.7-0.5 1-1.1 0.6q-0.2-0.1-0.5-0.3-0.2-0.2-0.3-0.5-0.2-0.3-0.2-0.6-0.1-0.2-0.1-0.5c0-0.8 0.5-1.1 1.1-0.7q0.3 0.2 0.5 0.4 0.2 0.2 0.3 0.5 0.2 0.2 0.2 0.5 0.1 0.3 0.1 0.6z"/><path class="g" d="m126.2 85.6c0 0.7-0.5 1-1.2 0.7q-0.2-0.2-0.4-0.4-0.2-0.2-0.4-0.5-0.1-0.2-0.2-0.5-0.1-0.3-0.1-0.6c0-0.7 0.5-1 1.1-0.7q0.3 0.2 0.5 0.4 0.2 0.2 0.4 0.5 0.1 0.2 0.2 0.5 0.1 0.3 0.1 0.6z"/><path class="e" d="m130.2 88c0 0.7-0.5 1-1.1 0.6q-0.3-0.2-0.5-0.4-0.2-0.2-0.3-0.4-0.2-0.3-0.3-0.6 0-0.3-0.1-0.6c0-0.7 0.5-1 1.2-0.6q0.2 0.1 0.4 0.3 0.2 0.3 0.4 0.5 0.1 0.3 0.2 0.6 0.1 0.3 0.1 0.6z"/><path class="e" d="m147.2 99.9l-2.3-1.4q-0.2-0.1-0.3-0.2-0.1-0.2-0.2-0.3-0.1-0.2-0.1-0.4-0.1-0.1-0.1-0.3v-2.5c0-0.5 0.3-0.7 0.7-0.5l2.3 1.4q0.2 0.1 0.3 0.2 0.1 0.2 0.2 0.3 0.1 0.2 0.1 0.3 0.1 0.2 0.1 0.4v2.5c0 0.5-0.3 0.7-0.7 0.5z"/><path class="d" d="m150.6 123.8l-49.6-28.6q-0.5-0.4-0.8-0.8-0.4-0.4-0.7-0.9-0.2-0.5-0.4-1.1-0.1-0.5-0.1-1.1v-9.4c0-1.5 0.9-2.2 2-1.6l49.6 28.7q0.5 0.3 0.9 0.8 0.3 0.4 0.6 0.9 0.3 0.5 0.4 1 0.1 0.6 0.1 1.2v9.4c0 1.5-0.9 2.2-2 1.5z"/><path class="r" d="m149.2 120.5l-46.8-27q-0.2-0.2-0.4-0.4-0.2-0.2-0.3-0.5-0.2-0.2-0.2-0.5-0.1-0.3-0.1-0.5v-7.2c0-0.7 0.4-1.1 1-0.7l46.8 27q0.2 0.2 0.4 0.4 0.2 0.2 0.3 0.4 0.2 0.3 0.2 0.6 0.1 0.2 0.1 0.5v7.2c0 0.7-0.4 1-1 0.7z"/><path class="e" d="m112.2 95.5l-7-4q-0.3-0.2-0.4-0.4-0.2-0.2-0.3-0.4-0.2-0.3-0.2-0.5-0.1-0.3-0.1-0.6c0-0.7 0.4-1.1 1-0.7l7 4q0.2 0.2 0.4 0.4 0.2 0.2 0.3 0.4 0.1 0.3 0.2 0.5 0 0.3 0.1 0.6c0 0.7-0.5 1.1-1 0.7z"/><path class="e" d="m118.1 97.6c0 0.8-0.5 1.1-1.1 0.7q-0.3-0.2-0.5-0.4-0.2-0.2-0.3-0.4-0.2-0.3-0.3-0.6-0.1-0.3-0.1-0.6c0-0.7 0.5-1 1.2-0.6q0.2 0.1 0.4 0.3 0.2 0.3 0.4 0.5 0.1 0.3 0.2 0.6 0.1 0.3 0.1 0.5z"/><path class="e" d="m121.8 100.7c-0.4 0.3-1.2-0.1-1.6-0.9-0.5-0.8-0.5-1.6 0-1.9 0.4-0.2 1.2 0.2 1.6 1 0.5 0.7 0.5 1.6 0 1.8z"/><path class="g" d="m126.2 102.3c0 0.7-0.5 1-1.2 0.7q-0.2-0.2-0.4-0.4-0.2-0.2-0.4-0.5-0.1-0.2-0.2-0.5-0.1-0.3-0.1-0.6c0-0.7 0.5-1 1.1-0.7q0.3 0.2 0.5 0.4 0.2 0.2 0.4 0.5 0.1 0.2 0.2 0.5 0.1 0.3 0.1 0.6z"/><path class="e" d="m130.2 104.6c0 0.8-0.5 1.1-1.1 0.7q-0.3-0.2-0.5-0.4-0.2-0.2-0.3-0.5-0.2-0.2-0.3-0.5 0-0.3-0.1-0.6c0-0.7 0.5-1 1.2-0.6q0.2 0.1 0.4 0.3 0.2 0.3 0.4 0.5 0.1 0.3 0.2 0.6 0.1 0.2 0.1 0.5z"/><path class="e" d="m147.2 116.6l-2.3-1.4q-0.2-0.1-0.3-0.2-0.1-0.2-0.2-0.3-0.1-0.2-0.1-0.4-0.1-0.1-0.1-0.3v-2.5c0-0.5 0.3-0.7 0.7-0.5l2.3 1.4q0.2 0.1 0.3 0.2 0.1 0.1 0.2 0.3 0.1 0.2 0.1 0.3 0.1 0.2 0.1 0.4v2.5c0 0.4-0.3 0.7-0.7 0.5z"/><path class="d" d="m150.6 140.5l-49.6-28.6q-0.5-0.4-0.8-0.8-0.4-0.4-0.7-0.9-0.2-0.5-0.4-1.1-0.1-0.5-0.1-1.1v-9.4c0-1.5 0.9-2.2 2-1.6l49.6 28.7q0.5 0.3 0.9 0.8 0.3 0.4 0.6 0.9 0.3 0.5 0.4 1 0.1 0.6 0.1 1.1v9.5c0 1.5-0.9 2.2-2 1.5z"/><path class="s" d="m149.2 137.2l-46.8-27q-0.2-0.2-0.4-0.4-0.2-0.2-0.3-0.5-0.2-0.2-0.2-0.5-0.1-0.3-0.1-0.6v-7.1c0-0.7 0.4-1.1 1-0.7l46.8 27q0.2 0.1 0.4 0.4 0.2 0.2 0.3 0.4 0.2 0.3 0.2 0.6 0.1 0.2 0.1 0.5v7.1c0 0.8-0.4 1.1-1 0.8z"/><path class="e" d="m112.2 112.2l-7-4q-0.3-0.2-0.4-0.4-0.2-0.2-0.3-0.4-0.2-0.3-0.2-0.5-0.1-0.3-0.1-0.6c0-0.7 0.4-1.1 1-0.7l7 4q0.2 0.1 0.4 0.4 0.2 0.2 0.3 0.4 0.1 0.3 0.2 0.5 0 0.3 0.1 0.6c0 0.7-0.5 1-1 0.7z"/><path class="e" d="m118.1 114.3c0 0.8-0.5 1.1-1.1 0.7q-0.3-0.2-0.5-0.4-0.2-0.2-0.3-0.5-0.2-0.2-0.3-0.5-0.1-0.3-0.1-0.6c0-0.7 0.5-1 1.2-0.6q0.2 0.1 0.4 0.3 0.2 0.3 0.4 0.5 0.1 0.3 0.2 0.6 0.1 0.2 0.1 0.5z"/><path class="e" d="m122.1 116.7c0 0.7-0.5 1-1.1 0.6q-0.2-0.1-0.5-0.3-0.2-0.3-0.3-0.5-0.2-0.3-0.2-0.6-0.1-0.3-0.1-0.5c0-0.8 0.5-1.1 1.1-0.7q0.3 0.2 0.5 0.4 0.2 0.2 0.3 0.4 0.2 0.3 0.2 0.6 0.1 0.3 0.1 0.6z"/><path class="g" d="m126.2 119c0 0.7-0.5 1-1.2 0.7q-0.2-0.2-0.4-0.4-0.2-0.2-0.4-0.5-0.1-0.2-0.2-0.5-0.1-0.3-0.1-0.6c0-0.7 0.5-1 1.1-0.7q0.3 0.2 0.5 0.4 0.2 0.2 0.4 0.5 0.1 0.2 0.2 0.5 0.1 0.3 0.1 0.6z"/><path class="e" d="m130.2 121.3c0 0.8-0.5 1.1-1.1 0.7q-0.3-0.2-0.5-0.4-0.2-0.2-0.3-0.5-0.2-0.2-0.3-0.5 0-0.3-0.1-0.6c0-0.7 0.5-1 1.2-0.6q0.2 0.1 0.4 0.3 0.2 0.2 0.4 0.5 0.1 0.3 0.2 0.6 0.1 0.2 0.1 0.5z"/><path class="e" d="m147.2 133.2l-2.3-1.3q-0.2-0.1-0.3-0.2-0.1-0.2-0.2-0.3-0.1-0.2-0.1-0.4-0.1-0.1-0.1-0.3v-2.5c0-0.5 0.3-0.7 0.7-0.5l2.3 1.4q0.2 0.1 0.3 0.2 0.1 0.1 0.2 0.3 0.1 0.2 0.1 0.3 0.1 0.2 0.1 0.4v2.5c0 0.4-0.3 0.7-0.7 0.4z"/><path class="d" d="m150.6 157.2l-49.6-28.6q-0.5-0.4-0.8-0.8-0.4-0.4-0.7-0.9-0.2-0.5-0.4-1.1-0.1-0.5-0.1-1.1v-9.4c0-1.5 0.9-2.2 2-1.6l49.6 28.7q0.5 0.3 0.9 0.7 0.3 0.5 0.6 1 0.3 0.5 0.4 1 0.1 0.6 0.1 1.1v9.5c0 1.5-0.9 2.2-2 1.5z"/><path class="t" d="m149.2 153.9l-46.8-27q-0.2-0.2-0.4-0.4-0.2-0.2-0.3-0.5-0.2-0.2-0.2-0.5-0.1-0.3-0.1-0.6v-7.1c0-0.7 0.4-1.1 1-0.8l46.8 27.1q0.2 0.1 0.4 0.3 0.2 0.3 0.3 0.5 0.2 0.3 0.2 0.5 0.1 0.3 0.1 0.6v7.1c0 0.8-0.4 1.1-1 0.8z"/><path class="e" d="m112.2 128.9l-7-4q-0.3-0.2-0.4-0.4-0.2-0.2-0.3-0.4-0.2-0.3-0.2-0.6-0.1-0.2-0.1-0.5c0-0.7 0.4-1.1 1-0.8l7 4.1q0.2 0.1 0.4 0.4 0.2 0.2 0.3 0.4 0.1 0.3 0.2 0.5 0 0.3 0.1 0.6c0 0.7-0.5 1-1 0.7z"/><path class="e" d="m117.8 131.8c-0.5 0.2-1.2-0.2-1.6-1-0.5-0.7-0.5-1.6 0-1.8 0.4-0.3 1.1 0.1 1.6 0.9 0.4 0.8 0.4 1.6 0 1.9z"/><path class="e" d="m122.1 133.4c0 0.7-0.5 1-1.1 0.6q-0.2-0.1-0.5-0.4-0.2-0.2-0.3-0.4-0.2-0.3-0.2-0.6-0.1-0.3-0.1-0.6c0-0.7 0.5-1 1.1-0.6q0.3 0.1 0.5 0.4 0.2 0.2 0.3 0.4 0.2 0.3 0.2 0.6 0.1 0.3 0.1 0.6z"/><path class="g" d="m126.2 135.7c0 0.7-0.5 1-1.2 0.7q-0.2-0.2-0.4-0.4-0.2-0.2-0.4-0.5-0.1-0.3-0.2-0.5-0.1-0.3-0.1-0.6c0-0.8 0.5-1 1.1-0.7q0.3 0.2 0.5 0.4 0.2 0.2 0.4 0.5 0.1 0.2 0.2 0.5 0.1 0.3 0.1 0.6z"/><path class="e" d="m130.2 138c0 0.8-0.5 1.1-1.1 0.7q-0.3-0.2-0.5-0.4-0.2-0.2-0.3-0.5-0.2-0.2-0.3-0.5 0-0.3-0.1-0.6c0-0.7 0.5-1 1.2-0.7q0.2 0.2 0.4 0.4 0.2 0.2 0.4 0.5 0.1 0.3 0.2 0.5 0.1 0.3 0.1 0.6z"/><path class="e" d="m147.2 149.9l-2.3-1.3q-0.2-0.1-0.3-0.3-0.1-0.1-0.2-0.2-0.1-0.2-0.1-0.4-0.1-0.2-0.1-0.3v-2.5c0-0.5 0.3-0.7 0.7-0.5l2.3 1.4q0.2 0.1 0.3 0.2 0.1 0.1 0.2 0.3 0.1 0.1 0.1 0.3 0.1 0.2 0.1 0.4v2.5c0 0.4-0.3 0.6-0.7 0.4z"/><path class="d" d="m150.6 173.9l-49.6-28.6q-0.5-0.4-0.8-0.8-0.4-0.4-0.7-0.9-0.2-0.5-0.4-1.1-0.1-0.5-0.1-1.1v-9.5c0-1.4 0.9-2.1 2-1.5l49.6 28.7q0.5 0.3 0.9 0.7 0.3 0.5 0.6 1 0.3 0.5 0.4 1 0.1 0.6 0.1 1.1v9.5c0 1.5-0.9 2.2-2 1.5z"/><path class="u" d="m149.2 170.6l-46.8-27q-0.2-0.2-0.4-0.4-0.2-0.2-0.3-0.5-0.2-0.2-0.2-0.5-0.1-0.3-0.1-0.6v-7.1c0-0.7 0.4-1.1 1-0.8l46.8 27.1q0.2 0.1 0.4 0.3 0.2 0.3 0.3 0.5 0.2 0.3 0.2 0.5 0.1 0.3 0.1 0.6v7.1c0 0.8-0.4 1.1-1 0.8z"/><path class="e" d="m112.2 145.6l-7-4q-0.3-0.2-0.4-0.4-0.2-0.2-0.3-0.4-0.2-0.3-0.2-0.6-0.1-0.2-0.1-0.5c0-0.7 0.4-1.1 1-0.8l7 4.1q0.2 0.1 0.4 0.3 0.2 0.3 0.3 0.5 0.1 0.2 0.2 0.5 0 0.3 0.1 0.6c0 0.7-0.5 1-1 0.7z"/><path class="e" d="m119.4 148.6c0 1.4-1 2-2.2 1.3q-0.4-0.3-0.8-0.7-0.4-0.4-0.7-0.9-0.3-0.5-0.4-1.1-0.2-0.5-0.2-1.1c0-1.3 0.9-1.9 2.1-1.2q0.5 0.3 0.9 0.7 0.4 0.4 0.7 0.9 0.2 0.5 0.4 1 0.2 0.6 0.2 1.1z"/><path class="e" d="m127.8 153.5c0 0.8-0.6 1.1-1.2 0.7q-0.2-0.2-0.4-0.4-0.3-0.2-0.4-0.5-0.2-0.2-0.2-0.5-0.1-0.3-0.1-0.6c0-0.7 0.5-1 1.1-0.7q0.3 0.2 0.5 0.4 0.2 0.2 0.3 0.5 0.2 0.3 0.2 0.5 0.1 0.3 0.2 0.6z"/><path class="e" d="m131.8 155.9c0 0.7-0.5 1-1.2 0.6q-0.2-0.1-0.4-0.4-0.2-0.2-0.4-0.4-0.1-0.3-0.2-0.6-0.1-0.3-0.1-0.6c0-0.7 0.5-1 1.1-0.6q0.3 0.1 0.5 0.4 0.2 0.2 0.4 0.4 0.1 0.3 0.2 0.6 0.1 0.3 0.1 0.6z"/><path class="e" d="m135.8 158.2c0 0.7-0.5 1-1.1 0.6q-0.3-0.1-0.5-0.3-0.2-0.2-0.3-0.5-0.2-0.3-0.3-0.6 0-0.2-0.1-0.5c0-0.8 0.5-1.1 1.2-0.7q0.2 0.2 0.4 0.4 0.2 0.2 0.4 0.5 0.1 0.2 0.2 0.5 0.1 0.3 0.1 0.6z"/><path class="e" d="m147.2 166.6l-2.3-1.3q-0.2-0.1-0.3-0.3-0.1-0.1-0.2-0.3-0.1-0.1-0.1-0.3-0.1-0.2-0.1-0.3v-2.5c0-0.5 0.3-0.7 0.7-0.5l2.3 1.3q0.2 0.2 0.3 0.3 0.1 0.1 0.2 0.3 0.1 0.1 0.1 0.3 0.1 0.2 0.1 0.4v2.5c0 0.4-0.3 0.6-0.7 0.4z"/><path class="v" d="m147.3 215.8q0 0-0.1 0-0.1 0-0.1 0-0.1 0-0.1 0-0.1-0.1-0.2-0.1l-56.4-32.1q-0.5-0.3-0.8-0.8-0.3-0.5-0.3-1.1 0-0.5 0.3-1 0.3-0.6 0.8-0.9l24.2-14.2q0.3-0.2 0.6-0.5 0.2-0.3 0.4-0.6 0.2-0.3 0.3-0.6 0.1-0.4 0.1-0.8v-15.7q0-0.4 0.3-0.7 0.3-0.3 0.7-0.3 0.4 0 0.7 0.3 0.3 0.3 0.3 0.7v15.7q0 0.7-0.2 1.3-0.2 0.6-0.5 1.1-0.3 0.6-0.7 1-0.5 0.5-1 0.8l-24.2 14.3q-0.1 0-0.1 0 0 0.1 0 0.1 0 0.1 0 0.1 0 0.1 0.1 0.1l56.4 32.1q0.3 0.1 0.5 0.4 0.1 0.4 0 0.7-0.1 0.3-0.4 0.5-0.2 0.2-0.6 0.2z"/><path class="b" d="m139.2 207.3l-2.6 4.6-10.1-5.7 2.7-4.7z"/><path class="b" d="m126 205q0-0.5 0.2-1 0.1-0.5 0.3-0.9 0.3-0.4 0.6-0.8 0.4-0.4 0.8-0.6c1-0.6 1.9-0.2 1.9 1.1q-0.1 0.4-0.2 0.9-0.1 0.5-0.4 0.9-0.2 0.5-0.6 0.8-0.3 0.4-0.7 0.6c-1.1 0.6-1.9 0.2-1.9-1z"/><path class="c" d="m154.1 213.9l-4.4 7.5-15.7-9 4.3-7.6z"/><path class="d" d="m137.6 206.3l-3.4-1.9q-0.6 0.4-1 0.9-0.5 0.5-0.8 1.1-0.3 0.6-0.6 1.3-0.2 0.7-0.3 1.3l3.4 2q0.6-0.4 1-1 0.5-0.5 0.8-1.1 0.4-0.6 0.6-1.2 0.2-0.7 0.3-1.4z"/><path class="c" d="m133.1 210.4q0-0.8 0.3-1.6 0.2-0.7 0.6-1.4 0.4-0.7 0.9-1.3 0.6-0.6 1.3-1c1.6-1 3-0.2 3 1.7q0 0.8-0.2 1.6-0.3 0.8-0.7 1.5-0.4 0.6-0.9 1.2-0.6 0.6-1.2 1.1c-1.7 0.9-3.1 0.1-3.1-1.8z"/><path class="e" d="m129.2 203.7q-0.2 0-0.3-0.2-0.1-0.1-0.1-0.3 0-0.2 0.1-0.3 0.1-0.2 0.3-0.2 0.2-0.1 0.4-0.2 0.2 0 0.4 0 0.3 0 0.5 0 0.2 0.1 0.4 0.2 0.2 0 0.3 0.2 0.1 0.1 0.1 0.3 0 0.2-0.1 0.3-0.1 0.1-0.3 0.2-0.2 0.1-0.4 0.2-0.2 0-0.5 0-0.2 0-0.4 0-0.2-0.1-0.4-0.2z"/><path class="b" d="m127 214.7l-2.6 4.6-10.1-5.7 2.7-4.7z"/><path class="b" d="m113.8 212.3q0-0.5 0.1-0.9 0.2-0.5 0.4-0.9 0.3-0.5 0.6-0.8 0.4-0.4 0.8-0.7c1-0.6 1.9-0.1 1.9 1.1q-0.1 0.5-0.2 1-0.1 0.5-0.4 0.9-0.2 0.4-0.6 0.8-0.3 0.3-0.7 0.6c-1.1 0.6-1.9 0.1-1.9-1.1z"/><path class="c" d="m141.9 221.2l-4.4 7.6-15.7-9 4.3-7.6z"/><path class="d" d="m125.4 213.7l-3.4-1.9q-0.6 0.4-1 0.9-0.5 0.5-0.8 1.1-0.4 0.6-0.6 1.3-0.2 0.6-0.3 1.3l3.4 2q0.6-0.5 1-1 0.5-0.5 0.8-1.1 0.4-0.6 0.6-1.2 0.2-0.7 0.3-1.4z"/><path class="c" d="m120.9 217.8q0-0.8 0.3-1.6 0.2-0.8 0.6-1.5 0.4-0.7 0.9-1.2 0.6-0.6 1.2-1.1c1.7-1 3.1-0.2 3.1 1.8q0 0.8-0.2 1.6-0.3 0.7-0.7 1.4-0.4 0.7-0.9 1.3-0.6 0.6-1.2 1c-1.7 1-3.1 0.2-3.1-1.7z"/><path class="e" d="m116.9 211.1q-0.1-0.1-0.2-0.2-0.1-0.2-0.1-0.3 0-0.2 0.1-0.3 0.1-0.2 0.2-0.2 0.3-0.1 0.5-0.2 0.2-0.1 0.4-0.1 0.3 0 0.5 0.1 0.2 0 0.4 0.2 0.2 0 0.3 0.2 0.1 0.1 0.1 0.3 0 0.1-0.1 0.3-0.1 0.1-0.3 0.2-0.2 0.1-0.4 0.1-0.2 0.1-0.5 0.1-0.2 0-0.4-0.1-0.2 0-0.5-0.1z"/><path class="w" d="m319.4 126q0 0 0 0-0.1 0-0.1 0 0 0-0.1 0 0 0 0 0-0.2-0.1-0.4-0.2-0.1-0.1-0.2-0.3-0.1-0.1-0.2-0.3 0-0.2 0-0.4l9.8-42.4q0.1-0.4 0.4-0.6 0.4-0.2 0.8-0.1 0.4 0.1 0.6 0.4 0.2 0.4 0.1 0.8l-9.7 42.3q-0.1 0.2-0.1 0.3-0.1 0.2-0.3 0.3-0.1 0.1-0.3 0.2-0.1 0-0.3 0z"/><path class="x" d="m306.4 123q0 0 0 0 0 0-0.1 0 0 0 0 0-0.1 0-0.1 0-0.2 0-0.3-0.2-0.2-0.1-0.3-0.2-0.1-0.2-0.1-0.4-0.1-0.2 0-0.4l9.7-42.3q0.1-0.4 0.5-0.7 0.3-0.2 0.7-0.1 0.4 0.1 0.6 0.5 0.3 0.3 0.2 0.7l-9.8 42.3q0 0.2-0.1 0.4-0.1 0.1-0.2 0.2-0.2 0.1-0.3 0.2-0.2 0-0.4 0z"/><path class="y" d="m293.5 120q0 0-0.1 0 0 0 0 0-0.1 0-0.1 0 0 0 0 0-0.2 0-0.4-0.1-0.2-0.2-0.3-0.3-0.1-0.2-0.1-0.4 0-0.2 0-0.4l9.8-42.3q0.1-0.4 0.4-0.7 0.4-0.2 0.8-0.1 0.4 0.1 0.6 0.5 0.2 0.3 0.1 0.7l-9.7 42.4q-0.1 0.1-0.2 0.3-0.1 0.1-0.2 0.2-0.1 0.1-0.3 0.2-0.1 0-0.3 0z"/><path class="b" d="m298.3 86.6l5.2 1.2-2.6 11.3-5.2-1.2z"/><path class="b" d="m299.9 100q-0.5 0.1-1 0.1-0.5 0-1-0.1-0.4-0.1-0.9-0.3-0.4-0.3-0.8-0.6-0.3-0.2-0.5-0.5-0.1-0.4 0-0.7 0.1-0.4 0.3-0.6 0.3-0.3 0.7-0.3 0.5-0.1 1-0.1 0.5 0 0.9 0.1 0.5 0.1 1 0.3 0.4 0.2 0.8 0.5 0.3 0.2 0.4 0.6 0.2 0.3 0.1 0.7-0.1 0.4-0.4 0.6-0.3 0.2-0.6 0.3z"/><path class="c" d="m300.4 70.5l8.4 2-4.1 17.7-8.5-2z"/><path class="d" d="m297.9 88.5l-0.9 3.8q0.5 0.4 1.2 0.7 0.6 0.2 1.3 0.4 0.6 0.2 1.3 0.2 0.7 0 1.4-0.1l0.9-3.8q-0.6-0.4-1.2-0.7-0.6-0.3-1.3-0.5-0.7-0.1-1.3-0.1-0.7-0.1-1.4 0.1z"/><path class="c" d="m303 91.6q-0.7 0.2-1.5 0.2-0.8 0-1.6-0.2-0.8-0.2-1.5-0.5-0.7-0.4-1.3-0.9c-1.5-1.3-1.1-2.9 0.8-3.4q0.8-0.2 1.6-0.2 0.8 0 1.5 0.1 0.8 0.2 1.5 0.6 0.7 0.3 1.4 0.9c1.4 1.3 1 2.8-0.9 3.4z"/><path class="e" d="m297.8 97.3q0 0.2-0.1 0.3-0.1 0.2-0.3 0.2-0.2 0.1-0.3 0-0.2-0.1-0.3-0.2-0.2-0.2-0.3-0.4-0.1-0.2-0.2-0.4 0-0.2 0-0.4-0.1-0.3 0-0.5c0.1-0.6 0.6-0.7 1-0.3q0.1 0.2 0.2 0.4 0.2 0.2 0.2 0.4 0.1 0.2 0.1 0.4 0 0.3 0 0.5z"/><path class="b" d="m310.3 93.8l5.3 1.2-2.7 11.2-5.2-1.2z"/><path class="b" d="m311.9 107.1q-0.5 0.2-1 0.2-0.5 0-0.9-0.2-0.5-0.1-1-0.3-0.4-0.2-0.8-0.5-0.3-0.2-0.4-0.6-0.2-0.3-0.1-0.7 0.1-0.3 0.4-0.6 0.2-0.2 0.6-0.3 0.5-0.1 1-0.1 0.5 0 1 0.1 0.4 0.1 0.9 0.4 0.4 0.2 0.8 0.5 0.3 0.2 0.5 0.5 0.1 0.4 0 0.7-0.1 0.4-0.3 0.7-0.3 0.2-0.7 0.2z"/><path class="c" d="m312.4 77.7l8.5 2-4.2 17.6-8.4-2z"/><path class="d" d="m309.9 95.6l-0.9 3.8q0.6 0.4 1.2 0.7 0.6 0.3 1.3 0.5 0.7 0.1 1.4 0.1 0.6 0.1 1.3-0.1l0.9-3.8q-0.5-0.4-1.2-0.7-0.6-0.2-1.3-0.4-0.6-0.2-1.3-0.2-0.7 0-1.4 0.1z"/><path class="c" d="m315.1 98.8q-0.8 0.2-1.6 0.2-0.8 0-1.6-0.2-0.8-0.2-1.5-0.6-0.7-0.3-1.3-0.8c-1.4-1.4-1.1-2.9 0.8-3.5q0.8-0.2 1.6-0.2 0.8 0 1.6 0.2 0.7 0.2 1.4 0.5 0.8 0.4 1.4 0.9c1.4 1.4 1 2.9-0.8 3.5z"/><path class="e" d="m309.8 104.5q0 0.1-0.1 0.3-0.1 0.1-0.3 0.2-0.1 0-0.3 0-0.2-0.1-0.3-0.2-0.1-0.2-0.3-0.4-0.1-0.2-0.1-0.4-0.1-0.3-0.1-0.5 0-0.2 0-0.4 0-0.2 0.1-0.4 0.1-0.1 0.3-0.1 0.2-0.1 0.3 0 0.2 0 0.3 0.2 0.1 0.1 0.3 0.3 0.1 0.2 0.1 0.4 0.1 0.3 0.1 0.5 0 0.2 0 0.5z"/><path class="b" d="m322.5 100.9l5.2 1.2-2.6 11.3-5.3-1.3z"/><path class="b" d="m324.1 114.2q-0.5 0.2-1 0.2-0.5 0-1-0.2-0.5-0.1-0.9-0.3-0.5-0.2-0.8-0.5-0.3-0.2-0.5-0.6-0.1-0.3 0-0.7 0-0.3 0.3-0.6 0.3-0.2 0.7-0.3 0.4-0.1 0.9-0.1 0.5 0 1 0.1 0.5 0.1 0.9 0.4 0.5 0.2 0.9 0.5 0.3 0.2 0.4 0.5 0.2 0.4 0.1 0.8-0.1 0.3-0.4 0.6-0.3 0.2-0.6 0.2z"/><path class="c" d="m324.5 84.8l8.5 2-4.1 17.6-8.5-1.9z"/><path class="d" d="m322.1 102.7l-0.9 3.8q0.5 0.4 1.2 0.7 0.6 0.3 1.3 0.5 0.6 0.1 1.3 0.1 0.7 0.1 1.4 0l0.9-3.9q-0.6-0.4-1.2-0.7-0.6-0.2-1.3-0.4-0.7-0.2-1.4-0.2-0.7 0-1.3 0.1z"/><path class="c" d="m327.2 105.9q-0.8 0.2-1.6 0.2-0.8 0-1.5-0.2-0.8-0.2-1.5-0.6-0.7-0.3-1.4-0.8c-1.4-1.4-1-2.9 0.9-3.5q0.7-0.2 1.5-0.2 0.8 0 1.6 0.2 0.8 0.2 1.5 0.5 0.7 0.4 1.3 0.9c1.5 1.4 1.1 2.9-0.8 3.5z"/><path class="e" d="m322 111.6q0 0.1-0.2 0.3-0.1 0.1-0.2 0.2-0.2 0-0.4 0-0.1-0.1-0.2-0.2-0.2-0.2-0.3-0.4-0.1-0.2-0.2-0.4-0.1-0.3-0.1-0.5 0-0.2 0.1-0.4 0-0.2 0.1-0.4 0.1-0.1 0.2-0.1 0.2-0.1 0.4 0 0.1 0 0.2 0.2 0.2 0.1 0.3 0.3 0.1 0.2 0.2 0.4 0.1 0.3 0.1 0.5 0 0.2 0 0.5z"/><path class="f" d="m239.8 312.6l-116.1-67c-3.3-1.9-2.9-5.2 0.9-7.4l79.1-45.7c3.8-2.1 9.5-2.4 12.8-0.5l116.2 67.1c3.2 1.9 2.8 5.2-1 7.4l-79 45.6c-3.8 2.2-9.6 2.4-12.9 0.5z"/><path class="c" d="m359.9 140.3l-116.2-67.1q-0.4-0.2-0.9-0.4-0.5-0.2-1-0.3-0.5 0-1 0-0.5 0.1-1 0.2l-0.2 0.1h-0.1l-4.2 1.6 3.8 1.9q0 0.1-0.1 0.2l-18.9 86.1c-0.9 4.3 1 9.3 4.3 11.2l113.3 65.5-0.4 4.8 4.6-1.8q0.7-0.4 1.2-0.9 0.6-0.4 1-1.1 0.4-0.6 0.7-1.2 0.3-0.7 0.4-1.5l18.9-86.1c0.9-4.3-0.9-9.3-4.2-11.2z"/><path class="c" d="m359.9 140.3l-116.2-67.1q-0.4-0.2-0.9-0.4-0.5-0.2-1-0.3-0.5 0-1 0-0.5 0.1-1 0.2l-0.2 0.1h-0.1l-4.2 1.6 3.8 1.9q0 0.1-0.1 0.2l-12.4 56.7 56.8 44.3 80.1-32.6q-0.2-0.7-0.6-1.4-0.3-0.6-0.8-1.2-0.5-0.6-1-1.1-0.6-0.5-1.2-0.9z"/><path class="c" d="m355.5 153.5l8.8-3.7q0.1-1.3-0.1-2.5-0.2-1.2-0.7-2.4-0.4-1.1-1.1-2.1-0.7-1.1-1.7-1.9l-13.9 5.9z"/><path class="g" d="m333.3 243.6l-116.2-67c-3.3-1.9-5.1-7-4.2-11.3l18.9-86.1c1-4.3 4.4-6.2 7.7-4.3l116.1 67c3.3 1.9 5.2 6.9 4.3 11.2l-19 86.2c-0.9 4.3-4.3 6.2-7.6 4.3z"/><path class="e" d="m330.8 237.2l-109.3-63c-3-1.8-4.7-6.4-3.8-10.3l17.3-78.8c0.8-3.9 4-5.7 7-4l109.2 63c3 1.8 4.7 6.4 3.9 10.3l-17.3 78.8c-0.9 4-4 5.8-7 4z"/><path class="e" d="m330.8 237.2l-109.3-63c-3-1.8-4.7-6.4-3.8-10.3l17.3-78.8c0.8-3.9 4-5.7 7-4l109.2 63c3 1.8 4.7 6.4 3.9 10.3l-17.3 78.8c-0.9 4-4 5.8-7 4z"/><path class="c" d="m334.9 246.5l-15.9-2.1-102.5-59.1c-3.3-1.9-9-1.7-12.8 0.5l-72.6 41.9-9.6-1.2v5.4q0 0.5 0.2 1 0.1 0.6 0.4 1 0.3 0.5 0.7 0.8 0.4 0.3 0.9 0.6l116.1 67c3.3 1.9 9.1 1.7 12.9-0.5l79-45.7c2.2-1.2 3.2-2.8 3.2-4.3z"/><path class="c" d="m257.9 209.2l-7.3-4.2h-80.1l-39.4 22.7-9.6-1.2v5.4q0 0.5 0.2 1 0.1 0.6 0.4 1 0.3 0.5 0.7 0.8 0.4 0.3 0.9 0.6l116.1 67q0.8 0.4 1.6 0.7 0.8 0.3 1.7 0.4 0.8 0.2 1.6 0.2 0.9 0 1.8 0z"/><path class="c" d="m125.7 227l-4.2-0.5v5.4q0 0.5 0.2 1 0.1 0.6 0.4 1 0.3 0.5 0.7 0.8 0.4 0.3 0.9 0.6l2 1.1z"/><path class="c" d="m241 302.9q1.3 0.4 2.7 0.6 1.4 0.1 2.8 0.1 1.4-0.1 2.8-0.5 1.3-0.3 2.6-0.9v-12.2h-10.9z"/><path class="g" d="m239.8 296.9l-116.1-67.1c-3.3-1.9-2.9-5.2 0.9-7.4l79.1-45.6c3.8-2.2 9.5-2.4 12.8-0.5l116.2 67c3.2 1.9 2.8 5.2-1 7.4l-79 45.7c-3.8 2.1-9.6 2.4-12.9 0.5z"/><path class="e" d="m331.7 248.7l-79 45.7c-3.8 2.2-9.6 2.4-12.9 0.5l-116.1-67.1q-0.3-0.1-0.7-0.4-0.3-0.2-0.5-0.5-0.3-0.3-0.5-0.6-0.2-0.3-0.3-0.7c-0.6 1.6 0.1 3.1 2 4.2l116.1 67.1c3.3 1.9 9.1 1.6 12.9-0.5l79-45.7c2.6-1.5 3.6-3.4 3-5.2q-0.2 0.6-0.5 1-0.3 0.5-0.7 0.9-0.4 0.4-0.8 0.7-0.5 0.4-1 0.6z"/><path class="z" d="m173.1 207.6l-5.3-3c-0.4-0.2-0.3-0.7 0.2-1l6.2-3.5q0.1-0.1 0.4-0.2 0.2-0.1 0.4-0.1 0.2 0 0.4 0.1 0.2 0 0.4 0.1l5.3 3c0.4 0.3 0.3 0.7-0.2 1l-6.2 3.6q-0.1 0.1-0.4 0.1-0.2 0.1-0.4 0.1-0.2 0-0.4 0-0.2-0.1-0.4-0.2z"/><path class="z" d="m181.2 212.3l-5.2-3c-0.5-0.3-0.4-0.7 0.1-1l6.2-3.6q0.2-0.1 0.4-0.1 0.2-0.1 0.4-0.1 0.2 0 0.4 0 0.2 0.1 0.4 0.2l5.3 3c0.4 0.3 0.3 0.7-0.1 1l-6.2 3.5q-0.2 0.1-0.4 0.2-0.2 0.1-0.5 0.1-0.2 0-0.4-0.1-0.2 0-0.4-0.1z"/><path class="z" d="m189.3 217l-5.2-3c-0.5-0.3-0.4-0.7 0.1-1l6.2-3.6q0.2-0.1 0.4-0.1 0.2-0.1 0.4-0.1 0.2 0 0.4 0 0.2 0.1 0.4 0.2l5.3 3c0.4 0.2 0.4 0.7-0.1 0.9l-6.2 3.6q-0.2 0.1-0.4 0.2-0.2 0.1-0.4 0.1-0.3 0-0.5-0.1-0.2 0-0.4-0.1z"/><path class="z" d="m200.5 213.1l-5.2-3c-0.4-0.2-0.4-0.7 0.1-1l5.2-3q0.2-0.1 0.4-0.1 0.2-0.1 0.4-0.1 0.2 0 0.5 0 0.2 0.1 0.4 0.2l5.2 3c0.4 0.2 0.4 0.7-0.1 1l-5.2 3q-0.2 0.1-0.4 0.1-0.2 0.1-0.4 0.1-0.2 0-0.4 0-0.3-0.1-0.5-0.2z"/><path class="z" d="m208.7 217.8l-5.3-3c-0.4-0.3-0.4-0.7 0.1-1l5.2-3q0.2-0.1 0.4-0.1 0.2-0.1 0.5-0.1 0.2 0 0.4 0 0.2 0.1 0.4 0.2l5.2 3c0.5 0.2 0.4 0.7-0.1 0.9l-5.2 3q-0.2 0.2-0.4 0.2-0.2 0.1-0.4 0.1-0.2 0-0.4-0.1-0.2 0-0.4-0.1z"/><path class="z" d="m216.8 222.5l-5.3-3c-0.4-0.3-0.3-0.7 0.1-1l5.3-3q0.1-0.1 0.3-0.2 0.3 0 0.5 0 0.2 0 0.4 0 0.2 0.1 0.4 0.1l5.3 3.1c0.4 0.2 0.3 0.6-0.2 0.9l-5.2 3q-0.2 0.1-0.4 0.2-0.2 0.1-0.4 0.1-0.2 0-0.4-0.1-0.2 0-0.4-0.1z"/><path class="z" d="m224.9 227.2l-5.3-3c-0.4-0.3-0.3-0.7 0.2-1l5.2-3q0.2-0.1 0.4-0.2 0.2 0 0.4 0 0.2 0 0.4 0 0.2 0 0.4 0.1l5.3 3.1c0.4 0.2 0.3 0.6-0.2 0.9l-5.2 3q-0.1 0.1-0.4 0.2-0.2 0-0.4 0-0.2 0.1-0.4 0-0.2 0-0.4-0.1z"/><path class="z" d="m233 231.9l-5.2-3.1c-0.5-0.2-0.4-0.6 0.1-0.9l5.2-3q0.2-0.1 0.4-0.2 0.2 0 0.4 0 0.2-0.1 0.4 0 0.2 0 0.4 0.1l5.3 3c0.4 0.3 0.4 0.7-0.1 1l-5.2 3q-0.2 0.1-0.4 0.2-0.2 0-0.5 0-0.2 0-0.4 0-0.2 0-0.4-0.1z"/><path class="z" d="m241.1 236.6l-5.2-3.1c-0.5-0.2-0.4-0.6 0.1-0.9l5.2-3q0.2-0.1 0.4-0.2 0.2-0.1 0.4-0.1 0.2 0 0.4 0.1 0.2 0 0.4 0.1l5.3 3c0.4 0.3 0.4 0.7-0.1 1l-5.2 3q-0.2 0.1-0.4 0.2-0.2 0-0.4 0-0.3 0-0.5 0-0.2-0.1-0.4-0.1z"/><path class="z" d="m249.2 241.2l-5.2-3c-0.4-0.2-0.4-0.7 0.1-0.9l5.2-3q0.2-0.2 0.4-0.2 0.2-0.1 0.4-0.1 0.2 0 0.5 0.1 0.2 0 0.4 0.1l5.2 3c0.4 0.3 0.4 0.7-0.1 1l-5.2 3q-0.2 0.1-0.4 0.1-0.2 0.1-0.4 0.1-0.2 0-0.5 0-0.2-0.1-0.4-0.2z"/><path class="z" d="m257.4 245.9l-5.3-3c-0.4-0.3-0.4-0.7 0.1-1l5.2-3q0.2-0.1 0.4-0.1 0.2-0.1 0.4-0.1 0.3 0 0.5 0 0.2 0.1 0.4 0.2l5.2 3c0.5 0.2 0.4 0.7-0.1 1l-5.2 3q-0.2 0.1-0.4 0.1-0.2 0.1-0.4 0.1-0.2 0-0.4 0-0.2-0.1-0.4-0.2z"/><path class="z" d="m265.5 250.6l-5.3-3c-0.4-0.3-0.4-0.7 0.1-1l5.2-3q0.2-0.1 0.4-0.1 0.2-0.1 0.5-0.1 0.2 0 0.4 0 0.2 0.1 0.4 0.2l5.2 3c0.5 0.2 0.4 0.7-0.1 0.9l-5.2 3q-0.2 0.1-0.4 0.2-0.2 0.1-0.4 0.1-0.2 0-0.4-0.1-0.2 0-0.4-0.1z"/><path class="z" d="m273.6 255.3l-5.3-3c-0.4-0.3-0.3-0.7 0.2-1l5.2-3q0.1-0.1 0.4-0.2 0.2 0 0.4 0 0.2 0 0.4 0 0.2 0.1 0.4 0.1l5.3 3.1c0.4 0.2 0.3 0.6-0.2 0.9l-5.2 3q-0.2 0.1-0.4 0.2-0.2 0-0.4 0.1-0.2 0-0.4-0.1-0.2 0-0.4-0.1z"/><path class="k" d="m212.5 210.9l-5.2-3c-0.5-0.3-0.4-0.7 0.1-1l5.2-3q0.2-0.1 0.4-0.1 0.2-0.1 0.4-0.1 0.2 0 0.4 0 0.2 0.1 0.4 0.2l5.3 3c0.4 0.2 0.3 0.7-0.1 0.9l-5.2 3q-0.2 0.1-0.4 0.2-0.2 0.1-0.5 0.1-0.2 0-0.4-0.1-0.2 0-0.4-0.1z"/><path class="k" d="m204.3 206.2l-5.3-3.1c-0.4-0.2-0.4-0.6 0.1-0.9l5.2-3q0.2-0.1 0.4-0.2 0.2-0.1 0.5-0.1 0.2 0 0.4 0.1 0.2 0 0.4 0.1l5.2 3c0.5 0.3 0.4 0.7-0.1 1l-5.2 3q-0.2 0.1-0.4 0.1-0.2 0.1-0.4 0.1-0.2 0-0.4 0-0.2-0.1-0.4-0.1z"/><path class="z" d="m196 201.4l-11.3-6.5c-0.4-0.3-0.4-0.7 0.1-1l5.2-3q0.2-0.1 0.4-0.2 0.2 0 0.4 0 0.3 0 0.5 0 0.2 0 0.4 0.1l11.3 6.6c0.4 0.2 0.4 0.6-0.1 0.9l-5.2 3q-0.2 0.1-0.4 0.2-0.2 0-0.4 0.1-0.3 0-0.5-0.1-0.2 0-0.4-0.1z"/><path class="z" d="m201.8 195.6l-9.2-5.3c-0.4-0.2-0.4-0.7 0.1-0.9l5.2-3.1q0.2-0.1 0.4-0.1 0.2-0.1 0.4-0.1 0.3 0 0.5 0 0.2 0.1 0.4 0.2l9.2 5.3c0.4 0.2 0.3 0.6-0.2 0.9l-5.2 3q-0.2 0.1-0.4 0.2-0.2 0.1-0.4 0.1-0.2 0-0.4-0.1-0.2 0-0.4-0.1z"/><path class="k" d="m220.6 215.6l-5.2-3c-0.5-0.3-0.4-0.7 0.1-1l5.2-3q0.2-0.1 0.4-0.2 0.2 0 0.4 0 0.2 0 0.4 0 0.2 0 0.4 0.1l5.3 3.1c0.4 0.2 0.4 0.6-0.1 0.9l-5.2 3q-0.2 0.1-0.4 0.2-0.2 0-0.4 0.1-0.3 0-0.5-0.1-0.2 0-0.4-0.1z"/><path class="z" d="m228.7 220.3l-5.2-3c-0.4-0.3-0.4-0.7 0.1-1l5.2-3q0.2-0.1 0.4-0.2 0.2 0 0.4 0 0.2 0 0.4 0 0.3 0 0.5 0.1l5.2 3.1c0.4 0.2 0.4 0.6-0.1 0.9l-5.2 3q-0.2 0.1-0.4 0.2-0.2 0-0.4 0-0.2 0.1-0.5 0-0.2 0-0.4-0.1z"/><path class="z" d="m236.9 225l-5.3-3.1c-0.4-0.2-0.4-0.6 0.1-0.9l5.2-3q0.2-0.1 0.4-0.2 0.2 0 0.4-0.1 0.3 0 0.5 0.1 0.2 0 0.4 0.1l5.2 3c0.4 0.3 0.4 0.7-0.1 1l-5.2 3q-0.2 0.1-0.4 0.2-0.2 0-0.4 0-0.2 0-0.4 0-0.3 0-0.4-0.1z"/><path class="z" d="m245 229.7l-5.3-3.1c-0.4-0.2-0.4-0.7 0.1-0.9l5.2-3q0.2-0.1 0.4-0.2 0.2-0.1 0.5-0.1 0.2 0 0.4 0.1 0.2 0 0.4 0.1l5.2 3c0.5 0.3 0.4 0.7-0.1 1l-5.2 3q-0.2 0.1-0.4 0.1-0.2 0.1-0.4 0.1-0.2 0-0.4 0-0.2-0.1-0.4-0.1z"/><path class="z" d="m253.1 234.3l-5.3-3c-0.4-0.2-0.3-0.7 0.1-0.9l5.3-3.1q0.1-0.1 0.3-0.1 0.3-0.1 0.5-0.1 0.2 0 0.4 0 0.2 0.1 0.4 0.2l5.3 3c0.4 0.3 0.3 0.7-0.2 1l-5.2 3q-0.2 0.1-0.4 0.1-0.2 0.1-0.4 0.1-0.2 0-0.4 0-0.2-0.1-0.4-0.2z"/><path class="z" d="m261.2 239l-5.3-3c-0.4-0.3-0.3-0.7 0.2-1l5.2-3q0.2-0.1 0.4-0.1 0.2-0.1 0.4-0.1 0.2 0 0.4 0 0.2 0.1 0.4 0.2l5.3 3c0.4 0.2 0.3 0.7-0.1 0.9l-5.3 3.1q-0.1 0.1-0.3 0.1-0.3 0.1-0.5 0.1-0.2 0-0.4 0-0.2-0.1-0.4-0.2z"/><path class="z" d="m269.3 243.7l-5.2-3c-0.5-0.3-0.4-0.7 0.1-1l5.2-3q0.2-0.1 0.4-0.1 0.2-0.1 0.4-0.1 0.2 0 0.4 0 0.2 0.1 0.4 0.2l5.3 3c0.4 0.2 0.4 0.7-0.1 0.9l-5.2 3q-0.2 0.1-0.4 0.2-0.2 0.1-0.5 0.1-0.2 0-0.4-0.1-0.2 0-0.4-0.1z"/><path class="z" d="m277.4 248.4l-5.2-3c-0.4-0.3-0.4-0.7 0.1-1l5.2-3q0.2-0.1 0.4-0.2 0.2 0 0.4 0 0.2 0 0.4 0 0.3 0 0.4 0.1l5.3 3.1c0.4 0.2 0.4 0.6-0.1 0.9l-5.2 3q-0.2 0.1-0.4 0.2-0.2 0-0.4 0.1-0.3 0-0.5-0.1-0.2 0-0.4-0.1z"/><path class="z" d="m285.5 253.1l-5.2-3.1c-0.4-0.2-0.4-0.6 0.1-0.9l5.2-3q0.2-0.1 0.4-0.2 0.2 0 0.4 0 0.2-0.1 0.5 0 0.2 0 0.4 0.1l5.2 3.1c0.4 0.2 0.4 0.6-0.1 0.9l-5.2 3q-0.2 0.1-0.4 0.2-0.2 0-0.4 0-0.2 0-0.4 0-0.3 0-0.5-0.1z"/><path class="z" d="m300 261.4l-11.5-6.6c-0.4-0.3-0.4-0.7 0.1-1l5.2-3q0.2-0.1 0.4-0.1 0.2-0.1 0.4-0.1 0.3 0 0.5 0 0.2 0.1 0.4 0.2l11.4 6.6c0.5 0.2 0.4 0.7-0.1 0.9l-5.2 3q-0.2 0.1-0.4 0.2-0.2 0.1-0.4 0.1-0.2 0-0.4-0.1-0.2 0-0.4-0.1z"/><path class="z" d="m315.8 252.3l-9.7-5.6c-0.4-0.2-0.4-0.7 0.1-1l5.2-3q0.2-0.1 0.4-0.1 0.2-0.1 0.4-0.1 0.2 0 0.5 0 0.2 0.1 0.4 0.2l9.6 5.6c0.5 0.2 0.4 0.6-0.1 0.9l-5.2 3q-0.2 0.1-0.4 0.2-0.2 0-0.4 0-0.2 0.1-0.4 0-0.2 0-0.4-0.1z"/><path class="z" d="m234.8 214.7l-5.2-3.1c-0.4-0.2-0.4-0.6 0.1-0.9l5.2-3q0.2-0.1 0.4-0.2 0.2 0 0.4 0 0.2 0 0.4 0 0.3 0 0.5 0.1l5.2 3.1c0.4 0.2 0.4 0.6-0.1 0.9l-5.2 3q-0.2 0.1-0.4 0.2-0.2 0-0.4 0-0.2 0.1-0.5 0-0.2 0-0.4-0.1z"/><path class="z" d="m226.5 209.9l-5.2-3.1c-0.5-0.2-0.4-0.6 0.1-0.9l5.2-3q0.2-0.1 0.4-0.2 0.2 0 0.4 0 0.2-0.1 0.4 0 0.2 0 0.4 0.1l5.3 3.1c0.4 0.2 0.4 0.6-0.1 0.9l-5.2 3q-0.2 0.1-0.4 0.2-0.2 0-0.5 0-0.2 0-0.4 0-0.2 0-0.4-0.1z"/><path class="k" d="m218.2 205.1l-5.3-3.1c-0.4-0.2-0.3-0.6 0.2-0.9l5.2-3q0.2-0.1 0.4-0.2 0.2 0 0.4 0 0.2-0.1 0.4 0 0.2 0 0.4 0.1l5.3 3.1c0.4 0.2 0.3 0.6-0.1 0.9l-5.3 3q-0.1 0.1-0.3 0.2-0.3 0-0.5 0-0.2 0-0.4 0-0.2 0-0.4-0.1z"/><path class="z" d="m209.9 200.3l-5.3-3.1c-0.4-0.2-0.3-0.6 0.1-0.9l5.3-3q0.1-0.1 0.3-0.2 0.3 0 0.5 0 0.2-0.1 0.4 0 0.2 0 0.4 0.1l5.3 3c0.4 0.3 0.3 0.7-0.2 1l-5.2 3q-0.2 0.1-0.4 0.2-0.2 0-0.4 0-0.2 0-0.4 0-0.2 0-0.4-0.1z"/><path class="z" d="m242.9 219.4l-5.2-3.1c-0.4-0.2-0.4-0.6 0.1-0.9l5.2-3q0.2-0.1 0.4-0.2 0.2 0 0.4-0.1 0.2 0 0.5 0.1 0.2 0 0.4 0.1l5.2 3c0.4 0.3 0.4 0.7-0.1 1l-5.2 3q-0.2 0.1-0.4 0.2-0.2 0-0.4 0-0.2 0-0.4 0-0.3 0-0.5-0.1z"/><path class="z" d="m251.1 224.1l-5.3-3.1c-0.4-0.2-0.4-0.7 0.1-0.9l5.2-3q0.2-0.1 0.4-0.2 0.2-0.1 0.4-0.1 0.3 0 0.5 0.1 0.2 0 0.4 0.1l5.2 3c0.5 0.3 0.4 0.7-0.1 1l-5.2 3q-0.2 0.1-0.4 0.1-0.2 0.1-0.4 0.1-0.2 0-0.4 0-0.2-0.1-0.4-0.1z"/><path class="z" d="m259.2 228.7l-5.3-3c-0.4-0.2-0.3-0.7 0.1-0.9l5.3-3.1q0.1-0.1 0.3-0.1 0.3-0.1 0.5-0.1 0.2 0 0.4 0 0.2 0.1 0.4 0.2l5.3 3c0.4 0.3 0.3 0.7-0.2 1l-5.2 3q-0.2 0.1-0.4 0.1-0.2 0.1-0.4 0.1-0.2 0-0.4 0-0.2-0.1-0.4-0.2z"/><path class="z" d="m267.3 233.4l-5.3-3c-0.4-0.3-0.3-0.7 0.2-1l5.2-3q0.2-0.1 0.4-0.1 0.2-0.1 0.4-0.1 0.2 0 0.4 0 0.2 0.1 0.4 0.2l5.3 3c0.4 0.2 0.3 0.7-0.2 0.9l-5.2 3.1q-0.1 0.1-0.4 0.1-0.2 0.1-0.4 0.1-0.2 0-0.4 0-0.2-0.1-0.4-0.2z"/><path class="z" d="m275.4 238.1l-5.2-3c-0.5-0.3-0.4-0.7 0.1-1l5.2-3q0.2-0.1 0.4-0.1 0.2-0.1 0.4-0.1 0.2 0 0.4 0 0.2 0.1 0.4 0.1l5.3 3.1c0.4 0.2 0.4 0.7-0.1 0.9l-5.2 3q-0.2 0.1-0.4 0.2-0.2 0.1-0.5 0.1-0.2 0-0.4-0.1-0.2 0-0.4-0.1z"/><path class="z" d="m283.5 242.8l-5.2-3c-0.5-0.3-0.4-0.7 0.1-1l5.2-3q0.2-0.1 0.4-0.2 0.2 0 0.4 0 0.2 0 0.4 0 0.2 0 0.4 0.1l5.3 3.1c0.4 0.2 0.4 0.6-0.1 0.9l-5.2 3q-0.2 0.1-0.4 0.2-0.2 0-0.4 0.1-0.3 0-0.5-0.1-0.2 0-0.4-0.1z"/><path class="z" d="m291.6 247.5l-5.2-3.1c-0.4-0.2-0.4-0.6 0.1-0.9l5.2-3q0.2-0.1 0.4-0.2 0.2 0 0.4 0 0.2-0.1 0.5 0 0.2 0 0.4 0.1l5.2 3.1c0.4 0.2 0.4 0.6-0.1 0.9l-5.2 3q-0.2 0.1-0.4 0.2-0.2 0-0.4 0-0.2 0-0.5 0-0.2 0-0.4-0.1z"/><path class="z" d="m299.8 252.2l-5.3-3.1c-0.4-0.2-0.4-0.6 0.1-0.9l5.2-3q0.2-0.1 0.4-0.2 0.2 0 0.4-0.1 0.3 0 0.5 0.1 0.2 0 0.4 0.1l5.2 3c0.5 0.3 0.4 0.7-0.1 1l-5.2 3q-0.2 0.1-0.4 0.2-0.2 0-0.4 0-0.2 0-0.4 0-0.2 0-0.4-0.1z"/><path class="z" d="m307.9 256.8l-5.3-3c-0.4-0.2-0.4-0.7 0.1-0.9l5.2-3q0.2-0.1 0.4-0.2 0.2-0.1 0.5-0.1 0.2 0 0.4 0.1 0.2 0 0.4 0.1l5.2 3c0.5 0.3 0.4 0.7-0.1 1l-5.2 3q-0.2 0.1-0.4 0.1-0.2 0.1-0.4 0.1-0.2 0-0.4 0-0.2-0.1-0.4-0.2z"/><path class="z" d="m230.6 203.1l-5.3-3c-0.4-0.3-0.4-0.7 0.1-1l5.2-3q0.2-0.1 0.4-0.2 0.2 0 0.4 0 0.3 0 0.5 0 0.2 0 0.4 0.1l5.2 3.1c0.5 0.2 0.4 0.6-0.1 0.9l-5.2 3q-0.2 0.1-0.4 0.2-0.2 0-0.4 0.1-0.2 0-0.4-0.1-0.2 0-0.4-0.1z"/><path class="z" d="m222.5 198.4l-5.3-3c-0.4-0.2-0.3-0.7 0.1-1l5.3-3q0.1-0.1 0.3-0.1 0.3-0.1 0.5-0.1 0.2 0 0.4 0 0.2 0.1 0.4 0.2l5.3 3c0.4 0.2 0.3 0.7-0.2 1l-5.2 3q-0.2 0.1-0.4 0.1-0.2 0.1-0.4 0.1-0.2 0-0.4 0-0.2-0.1-0.4-0.2z"/><path class="z" d="m214.4 193.8l-5.2-3.1c-0.5-0.2-0.4-0.6 0.1-0.9l5.2-3q0.2-0.1 0.4-0.2 0.2 0 0.4-0.1 0.2 0 0.4 0.1 0.2 0 0.4 0.1l5.3 3c0.4 0.3 0.4 0.7-0.1 1l-5.2 3q-0.2 0.1-0.4 0.2-0.2 0-0.5 0-0.2 0-0.4 0-0.2 0-0.4-0.1z"/><path class="z" d="m206.3 189.1l-5.2-3c-0.4-0.3-0.4-0.7 0.1-1l5.2-3q0.2-0.1 0.4-0.1 0.2-0.1 0.4-0.1 0.2 0 0.4 0 0.3 0.1 0.5 0.1l5.2 3.1c0.4 0.2 0.4 0.6-0.1 0.9l-5.2 3q-0.2 0.1-0.4 0.2-0.2 0.1-0.4 0.1-0.2 0-0.5-0.1-0.2 0-0.4-0.1z"/><path class="z" d="m214.6 184.3l-5.2-3c-0.4-0.3-0.4-0.7 0.1-1l1.7-1q0.2-0.1 0.4-0.1 0.2-0.1 0.4-0.1 0.3 0 0.5 0 0.2 0.1 0.4 0.2l5.2 3c0.4 0.2 0.4 0.7-0.1 0.9l-1.7 1q-0.2 0.1-0.4 0.2-0.2 0.1-0.4 0.1-0.2 0-0.5-0.1-0.2 0-0.4-0.1z"/><path class="z" d="m225.2 190.4l-5.3-3c-0.4-0.3-0.3-0.7 0.1-1l1.8-1q0.1-0.1 0.4-0.1 0.2-0.1 0.4-0.1 0.2 0 0.4 0 0.2 0.1 0.4 0.1l5.3 3.1c0.4 0.2 0.3 0.7-0.2 0.9l-1.7 1q-0.2 0.1-0.4 0.2-0.2 0-0.4 0.1-0.2 0-0.4-0.1-0.2 0-0.4-0.1z"/><path class="z" d="m233.2 195l-5.2-3c-0.5-0.2-0.4-0.7 0.1-0.9l1.7-1q0.2-0.1 0.4-0.2 0.2-0.1 0.4-0.1 0.2 0 0.4 0.1 0.3 0 0.4 0.1l5.3 3c0.4 0.3 0.4 0.7-0.1 1l-1.7 1q-0.2 0.1-0.4 0.1-0.2 0.1-0.4 0.1-0.3 0-0.5 0-0.2-0.1-0.4-0.2z"/><path class="z" d="m241.3 199.7l-5.3-3.1c-0.4-0.2-0.4-0.6 0.1-0.9l1.7-1q0.2-0.1 0.4-0.2 0.2 0 0.5 0 0.2 0 0.4 0 0.2 0 0.4 0.1l5.2 3.1c0.5 0.2 0.4 0.6-0.1 0.9l-1.7 1q-0.2 0.1-0.4 0.2-0.2 0-0.4 0-0.2 0.1-0.4 0-0.2 0-0.4-0.1z"/><path class="z" d="m249.3 204.3l-5.3-3c-0.4-0.3-0.3-0.7 0.2-1l1.7-1q0.2-0.1 0.4-0.1 0.2-0.1 0.4-0.1 0.2 0 0.4 0 0.2 0.1 0.4 0.2l5.3 3c0.4 0.3 0.4 0.7-0.1 1l-1.8 1q-0.1 0.1-0.3 0.1-0.3 0.1-0.5 0.1-0.2 0-0.4 0-0.2-0.1-0.4-0.2z"/><path class="z" d="m294.2 230.2l-5.3-3c-0.4-0.2-0.3-0.7 0.2-0.9l1.7-1q0.2-0.1 0.4-0.2 0.2-0.1 0.4-0.1 0.2 0 0.4 0.1 0.2 0 0.4 0.1l5.3 3c0.4 0.3 0.3 0.7-0.1 1l-1.8 1q-0.1 0.1-0.4 0.1-0.2 0.1-0.4 0.1-0.2 0-0.4 0-0.2-0.1-0.4-0.2z"/><path class="z" d="m302.2 234.9l-5.2-3c-0.4-0.3-0.4-0.7 0.1-1l1.7-1q0.2-0.1 0.4-0.2 0.2 0 0.4 0 0.2 0 0.5 0 0.2 0.1 0.4 0.1l5.2 3.1c0.4 0.2 0.4 0.6-0.1 0.9l-1.7 1q-0.2 0.1-0.4 0.2-0.2 0-0.4 0-0.2 0.1-0.5 0-0.2 0-0.4-0.1z"/><path class="z" d="m310.3 239.5l-5.3-3c-0.4-0.3-0.3-0.7 0.1-1l1.8-1q0.1-0.1 0.4-0.1 0.2-0.1 0.4-0.1 0.2 0 0.4 0.1 0.2 0 0.4 0.1l5.3 3c0.4 0.3 0.3 0.7-0.2 1l-1.7 1q-0.2 0.1-0.4 0.1-0.2 0.1-0.4 0.1-0.2 0-0.4 0-0.2-0.1-0.4-0.2z"/><path class="z" d="m318.3 244.2l-5.2-3.1c-0.5-0.2-0.4-0.6 0.1-0.9l1.7-1q0.2-0.1 0.4-0.2 0.2 0 0.4 0 0.2 0 0.4 0 0.3 0 0.4 0.1l5.3 3.1c0.4 0.2 0.4 0.6-0.1 0.9l-1.7 1q-0.2 0.1-0.4 0.2-0.2 0-0.5 0-0.2 0-0.4 0-0.2 0-0.4-0.1z"/><path class="z" d="m238.7 207.8l-5.3-3.1c-0.4-0.2-0.3-0.6 0.1-0.9l5.2-3q0.2-0.1 0.4-0.2 0.2 0 0.5 0 0.2-0.1 0.4 0 0.2 0 0.4 0.1l5.2 3.1c0.5 0.2 0.4 0.6-0.1 0.9l-5.2 3q-0.2 0.1-0.4 0.2-0.2 0-0.4 0-0.2 0-0.4 0-0.2 0-0.4-0.1z"/><path class="z" d="m246.8 212.5l-5.3-3.1c-0.4-0.2-0.3-0.6 0.2-0.9l5.2-3q0.1-0.1 0.4-0.2 0.2 0 0.4-0.1 0.2 0 0.4 0.1 0.2 0 0.4 0.1l5.3 3c0.4 0.3 0.3 0.7-0.2 1l-5.2 3q-0.2 0.1-0.4 0.2-0.2 0-0.4 0-0.2 0-0.4 0-0.2-0.1-0.4-0.1z"/><path class="z" d="m254.9 217.1l-5.2-3c-0.5-0.2-0.4-0.7 0.1-0.9l5.2-3q0.2-0.1 0.4-0.2 0.2-0.1 0.4-0.1 0.2 0 0.4 0.1 0.2 0 0.4 0.1l5.3 3c0.4 0.3 0.3 0.7-0.1 1l-5.2 3q-0.2 0.1-0.4 0.1-0.2 0.1-0.5 0.1-0.2 0-0.4 0-0.2-0.1-0.4-0.2z"/><path class="z" d="m263 221.8l-5.2-3c-0.5-0.2-0.4-0.7 0.1-1l5.2-3q0.2-0.1 0.4-0.1 0.2-0.1 0.4-0.1 0.2 0 0.4 0 0.2 0.1 0.4 0.2l5.3 3c0.4 0.3 0.4 0.7-0.1 1l-5.2 3q-0.2 0.1-0.4 0.1-0.2 0.1-0.4 0.1-0.3 0-0.5 0-0.2-0.1-0.4-0.2z"/><path class="z" d="m271.1 226.5l-5.2-3c-0.4-0.3-0.4-0.7 0.1-1l5.2-3q0.2-0.1 0.4-0.1 0.2-0.1 0.4-0.1 0.2 0 0.4 0 0.3 0.1 0.5 0.2l5.2 3c0.4 0.2 0.4 0.7-0.1 0.9l-5.2 3q-0.2 0.2-0.4 0.2-0.2 0.1-0.4 0.1-0.2 0-0.5-0.1-0.2 0-0.4-0.1z"/><path class="z" d="m279.3 231.2l-5.3-3c-0.4-0.3-0.4-0.7 0.1-1l5.2-3q0.2-0.1 0.4-0.2 0.2 0 0.4 0 0.3 0 0.5 0 0.2 0.1 0.4 0.1l5.2 3.1c0.4 0.2 0.4 0.6-0.1 0.9l-5.2 3q-0.2 0.1-0.4 0.2-0.2 0.1-0.4 0.1-0.2 0-0.4-0.1-0.3 0-0.4-0.1z"/><path class="z" d="m287.4 235.9l-5.3-3c-0.4-0.3-0.4-0.7 0.1-1l5.2-3q0.2-0.1 0.4-0.2 0.2 0 0.5 0 0.2 0 0.4 0 0.2 0 0.4 0.1l5.2 3.1c0.5 0.2 0.4 0.6-0.1 0.9l-5.2 3q-0.2 0.1-0.4 0.2-0.2 0-0.4 0-0.2 0.1-0.4 0-0.2 0-0.4-0.1z"/><path class="z" d="m295.5 240.6l-5.3-3.1c-0.4-0.2-0.3-0.6 0.1-0.9l5.3-3q0.1-0.1 0.3-0.2 0.3 0 0.5 0 0.2-0.1 0.4 0 0.2 0 0.4 0.1l5.3 3c0.4 0.3 0.3 0.7-0.2 1l-5.2 3q-0.2 0.1-0.4 0.2-0.2 0-0.4 0-0.2 0-0.4 0-0.2 0-0.4-0.1z"/><path class="z" d="m303.6 245.3l-5.3-3.1c-0.4-0.2-0.3-0.6 0.2-0.9l5.2-3q0.2-0.1 0.4-0.2 0.2-0.1 0.4-0.1 0.2 0 0.4 0.1 0.2 0 0.4 0.1l5.3 3c0.4 0.3 0.3 0.7-0.1 1l-5.3 3q-0.1 0.1-0.3 0.2-0.3 0-0.5 0-0.2 0-0.4 0-0.2-0.1-0.4-0.1z"/><path class="z" d="m192.3 208.4l-15.5-9c-0.4-0.2-0.4-0.7 0.1-0.9l5.2-3q0.2-0.1 0.4-0.2 0.2-0.1 0.4-0.1 0.3 0 0.5 0.1 0.2 0 0.4 0.1l15.5 8.9c0.4 0.3 0.3 0.7-0.2 1l-5.2 3q-0.2 0.1-0.4 0.1-0.2 0.1-0.4 0.1-0.2 0-0.4 0-0.2-0.1-0.4-0.1z"/><path class="z" d="m292 265.9l-15.5-8.9c-0.4-0.3-0.4-0.7 0.1-1l5.2-3q0.2-0.1 0.4-0.1 0.2-0.1 0.4-0.1 0.3 0 0.5 0 0.2 0.1 0.4 0.2l15.4 8.9c0.5 0.2 0.4 0.7-0.1 0.9l-5.2 3q-0.2 0.1-0.4 0.2-0.2 0.1-0.4 0.1-0.2 0-0.4-0.1-0.2 0-0.4-0.1z"/><path class="z" d="m259.5 257.5l-5.2-3c-0.5-0.3-0.4-0.7 0.1-1l6.2-3.5q0.2-0.1 0.4-0.2 0.2-0.1 0.4-0.1 0.2 0 0.4 0.1 0.2 0 0.4 0.1l5.3 3c0.4 0.3 0.4 0.7-0.1 1l-6.2 3.6q-0.2 0.1-0.4 0.1-0.2 0.1-0.4 0.1-0.3 0-0.5 0-0.2-0.1-0.4-0.2z"/><path class="z" d="m200.6 223.5l-8.4-4.9c-0.4-0.2-0.4-0.6 0.1-0.9l6.2-3.6q0.2-0.1 0.4-0.1 0.2-0.1 0.4-0.1 0.2 0 0.4 0 0.3 0.1 0.5 0.2l8.4 4.8c0.4 0.2 0.3 0.7-0.2 1l-6.2 3.5q-0.1 0.1-0.4 0.2-0.2 0.1-0.4 0.1-0.2 0-0.4-0.1-0.2 0-0.4-0.1z"/><path class="z" d="m251.7 253l-8.4-4.8c-0.4-0.3-0.4-0.7 0.1-1l6.2-3.6q0.2-0.1 0.4-0.1 0.2-0.1 0.4-0.1 0.3 0 0.5 0 0.2 0.1 0.4 0.2l8.4 4.8c0.4 0.3 0.3 0.7-0.1 1l-6.2 3.5q-0.2 0.1-0.4 0.2-0.2 0.1-0.5 0.1-0.2 0-0.4-0.1-0.2 0-0.4-0.1z"/><path class="z" d="m212.3 230.3l-8.4-4.9c-0.4-0.2-0.4-0.7 0.1-0.9l6.2-3.6q0.2-0.1 0.4-0.2 0.2 0 0.4-0.1 0.2 0 0.5 0.1 0.2 0 0.4 0.1l8.4 4.9c0.4 0.2 0.3 0.6-0.2 0.9l-6.2 3.6q-0.1 0.1-0.3 0.2-0.3 0-0.5 0-0.2 0-0.4 0-0.2 0-0.4-0.1z"/><path class="z" d="m211.9 220.8l36.6 21.1q0.1 0.1 0.2 0.2 0.1 0.2 0.1 0.3 0 0.2-0.1 0.3-0.1 0.1-0.2 0.2l-6.4 3.6q-0.2 0.1-0.4 0.2-0.2 0-0.4 0-0.2 0-0.4 0-0.2-0.1-0.4-0.2l-36.5-21.1z"/><path class="z" d="m282.2 266l5.9 3.4c0.3 0.2 0.3 0.5-0.1 0.8l-2.6 1.4q-0.1 0.1-0.3 0.2-0.2 0-0.3 0-0.2 0-0.4 0-0.2 0-0.3-0.1l-5.9-3.4c-0.3-0.2-0.3-0.5 0.1-0.8l2.6-1.4q0.1-0.1 0.3-0.2 0.2 0 0.3 0 0.2 0 0.4 0 0.1 0 0.3 0.1z"/><path class="z" d="m274 261.3l5.9 3.4c0.3 0.2 0.3 0.5-0.1 0.8l-2.6 1.4q-0.1 0.1-0.3 0.2-0.2 0-0.3 0-0.2 0-0.4 0-0.2-0.1-0.3-0.1l-5.9-3.4c-0.3-0.2-0.3-0.6 0.1-0.8l2.6-1.4q0.1-0.1 0.3-0.2 0.2 0 0.3 0 0.2 0 0.4 0 0.2 0 0.3 0.1z"/><path class="z" d="m265.9 256.6l5.9 3.4c0.3 0.2 0.3 0.5-0.1 0.8l-2.6 1.4q-0.1 0.1-0.3 0.2-0.2 0-0.3 0-0.2 0-0.4 0-0.2 0-0.3-0.1l-5.9-3.4c-0.3-0.2-0.3-0.5 0.1-0.8l2.6-1.4q0.1-0.1 0.3-0.2 0.2 0 0.3 0 0.2 0 0.4 0 0.1 0 0.3 0.1z"/><path class="z" d="m278.5 258.7l5.9 3.4c0.3 0.2 0.3 0.5-0.1 0.8l-2.6 1.4q-0.1 0.1-0.3 0.2-0.2 0-0.3 0-0.2 0-0.4 0-0.2 0-0.3-0.1l-5.9-3.4c-0.3-0.2-0.3-0.5 0.1-0.8l2.6-1.4q0.1-0.1 0.3-0.2 0.1 0 0.3 0 0.2 0 0.4 0 0.1 0 0.3 0.1z"/><path class="g" d="m267.8 115.1l-7.8-4.5q-0.3-0.2-0.5-0.4-0.2-0.3-0.3-0.6-0.2-0.3-0.2-0.6 0-0.4 0-0.7 0.1-0.3 0.2-0.5 0.2-0.2 0.4-0.4 0.3-0.1 0.6-0.1 0.3 0.1 0.5 0.2l7.8 4.5q0.2 0.2 0.5 0.4 0.2 0.3 0.3 0.6 0.1 0.3 0.1 0.6 0.1 0.4 0 0.7 0 0.3-0.2 0.5-0.1 0.2-0.4 0.4-0.2 0.1-0.5 0.1-0.3-0.1-0.5-0.2z"/><path class="g" d="m286.3 125.8l-11.5-6.6q-0.3-0.2-0.5-0.5-0.2-0.2-0.3-0.5-0.2-0.4-0.2-0.7 0-0.3 0.1-0.6 0-0.3 0.1-0.5 0.2-0.3 0.5-0.4 0.2-0.1 0.5-0.1 0.3 0 0.5 0.2l11.5 6.6q0.2 0.2 0.5 0.4 0.2 0.3 0.3 0.6 0.1 0.3 0.1 0.6 0.1 0.4 0 0.7 0 0.3-0.2 0.5-0.1 0.2-0.4 0.3-0.3 0.2-0.5 0.1-0.3 0-0.6-0.1z"/><path class="g" d="m254.2 151.3l-7.8-4.4q-0.2-0.2-0.4-0.5-0.3-0.2-0.4-0.5-0.1-0.4-0.1-0.7-0.1-0.3 0-0.6 0-0.3 0.2-0.6 0.2-0.2 0.4-0.3 0.3-0.1 0.5-0.1 0.3 0 0.6 0.2l7.7 4.4q0.3 0.2 0.5 0.5 0.2 0.2 0.4 0.6 0.1 0.3 0.1 0.6 0 0.3 0 0.6-0.1 0.3-0.2 0.6-0.2 0.2-0.4 0.3-0.3 0.1-0.6 0.1-0.2 0-0.5-0.2z"/><path class="g" d="m270.7 160.9l-11.4-6.7q-0.3-0.1-0.5-0.4-0.2-0.2-0.4-0.6-0.1-0.3-0.1-0.6-0.1-0.3 0-0.7 0-0.2 0.2-0.5 0.2-0.2 0.4-0.3 0.3-0.1 0.5-0.1 0.3 0 0.6 0.2l11.4 6.6q0.3 0.2 0.5 0.4 0.2 0.3 0.3 0.6 0.2 0.3 0.2 0.6 0 0.3 0 0.7-0.1 0.2-0.2 0.5-0.2 0.2-0.4 0.3-0.3 0.1-0.6 0.1-0.3 0-0.5-0.1z"/><path class="g" d="m244.8 109.2l-4.8-2.8q-0.3-0.2-0.5-0.4-0.2-0.3-0.3-0.6-0.2-0.3-0.2-0.6 0-0.4 0-0.7 0.1-0.3 0.2-0.5 0.2-0.2 0.5-0.4 0.2-0.1 0.5-0.1 0.3 0.1 0.5 0.2l4.9 2.8q0.2 0.2 0.4 0.5 0.3 0.2 0.4 0.5 0.1 0.3 0.1 0.7 0.1 0.3 0 0.6 0 0.3-0.2 0.5-0.2 0.3-0.4 0.4-0.3 0.1-0.5 0.1-0.3 0-0.6-0.2z"/><path class="g" d="m259.8 125.2l-14.8-8.6q-0.3-0.2-0.5-0.4-0.2-0.3-0.4-0.6-0.1-0.3-0.1-0.6 0-0.3 0-0.7 0.1-0.3 0.2-0.5 0.2-0.2 0.4-0.3 0.3-0.2 0.6-0.1 0.2 0 0.5 0.1l14.8 8.6q0.3 0.2 0.5 0.4 0.2 0.3 0.3 0.6 0.2 0.3 0.2 0.6 0 0.4 0 0.7-0.1 0.3-0.2 0.5-0.2 0.2-0.5 0.4-0.2 0.1-0.5 0.1-0.3-0.1-0.5-0.2z"/><path class="g" d="m246.8 132.4l-4.8-2.8q-0.3-0.2-0.5-0.5-0.2-0.2-0.3-0.5-0.2-0.3-0.2-0.7 0-0.3 0-0.6 0.1-0.3 0.2-0.5 0.2-0.3 0.4-0.4 0.3-0.1 0.6-0.1 0.3 0 0.5 0.2l4.8 2.8q0.3 0.2 0.5 0.4 0.2 0.3 0.4 0.6 0.1 0.3 0.1 0.6 0.1 0.4 0 0.7 0 0.3-0.2 0.5-0.2 0.2-0.4 0.4-0.3 0.1-0.6 0.1-0.2-0.1-0.5-0.2z"/><path class="g" d="m273.2 177l-13-7.5q-0.2-0.2-0.4-0.4-0.3-0.3-0.4-0.6-0.1-0.3-0.1-0.6-0.1-0.4 0-0.7 0-0.3 0.2-0.5 0.2-0.2 0.4-0.4 0.3-0.1 0.5-0.1 0.3 0.1 0.6 0.2l12.9 7.5q0.3 0.2 0.5 0.4 0.2 0.3 0.3 0.6 0.2 0.3 0.2 0.6 0 0.4 0 0.7-0.1 0.3-0.2 0.5-0.2 0.2-0.4 0.4-0.3 0.1-0.6 0.1-0.3-0.1-0.5-0.2z"/><path class="g" d="m242.1 144.3l-3.1-1.8q-0.3-0.1-0.5-0.4-0.2-0.3-0.3-0.6-0.2-0.3-0.2-0.6 0-0.3 0-0.7 0.1-0.2 0.2-0.5 0.2-0.2 0.5-0.3 0.2-0.1 0.5-0.1 0.3 0 0.5 0.2l3.1 1.8q0.3 0.1 0.5 0.4 0.2 0.3 0.3 0.6 0.2 0.3 0.2 0.6 0 0.3 0 0.7-0.1 0.2-0.2 0.5-0.2 0.2-0.4 0.3-0.3 0.1-0.6 0.1-0.3 0-0.5-0.2z"/><path class="g" d="m239.9 157.7l-3.9-2.2q-0.3-0.2-0.5-0.4-0.2-0.3-0.3-0.6-0.2-0.3-0.2-0.6 0-0.4 0-0.7 0.1-0.3 0.2-0.5 0.2-0.2 0.5-0.4 0.2-0.1 0.5-0.1 0.3 0.1 0.5 0.2l3.9 2.2q0.3 0.2 0.5 0.5 0.2 0.2 0.3 0.6 0.1 0.3 0.2 0.6 0 0.3-0.1 0.6 0 0.3-0.2 0.6-0.1 0.2-0.4 0.3-0.2 0.1-0.5 0.1-0.3 0-0.5-0.2z"/><path class="g" d="m254.9 166.4l-10.2-5.9q-0.3-0.1-0.5-0.4-0.2-0.3-0.3-0.6-0.1-0.3-0.2-0.6 0-0.3 0.1-0.7 0-0.2 0.2-0.5 0.1-0.2 0.4-0.3 0.2-0.1 0.5-0.1 0.3 0 0.5 0.1l10.2 5.9q0.3 0.2 0.5 0.5 0.2 0.2 0.3 0.5 0.2 0.3 0.2 0.7 0 0.3 0 0.6-0.1 0.3-0.2 0.5-0.2 0.3-0.4 0.4-0.3 0.1-0.6 0.1-0.3 0-0.5-0.2z"/><path class="g" d="m241.8 166.2l-7.3-4.2q-0.3-0.2-0.5-0.5-0.2-0.2-0.3-0.5-0.2-0.3-0.2-0.7 0-0.3 0.1-0.6 0-0.3 0.1-0.5 0.2-0.2 0.5-0.4 0.2-0.1 0.5-0.1 0.3 0 0.5 0.2l7.3 4.2q0.3 0.2 0.5 0.5 0.2 0.2 0.4 0.5 0.1 0.3 0.1 0.7 0.1 0.3 0 0.6 0 0.3-0.2 0.5-0.2 0.3-0.4 0.4-0.3 0.1-0.6 0.1-0.2 0-0.5-0.2z"/><path class="g" d="m284.3 183.4l-4.7-2.7q-0.3-0.2-0.5-0.4-0.2-0.3-0.3-0.6-0.1-0.3-0.2-0.6 0-0.4 0.1-0.7 0-0.3 0.2-0.5 0.1-0.2 0.4-0.3 0.2-0.2 0.5-0.1 0.3 0 0.5 0.1l4.7 2.7q0.3 0.2 0.5 0.5 0.2 0.2 0.4 0.6 0.1 0.3 0.1 0.6 0 0.3 0 0.6-0.1 0.3-0.2 0.6-0.2 0.2-0.4 0.3-0.3 0.1-0.6 0.1-0.2 0-0.5-0.2z"/><path class="g" d="m264.9 142.8l-13-7.5q-0.3-0.2-0.5-0.4-0.2-0.3-0.3-0.6-0.1-0.3-0.2-0.6 0-0.3 0.1-0.7 0-0.3 0.2-0.5 0.1-0.2 0.4-0.3 0.2-0.2 0.5-0.1 0.3 0 0.5 0.1l13 7.5q0.3 0.2 0.5 0.5 0.2 0.2 0.3 0.5 0.1 0.3 0.2 0.7 0 0.3-0.1 0.6 0 0.3-0.2 0.5-0.1 0.3-0.4 0.4-0.2 0.1-0.5 0.1-0.3 0-0.5-0.2z"/><path class="g" d="m266.1 136.1l-22.6-13q-0.3-0.2-0.5-0.4-0.2-0.3-0.4-0.6-0.1-0.3-0.1-0.6 0-0.4 0-0.7 0.1-0.3 0.2-0.5 0.2-0.2 0.4-0.4 0.3-0.1 0.6-0.1 0.3 0.1 0.5 0.2l22.6 13.1q0.2 0.1 0.5 0.4 0.2 0.2 0.3 0.6 0.1 0.3 0.2 0.6 0 0.3-0.1 0.7 0 0.2-0.2 0.5-0.1 0.2-0.4 0.3-0.2 0.1-0.5 0.1-0.3 0-0.5-0.2z"/><path class="g" d="m253.4 143.5l-12.9-7.4q-0.3-0.2-0.5-0.5-0.2-0.2-0.3-0.5-0.2-0.3-0.2-0.7 0-0.3 0-0.6 0.1-0.3 0.2-0.5 0.2-0.3 0.4-0.4 0.3-0.1 0.6-0.1 0.3 0 0.5 0.2l13 7.5q0.2 0.1 0.4 0.4 0.3 0.3 0.4 0.6 0.1 0.3 0.1 0.6 0.1 0.3 0 0.7 0 0.2-0.2 0.5-0.1 0.2-0.4 0.3-0.3 0.1-0.5 0.1-0.3 0-0.6-0.2z"/><path class="g" d="m274.7 148.5l-4.7-2.7q-0.3-0.2-0.5-0.5-0.2-0.2-0.3-0.5-0.2-0.3-0.2-0.7 0-0.3 0-0.6 0.1-0.3 0.2-0.5 0.2-0.3 0.5-0.4 0.2-0.1 0.5-0.1 0.3 0 0.5 0.2l4.7 2.7q0.3 0.2 0.5 0.4 0.2 0.3 0.3 0.6 0.2 0.3 0.2 0.6 0 0.4 0 0.7-0.1 0.3-0.2 0.5-0.2 0.2-0.4 0.4-0.3 0.1-0.6 0.1-0.3-0.1-0.5-0.2z"/><path class="g" d="m321.2 145.9l-27.9-16.1q-0.3-0.1-0.5-0.4-0.2-0.3-0.3-0.6-0.2-0.3-0.2-0.6 0-0.3 0-0.7 0.1-0.2 0.2-0.5 0.2-0.2 0.5-0.3 0.2-0.1 0.5-0.1 0.3 0 0.5 0.1l27.9 16.1q0.3 0.2 0.5 0.5 0.2 0.2 0.3 0.5 0.1 0.4 0.2 0.7 0 0.3-0.1 0.6 0 0.3-0.2 0.6-0.1 0.2-0.4 0.3-0.2 0.1-0.5 0.1-0.3 0-0.5-0.2z"/><path class="g" d="m253.1 158l-15.6-9q-0.3-0.2-0.5-0.4-0.2-0.3-0.3-0.6-0.2-0.3-0.2-0.6 0-0.3 0-0.7 0.1-0.3 0.2-0.5 0.2-0.2 0.5-0.3 0.2-0.2 0.5-0.1 0.3 0 0.5 0.1l15.6 9q0.3 0.2 0.5 0.5 0.2 0.2 0.3 0.5 0.1 0.3 0.2 0.7 0 0.3-0.1 0.6 0 0.3-0.2 0.5-0.1 0.3-0.4 0.4-0.2 0.1-0.5 0.1-0.3 0-0.5-0.2z"/><path class="g" d="m252.9 106.5l-11.4-6.6q-0.3-0.2-0.5-0.4-0.2-0.3-0.3-0.6-0.2-0.3-0.2-0.6 0-0.3 0-0.7 0.1-0.3 0.2-0.5 0.2-0.2 0.4-0.3 0.3-0.2 0.6-0.1 0.3 0 0.5 0.1l11.5 6.6q0.2 0.2 0.4 0.5 0.3 0.2 0.4 0.5 0.1 0.4 0.1 0.7 0.1 0.3 0 0.6 0 0.3-0.2 0.6-0.2 0.2-0.4 0.3-0.3 0.1-0.5 0.1-0.3 0-0.6-0.2z"/><path class="g" d="m239.8 172.4l-13.3-7.7q-0.2-0.2-0.5-0.4-0.2-0.3-0.3-0.6-0.1-0.3-0.2-0.6 0-0.3 0.1-0.7 0-0.3 0.2-0.5 0.1-0.2 0.4-0.3 0.2-0.2 0.5-0.1 0.3 0 0.5 0.1l13.3 7.7q0.3 0.2 0.5 0.4 0.2 0.3 0.3 0.6 0.2 0.3 0.2 0.6 0 0.4 0 0.7-0.1 0.3-0.2 0.5-0.2 0.2-0.5 0.4-0.2 0.1-0.5 0.1-0.3-0.1-0.5-0.2z"/><path class="g" d="m329.5 200.3l-7.7-4.4q-0.3-0.2-0.5-0.5-0.2-0.2-0.3-0.5-0.2-0.4-0.2-0.7 0-0.3 0-0.6 0.1-0.3 0.2-0.6 0.2-0.2 0.4-0.3 0.3-0.1 0.6-0.1 0.3 0 0.5 0.2l7.8 4.4q0.2 0.2 0.4 0.5 0.3 0.2 0.4 0.6 0.1 0.3 0.1 0.6 0.1 0.3 0 0.6 0 0.3-0.2 0.6-0.2 0.2-0.4 0.3-0.3 0.1-0.5 0.1-0.3 0-0.6-0.2z"/><path class="g" d="m335.1 174.2l-14.8-8.6q-0.3-0.2-0.5-0.4-0.2-0.3-0.3-0.6-0.2-0.3-0.2-0.6 0-0.3 0.1-0.7 0-0.3 0.1-0.5 0.2-0.2 0.5-0.3 0.2-0.2 0.5-0.1 0.3 0 0.5 0.1l14.8 8.6q0.3 0.2 0.5 0.4 0.2 0.3 0.4 0.6 0.1 0.3 0.1 0.6 0 0.4 0 0.7 0 0.3-0.2 0.5-0.2 0.2-0.4 0.4-0.3 0.1-0.6 0.1-0.2-0.1-0.5-0.2z"/><path class="g" d="m322.2 181.4l-4.9-2.8q-0.3-0.2-0.5-0.5-0.2-0.2-0.3-0.5-0.1-0.3-0.2-0.7 0-0.3 0.1-0.6 0-0.3 0.2-0.5 0.1-0.3 0.4-0.4 0.2-0.1 0.5-0.1 0.3 0 0.5 0.2l4.9 2.8q0.2 0.2 0.5 0.4 0.2 0.3 0.3 0.6 0.1 0.3 0.2 0.6 0 0.4-0.1 0.7 0 0.3-0.2 0.5-0.1 0.2-0.4 0.4-0.2 0.1-0.5 0.1-0.3-0.1-0.5-0.2z"/><path class="g" d="m317.4 193.3l-3.1-1.8q-0.3-0.1-0.5-0.4-0.2-0.2-0.3-0.6-0.1-0.3-0.2-0.6 0-0.3 0.1-0.7 0-0.2 0.2-0.5 0.1-0.2 0.4-0.3 0.2-0.1 0.5-0.1 0.3 0 0.5 0.2l3.1 1.8q0.3 0.1 0.5 0.4 0.2 0.3 0.4 0.6 0.1 0.3 0.1 0.6 0.1 0.3 0 0.7 0 0.2-0.2 0.5-0.2 0.2-0.4 0.3-0.3 0.1-0.6 0.1-0.2 0-0.5-0.2z"/><path class="g" d="m340.2 191.8l-13-7.5q-0.2-0.2-0.4-0.4-0.3-0.3-0.4-0.6-0.1-0.3-0.1-0.6-0.1-0.3 0-0.7 0-0.3 0.2-0.5 0.2-0.2 0.4-0.3 0.3-0.2 0.5-0.1 0.3 0 0.6 0.1l12.9 7.5q0.3 0.2 0.5 0.5 0.2 0.2 0.3 0.5 0.2 0.3 0.2 0.7 0 0.3 0 0.6-0.1 0.3-0.2 0.5-0.2 0.3-0.4 0.4-0.3 0.1-0.6 0.1-0.3 0-0.5-0.2z"/><path class="g" d="m341.4 185.1l-22.6-13q-0.3-0.2-0.5-0.4-0.2-0.3-0.3-0.6-0.1-0.3-0.2-0.6 0-0.4 0.1-0.7 0-0.3 0.1-0.5 0.2-0.2 0.5-0.4 0.2-0.1 0.5-0.1 0.3 0.1 0.5 0.2l22.6 13.1q0.3 0.1 0.5 0.4 0.2 0.3 0.3 0.6 0.2 0.3 0.2 0.6 0 0.3-0.1 0.7 0 0.2-0.1 0.5-0.2 0.2-0.5 0.3-0.2 0.1-0.5 0.1-0.3 0-0.5-0.2z"/><path class="g" d="m328.8 192.6l-13-7.5q-0.3-0.2-0.5-0.5-0.2-0.2-0.3-0.5-0.1-0.3-0.2-0.7 0-0.3 0.1-0.6 0-0.3 0.2-0.5 0.1-0.3 0.4-0.4 0.2-0.1 0.5-0.1 0.3 0 0.5 0.2l13 7.5q0.3 0.1 0.5 0.4 0.2 0.3 0.3 0.6 0.1 0.3 0.2 0.6 0 0.3-0.1 0.7 0 0.2-0.2 0.5-0.1 0.2-0.4 0.3-0.2 0.1-0.5 0.1-0.3 0-0.5-0.1z"/><path class="g" d="m328.4 207l-15.6-9q-0.3-0.2-0.5-0.4-0.2-0.3-0.3-0.6-0.1-0.3-0.2-0.6 0-0.3 0.1-0.7 0-0.2 0.2-0.5 0.1-0.2 0.4-0.3 0.2-0.2 0.5-0.1 0.3 0 0.5 0.1l15.6 9q0.3 0.2 0.5 0.5 0.2 0.2 0.3 0.5 0.2 0.3 0.2 0.7 0 0.3 0 0.6-0.1 0.3-0.2 0.5-0.2 0.3-0.5 0.4-0.2 0.1-0.5 0.1-0.3 0-0.5-0.2z"/><path class="b" d="m363.3 113.7l12.2-4.8-2.8-18-5.9 5.2z"/><path class="b" d="m281.4 29.8l29.5-11.8c0 0-5.4 11.8-5.4 11.8 0 0-15.8 3.6-15.8 3.6z"/><path class="b" d="m374.1 78.8q-0.6-0.4-1.2-0.6-0.5-0.3-1.1-0.5-0.6-0.2-1.3-0.3-0.6-0.2-1.2-0.3c1.6-10.9-3.1-22.3-12.1-27.6q-1-0.5-2-1-1-0.4-2.1-0.8-1.1-0.3-2.2-0.5-1-0.2-2.2-0.3c3.6-13.2-1.9-28.2-13-34.6q-2-1.2-4.2-1.9-2.2-0.8-4.4-1-2.3-0.2-4.6 0.1-2.3 0.3-4.5 1.1l-0.2 0.1q-0.2 0.1-0.4 0.1l-9.3 3.7 3.7 3.2c-5 1.5-9.4 5.6-11.6 11.6-4.3 11 0.1 24.5 9.6 30l56.8 47.9c7.2 4.1 11.6 2.4 14.7-5.9 3.2-8.3-0.1-18.4-7.2-22.5z"/><path class="b" d="m302.7 24.4l31.9-12.7q-1.9-1-4-1.6-2-0.6-4.2-0.7-2.1-0.2-4.2 0.1-2.1 0.3-4.2 1.1l-0.2 0.1q-0.2 0.1-0.4 0.1l-9.3 3.7 3.7 3.2q-1.4 0.4-2.7 1.1-1.2 0.6-2.4 1.5-1.1 0.9-2.1 1.9-1 1-1.9 2.2z"/><path class="b" d="m347.1 72.2l21-8.4q-0.6-2.2-1.7-4.3-1-2-2.5-3.9-1.4-1.8-3.1-3.4-1.7-1.5-3.7-2.7-0.3-0.2-0.6-0.3-0.2-0.2-0.5-0.3-0.2-0.1-0.5-0.3-0.3-0.1-0.6-0.2l-28.9 11.6z"/><path class="b" d="m314.5 15.8l9.1 5.2 15.7-6.2q-0.5-0.4-0.9-0.7-0.4-0.3-0.9-0.6-0.4-0.4-0.9-0.7-0.4-0.2-0.9-0.5-0.7-0.4-1.5-0.8-0.7-0.4-1.5-0.7-0.8-0.3-1.5-0.5-0.8-0.3-1.6-0.5z"/><path class="b" d="m366.8 60.3l-15.2 6 4.5 6.3 13-5.2q-0.2-0.9-0.4-1.8-0.3-0.9-0.5-1.8-0.3-0.9-0.7-1.8-0.3-0.8-0.7-1.7z"/><path class="g" d="m363.9 82.7q-0.5-0.3-1.1-0.5-0.6-0.3-1.2-0.5-0.6-0.2-1.2-0.4-0.6-0.1-1.2-0.2c1.6-10.9-3.2-22.4-12.3-27.6q-0.9-0.6-1.9-1.1-1-0.4-2.1-0.7-1-0.4-2.1-0.6-1.1-0.2-2.2-0.2c3.5-13.2-1.9-28.2-13-34.6-12-7-26-1.4-31.3 12.5q-0.3 0.7-0.5 1.4c-9.1-4.1-19.2 0.5-23.2 10.9-4.2 11 0.1 24.5 9.7 30l72.2 41.7c7.1 4.1 15.5 0.8 18.7-7.5 3.2-8.3-0.1-18.4-7.3-22.6z"/><path class="e" d="m365.4 81.9q-0.5-0.3-1.1-0.6-0.6-0.2-1.2-0.4-0.6-0.3-1.2-0.4-0.6-0.1-1.3-0.2c1.7-10.9-3.2-22.5-12.2-27.7q-0.9-0.5-1.9-1-1-0.4-2.1-0.8-1-0.3-2.1-0.5-1.1-0.2-2.2-0.3c3.5-13.2-1.9-28.1-13.1-34.6q-2.4-1.4-5.1-2.2-2.7-0.7-5.5-0.7-2.9 0-5.6 0.8-2.7 0.7-5.1 2.2 2.3-1.2 4.9-1.7 2.5-0.6 5.1-0.5 2.6 0.1 5.1 0.9 2.5 0.7 4.8 2.1c11.1 6.4 16.5 21.4 13 34.6q1.1 0 2.2 0.2 1.1 0.3 2.1 0.6 1.1 0.3 2.1 0.7 1 0.5 1.9 1.1c9.1 5.2 13.9 16.7 12.3 27.6q0.6 0.1 1.2 0.2 0.6 0.2 1.2 0.4 0.6 0.2 1.2 0.5 0.6 0.2 1.1 0.6c7.2 4.1 10.5 14.2 7.3 22.5q-0.4 1.1-1 2.1-0.5 1-1.2 1.9-0.8 1-1.6 1.8-0.9 0.8-1.8 1.4 1.2-0.6 2.3-1.5 1.1-0.8 2-1.8 0.9-1.1 1.6-2.3 0.7-1.2 1.2-2.5c3.2-8.3-0.1-18.3-7.3-22.5z"/><path class="e" d="m293.8 30.2q0.2-0.6 0.5-1.2-1.8-0.7-3.7-1-1.8-0.2-3.7 0-1.9 0.2-3.6 0.8-1.8 0.6-3.4 1.6 1.6-0.8 3.4-1.2 1.7-0.4 3.5-0.5 1.8 0 3.6 0.4 1.8 0.3 3.4 1.1z"/><path class="A" d="m285.7 32.4q-0.5 0-1 0-0.5 0-1 0.1-0.5 0.1-0.9 0.3-0.5 0.1-0.9 0.3c-2.9 1.3-5.4 4.2-6.8 8-3.8 9.7 0.2 22 8.6 26.8l72.2 41.7q0.7 0.5 1.5 0.8 0.8 0.3 1.6 0.4 0.8 0.1 1.7 0.1 0.8-0.1 1.6-0.4c1.8-0.7 3.5-2.6 4.5-5.2 2.6-7-0.2-15.9-6.3-19.4q-0.4-0.2-0.8-0.4-0.4-0.2-0.8-0.4-0.5-0.1-0.9-0.2-0.5-0.1-0.9-0.2l-2.9-0.4 0.3-2.5c1.5-10.1-3.1-20.6-11-25.2q-0.7-0.5-1.5-0.8-0.8-0.4-1.7-0.6-0.8-0.3-1.7-0.5-0.8-0.1-1.7-0.2l-3.6-0.2 0.8-3.1c3.2-12.1-2-26.1-12-31.8-4.6-2.7-9.4-3.2-13.7-1.5-4.2 1.7-7.6 5.5-9.7 10.9q-0.2 0.6-0.4 1.2l-1.9 6-5.7-2.5q-0.6-0.3-1.2-0.5-0.6-0.2-1.3-0.3-0.6-0.2-1.2-0.3-0.7 0-1.3 0z"/><path class="c" d="m321 78.7l2.5-1-1.9-1.4z"/><path class="B" d="m319.8 51.8l2.4-1-0.2 1z"/><path class="c" d="m328.8 72.4l2.6-1-3.7-3.7z"/><path class="c" d="m322.9 77.7l-9.7-5.6q-0.2-0.1-0.3-0.3-0.2-0.2-0.2-0.4-0.1-0.2-0.2-0.4 0-0.2 0.1-0.5l2.3-10.9 11.4 6.6-2.3 10.9q0 0.2-0.1 0.4-0.2 0.1-0.3 0.2-0.2 0.1-0.4 0.1-0.2 0-0.3-0.1z"/><path class="c" d="m322.2 50.8l-13 6.6c-0.6 0.3-0.4 1.3 0.3 1.7l10.6 6.1 10.6 6.2c0.7 0.4 1.2-0.3 0.9-1.1l-7.7-18.5c-0.4-0.8-1.2-1.3-1.7-1z"/><path class="e" d="m320.3 78.7l-9.6-5.6q-0.2-0.1-0.3-0.3-0.2-0.1-0.3-0.4-0.1-0.2-0.1-0.4 0-0.2 0-0.5l2.4-10.9 11.4 6.6-2.4 10.9q0 0.2-0.1 0.4-0.1 0.1-0.2 0.2-0.2 0.1-0.4 0.1-0.2 0-0.4-0.1z"/><path class="e" d="m319.6 51.9l-13 6.5c-0.5 0.3-0.3 1.3 0.3 1.7l10.7 6.1 10.6 6.2c0.7 0.4 1.2-0.3 0.9-1l-7.8-18.6c-0.3-0.8-1.1-1.2-1.7-0.9z"/><path class="f" d="m76 296.6l38.5-22.1c3-1.7 8.3-1.5 11.8 0.5l79 45.8c3.5 2.1 3.9 5.1 0.9 6.9l-38.6 22.1c-3 1.7-8.3 1.5-11.8-0.5l-79-45.8c-3.5-2.1-3.8-5.1-0.8-6.9z"/><path class="c" d="m169.2 342.5l39.4-22.7q0.6-0.2 1-0.6 0.5-0.4 0.8-0.9 0.4-0.5 0.6-1 0.2-0.6 0.3-1.2v-6.8l-1.3 2.2q-0.2-0.3-0.5-0.6-0.3-0.2-0.6-0.5-0.3-0.2-0.7-0.5-0.3-0.2-0.7-0.4l-79.4-46c-4.5-2.7-11.3-3-15.2-0.7l-39.4 22.6q-0.2 0.1-0.3 0.2-0.2 0.1-0.3 0.2-0.1 0.1-0.3 0.2-0.1 0.1-0.2 0.2l-1.5-1.9-0.1 6.4c0 1.7 1.2 3.6 3.7 5.1l79.5 46c4.5 2.6 11.3 2.9 15.2 0.7z"/><path class="g" d="m73.5 280.4l39.4-22.7c3.9-2.2 10.8-1.9 15.3 0.7l79.4 46.1c4.5 2.6 5 6.5 1 8.8l-39.4 22.6c-3.9 2.3-10.7 2-15.2-0.6l-79.4-46.1c-4.5-2.6-5-6.6-1.1-8.8z"/><path class="e" d="m208.6 313.3l-39.4 22.6c-3.9 2.3-10.7 2-15.2-0.6l-79.4-46.1c-2.2-1.3-3.4-2.8-3.7-4.4-0.3 1.9 0.9 4 3.7 5.6l79.4 46c4.5 2.6 11.3 2.9 15.2 0.7l39.4-22.7c2.1-1.1 2.9-2.7 2.6-4.4q-0.1 0.5-0.3 1-0.3 0.5-0.6 0.9-0.3 0.5-0.7 0.8-0.5 0.3-1 0.6z"/><path class="e" d="m76 281.3l38.5-22.1c3-1.8 8.3-1.5 11.8 0.5l79 45.8c3.5 2 3.9 5.1 0.9 6.9l-38.6 22.1c-3 1.7-8.3 1.5-11.8-0.5l-79-45.9c-3.5-2-3.8-5-0.8-6.8z"/><path class="f" d="m138 289.4l-14.2-8.3c-0.5-0.3-0.5-0.8 0.1-1.2q0.3-0.1 0.5-0.2 0.3 0 0.6 0 0.2-0.1 0.5 0 0.3 0 0.5 0.2l14.3 8.2c0.5 0.3 0.4 0.8-0.2 1.2q-0.2 0.1-0.5 0.2-0.2 0.1-0.5 0.1-0.3 0-0.6-0.1-0.2 0-0.5-0.1z"/><path class="f" d="m124.5 286.6l-5.1-3c-0.5-0.3-0.4-0.8 0.2-1.2q0.2-0.1 0.5-0.2 0.2 0 0.5 0 0.3 0 0.5 0 0.3 0.1 0.6 0.2l5 2.9c0.6 0.3 0.5 0.8-0.1 1.2q-0.2 0.1-0.5 0.2-0.3 0.1-0.5 0.1-0.3 0-0.6-0.1-0.2 0-0.5-0.1z"/><path class="k" d="m133.1 291.5l-5.1-2.9c-0.6-0.3-0.5-0.9 0.1-1.2q0.3-0.2 0.5-0.2 0.3-0.1 0.5-0.1 0.3 0 0.6 0 0.2 0.1 0.5 0.2l5.1 2.9c0.5 0.3 0.4 0.9-0.2 1.2q-0.2 0.1-0.5 0.2-0.2 0.1-0.5 0.1-0.3 0-0.5 0-0.3-0.1-0.5-0.2z"/><path class="f" d="m150.3 301.5l-13.8-8c-0.5-0.3-0.5-0.8 0.2-1.2q0.2-0.1 0.5-0.2 0.2-0.1 0.5-0.1 0.2 0 0.5 0.1 0.3 0 0.5 0.1l13.8 8c0.6 0.3 0.5 0.8-0.1 1.2q-0.3 0.1-0.5 0.2-0.3 0.1-0.5 0.1-0.3 0-0.6-0.1-0.2 0-0.5-0.1z"/><path class="f" d="m132.9 296.4l-17.8-10.3c-0.5-0.3-0.5-0.8 0.2-1.1q0.2-0.2 0.4-0.2 0.3-0.1 0.6-0.1 0.2 0 0.5 0 0.3 0.1 0.5 0.2l17.8 10.3c0.6 0.3 0.5 0.8-0.1 1.1q-0.3 0.2-0.5 0.2-0.3 0.1-0.5 0.1-0.3 0-0.6 0-0.2-0.1-0.5-0.2z"/><path class="C" d="m154.3 313.8l-43.5-25.1c-0.6-0.4-0.5-0.9 0.1-1.2q0.2-0.2 0.5-0.2 0.3-0.1 0.5-0.1 0.3 0 0.6 0 0.2 0.1 0.5 0.2l43.5 25.1c0.6 0.3 0.5 0.9-0.1 1.2q-0.2 0.2-0.5 0.2-0.3 0.1-0.5 0.1-0.3 0-0.6 0-0.2-0.1-0.5-0.2z"/><path class="f" d="m167 306.1l-25-14.5c-0.6-0.3-0.5-0.8 0.1-1.2q0.3-0.1 0.5-0.2 0.3 0 0.5 0 0.3-0.1 0.6 0 0.2 0 0.5 0.2l25.1 14.4c0.5 0.3 0.4 0.9-0.2 1.2q-0.2 0.2-0.5 0.2-0.2 0.1-0.5 0.1-0.3 0-0.5 0-0.3-0.1-0.6-0.2z"/><path class="g" d="m136.3 329.7l-3.6-2.1q-0.2-0.1-0.3-0.2-0.1-0.2-0.2-0.3-0.1-0.2-0.1-0.4-0.1-0.1-0.1-0.3c0-0.5 0.3-0.7 0.7-0.5l3.6 2.1q0.2 0.1 0.3 0.2 0.1 0.2 0.2 0.3 0.1 0.2 0.1 0.4 0.1 0.2 0.1 0.3c0 0.5-0.3 0.8-0.7 0.5z"/><path class="g" d="m142.1 333.1l-3.7-2.1q-0.1-0.1-0.2-0.3-0.2-0.1-0.2-0.3-0.1-0.1-0.2-0.3 0-0.2 0-0.4c0-0.5 0.3-0.7 0.6-0.5l3.7 2.1q0.2 0.1 0.3 0.3 0.1 0.1 0.2 0.3 0.1 0.1 0.1 0.3 0.1 0.2 0.1 0.4c0 0.5-0.3 0.7-0.7 0.5z"/></svg>