<svg version="1.2" xmlns="http://www.w3.org/2000/svg" viewBox="0 0 491 70" width="491" height="70">
	<title>maxcloudhost-logo-svg</title>
	<style>
		.s0 { fill: #031d5b } 
		.s1 { fill: #377dff } 
	</style>
	<path id="Layer" fill-rule="evenodd" class="s0" d="m455.9 33.2h-10.3q0.1-0.3 0.8-1.6 0.8-1.2 1.8-2.7 1-1.5 2-3 1.1-1.4 1.9-2h27.3q-0.4 1-1.3 2.5-0.9 1.6-1.9 3.1-1 1.5-2 2.6-0.9 1.1-1.4 1.1h-6.4l-7.8 27.3h-10.5zm-26.6 15.7v-0.4q0-0.5-0.2-1.1-0.1-0.6-0.6-0.6h-10.8q-1.7 0-3-1-1.3-1-2.3-2.6-0.9-1.5-1.4-3.4-0.5-1.9-0.5-3.7 0-1.6 0.8-3.7 0.7-2.1 1.9-4 1.2-1.9 2.8-3.2 1.5-1.3 3-1.3h27.8q-1.3 2.4-2.9 4.7-1.6 2.4-3.5 4.7h-18q-0.6 0-1 1-0.5 1.1-0.5 1.7v0.3q0 0.1 0.2 0.4 0.3 0.2 0.4 0.3 0.2 0.3 0.6 0.6 0.4 0.2 0.5 0.2h10.3q1.8 0 3.1 1.1 1.2 1 2 2.7 0.8 1.6 1.1 3.5 0.4 1.8 0.4 3.4v0.4q0 1.8-0.7 3.9-0.6 2-1.7 3.7-1 1.8-2.4 2.9-1.4 1.1-2.9 1.1h-27.8q0.3-0.6 1.2-2.2 0.8-1.5 1.8-3 0.9-1.6 1.7-2.8 0.8-1.2 1-1.2h18.5q0.8 0 1-0.6 0.1-0.7 0.1-1.4v-0.4zm-23.9-0.7q-1.6 3.6-4 6.3-2.4 2.7-5.4 4.4-3.1 1.6-6.3 1.6h-6.4q-3 0-5.6-0.6-2.5-0.6-4.4-2.1-1.8-1.5-2.9-4-1.1-2.6-1.1-6.5 0-0.8 0.1-1.7 0.1-0.9 0.2-1.9 0.3-3.7 1.9-7.2 1.6-3.6 3.9-6.4 2.4-2.8 5.2-4.5 2.9-1.7 5.7-1.7h8.2q3.1 0 5.5 0.7 2.5 0.8 4.2 2.3 1.8 1.5 2.7 4 0.9 2.4 0.9 5.8 0 1 0 1.9-0.1 1-0.3 2.1-0.5 3.9-2.1 7.5zm-25.7-4.9v0.4q0 1.2 0.4 2.6 0.4 1.3 1.1 2.4 0.6 1.1 1.5 1.8 0.9 0.7 1.8 0.7h4.6q0.5 0 1.4-0.6 1-0.6 2.1-1.5 1.1-1 2.2-2.2 1-1.2 1.5-2.4 0.4-1 0.6-1.5l0.2-0.7q0.1-0.7 0.1-0.6 0-0.6 0.1-1.2 0-0.6 0-1.2 0-1.1-0.2-2.2-0.1-1.1-0.6-2-0.5-0.8-1.4-1.3-0.8-0.6-2.2-0.6h-5.3q-0.9 0-1.9 0.6-1 0.6-2 1.6-1 0.9-1.8 2.2-0.8 1.2-1.3 2.3-0.3 0.9-0.5 1.6-0.2 0.7-0.3 1.3 0 0-0.1 0.5zm-40.1-19.4h10.5l-6.2 21.4 5.6-7.2h8.2l4.1-14.2h10.4l-10.5 36.6h-10.4l3.8-13.1h-11.8l-3.7 13.1h-10.5zm-9.4 20.2q-2.3 4.5-4.7 7.6-2.4 3.2-5.1 5.1-2.8 2-6.1 2.9-3.2 0.9-7.5 0.9h-13.6l10.6-36.7h23.6q3.3 0 4.8 2.3 1.5 2.3 1.5 5.8 0 2.7-0.9 5.9-0.9 3.3-2.6 6.2zm-18.5-10.8l-5.2 18h1.4q1.5 0 3.2-0.8 1.7-0.7 3.4-1.9 1.7-1.1 3.2-2.6 1.4-1.5 2.2-3 0.4-0.6 0.8-1.3 0.4-0.7 0.6-1.6 0.4-1.1 0.7-2.1 0.3-1.1 0.3-2 0-1.1-0.4-1.9-0.4-0.8-1.4-0.8h-8.8q0 0 0 0zm-49.4 6l4.3-15.4h10.3q-1.9 7.1-2.9 11-1.1 3.9-1.6 5.8-0.5 2-0.6 2.5-0.1 0.5-0.1 0.7-0.2 1.4-0.2 2.2 0 2.5 1 3.8 1.1 1.4 2.3 1.4h2.7q1.3 0 2.4-0.7 1.1-0.7 2-1.8 0.9-1 1.5-2.2 0.7-1.1 1.1-2.1l5.9-20.6h10.3l-4.9 17.1q-1.4 4.8-2.8 8.4-1.4 3.7-3.2 6.1-1.8 2.5-4.1 3.8-2.4 1.3-5.6 1.3h-6.4q-3.9 0-6.4-0.6-2.6-0.6-4.1-1.8-1.5-1.3-2.2-3.2-0.7-2-0.7-4.8 0-0.7 0.1-1.5 0.1-0.8 0.2-1.7 0.2-1.8 0.7-3.6 0.5-1.8 1-4.1zm-5.7 8.9q-1.7 3.6-4 6.3-2.4 2.8-5.5 4.4-3 1.7-6.3 1.7h-6.3q-3 0-5.6-0.6-2.5-0.7-4.4-2.1-1.9-1.5-2.9-4.1-1.1-2.5-1.1-6.4 0-0.8 0.1-1.7 0-0.9 0.1-1.9 0.4-3.7 2-7.3 1.6-3.6 3.9-6.4 2.4-2.8 5.2-4.5 2.8-1.7 5.7-1.7h8.1q3.1 0 5.6 0.8 2.4 0.7 4.2 2.2 1.7 1.5 2.7 4 0.9 2.4 0.9 5.8 0 1-0.1 2 0 0.9-0.2 2-0.5 3.9-2.1 7.5zm-25.7-4.9v0.4q0 1.3 0.4 2.6 0.4 1.4 1 2.5 0.7 1.1 1.6 1.8 0.8 0.7 1.8 0.7h4.5q0.5 0 1.5-0.6 1-0.6 2.1-1.6 1.1-1 2.1-2.2 1-1.2 1.5-2.3 0.5-1 0.6-1.6l0.2-0.7q0.2-0.7 0.2-0.6 0-0.5 0-1.1 0.1-0.6 0.1-1.2 0-1.1-0.2-2.2-0.2-1.2-0.7-2-0.4-0.9-1.3-1.4-0.8-0.5-2.2-0.5h-5.3q-0.9 0-1.9 0.6-1 0.6-2 1.5-1 1-1.8 2.2-0.9 1.2-1.4 2.4-0.2 0.8-0.4 1.5-0.3 0.8-0.3 1.3-0.1 0.1-0.1 0.5zm-43.6 17.3l10.5-36.7h10.4l-7.8 27.4h17.2q0.1 0-0.6 1.1-0.7 1.2-1.7 2.8-1 1.5-2.2 3.1-1.1 1.5-1.9 2.3zm-29-16.8v-0.1q0-3.4 1.2-6.9 1.1-3.5 3.1-6.4 1.9-2.8 4.5-4.6 2.6-1.9 5.4-1.9h22.5q-1.5 2.7-3.1 5-1.7 2.3-3.6 4.4h-14.1q-0.7 0-1.5 0.6-0.8 0.6-1.5 1.5-0.8 1-1.4 2.2-0.6 1.2-0.9 2.4-0.4 1.8-0.4 2.8 0 1.3 0.5 2.8 0.5 1.5 1.4 2.8 0.8 1.2 1.8 2 1.1 0.9 2 0.9h13q-1.3 2.3-2.8 4.8-1.6 2.4-3.7 4.5h-4.3q-3.4 0-6.6-0.8-3.2-0.7-5.8-2.6-2.6-1.9-4.1-5.2-1.6-3.2-1.6-8.2zm-39.4 16.8l16.4-18.4-5.8-18.3h11.7l2.7 8.7 7.7-8.7h11.7l-16.3 18.3 5.8 18.4h-11.6l-2.8-8.8-7.8 8.8zm-11.7 0l-1.1-7.8q-0.2 0.4-0.8 1.6-0.7 1.1-1.6 2.5-0.8 1.3-1.6 2.4-0.8 1.1-1.2 1.3h-23.1q0.1-0.6 0.1-0.5v-0.2l19.7-31.8q0.1-0.4 0.6-1.1 0.5-0.7 1.1-1.4 0.5-0.6 1.1-1.1 0.6-0.6 1-0.6h9.1q0.6 0 1 0.8 0.5 0.8 0.8 1.9 0.3 1.1 0.6 2.3 0.2 1.2 0.4 2l3.6 29.7zm-12.2-9.3h11l-1.9-16.2-9.1 15.5zm-61.3 9l15.1-34.2h15.9l-15.5 34.2z"/>
	<path id="Layer" class="s1" d="m25.5 60.3l15.5-34.2h-15.9l-15.1 34.2zm59.7-54.3l-50.6 0.1-5.4 11.8 41.8 0.1c3.7 0 5.1 1.2 3.6 4.5l-17.2 38h15.6l19.6-43.1c3.5-7.6 1.4-11.4-7.4-11.4z"/>
</svg>