<svg xmlns="http://www.w3.org/2000/svg" fill="none" viewBox="0 0 32 32" id="SecurityBadge"><path fill="#377dff" d="M16 17.5C16.2761 17.5 16.5 17.2761 16.5 17C16.5 16.7239 16.2761 16.5 16 16.5C15.7239 16.5 15.5 16.7239 15.5 17C15.5 17.2761 15.7239 17.5 16 17.5Z" class="color000000 svgShape"></path><path fill="#377dff" fill-rule="evenodd" d="M13 20V14H14V12.5C14 11.3954 14.8954 10.5 16 10.5C17.1046 10.5 18 11.3954 18 12.5V14H19V20H13ZM14 19V15H18V19H14ZM17 12.5V14H15V12.5C15 11.9477 15.4477 11.5 16 11.5C16.5523 11.5 17 11.9477 17 12.5Z" clip-rule="evenodd" class="color000000 svgShape"></path><path fill="#377dff" fill-rule="evenodd" d="M13.1364 9.14286L9 8.57143L9.48763 17.7666C9.58 19.5085 10.5734 21.0763 12.109 21.9036L16 24L19.3964 22.1701C21.2391 21.1773 22.4313 19.2959 22.5421 17.2057L23 8.57143L18.8636 9.14286L16 8L13.1364 9.14286ZM16 9.0767L13.2614 10.1696L10.0627 9.72774L10.4862 17.7137C10.5601 19.1072 11.3549 20.3614 12.5834 21.0233L16 22.8641L18.9221 21.2897C20.4577 20.4624 21.4512 18.8946 21.5435 17.1527L21.9373 9.72774L18.7386 10.1696L16 9.0767Z" clip-rule="evenodd" class="color000000 svgShape"></path><path fill="#377dff" fill-rule="evenodd" d="M11.5 4L5 3L5.87272 21.3271C5.95224 22.997 6.86106 24.5166 8.29458 25.3767L16 30L23.2465 25.6521C24.9667 24.62 26.0573 22.7964 26.1527 20.7925L27 3L20.5 4L16 2L11.5 4ZM16 3.09432L11.638 5.03299L6.05706 4.17439L6.87159 21.2795C6.9352 22.6154 7.66226 23.8312 8.80908 24.5193L16 28.8338L22.732 24.7946C24.1655 23.9345 25.0744 22.4148 25.1539 20.745L25.9429 4.17439L20.362 5.03299L16 3.09432Z" clip-rule="evenodd" class="color000000 svgShape"></path></svg>