<svg xmlns="http://www.w3.org/2000/svg" xmlns:xlink="http://www.w3.org/1999/xlink" viewBox="0 0 64 64" id="ServerUptime">
  <defs>
    <linearGradient id="a" x1="-.625" x2="63.057" y1="63.529" y2=".696" gradientUnits="userSpaceOnUse">
      <stop offset="0" stop-color="#0059ff" class="stopColorfff200 svgShape"></stop>
      <stop offset="1" stop-color="#377dff" class="stopColorcd118c svgShape"></stop>
    </linearGradient>
    <linearGradient xlink:href="#a" id="b" x1="-2.709" x2="60.974" y1="61.418" y2="-1.416"></linearGradient>
    <linearGradient xlink:href="#a" id="c" x1="17.117" x2="80.8" y1="81.511" y2="18.678"></linearGradient>
    <linearGradient xlink:href="#a" id="d" x1="17.03" x2="80.713" y1="81.423" y2="18.59"></linearGradient>
    <linearGradient xlink:href="#a" id="e" x1="13.044" x2="76.727" y1="77.383" y2="14.55"></linearGradient>
    <linearGradient xlink:href="#a" id="f" x1="2.192" x2="65.874" y1="66.384" y2="3.551"></linearGradient>
    <linearGradient xlink:href="#a" id="g" x1="8.571" x2="72.254" y1="72.85" y2="10.016"></linearGradient>
    <linearGradient xlink:href="#a" id="h" x1="1.665" x2="65.348" y1="65.851" y2="3.017"></linearGradient>
    <linearGradient xlink:href="#a" id="i" x1="19.57" x2="83.253" y1="83.998" y2="21.164"></linearGradient>
    <linearGradient xlink:href="#a" id="j" x1="19.043" x2="82.726" y1="83.464" y2="20.63"></linearGradient>
    <linearGradient xlink:href="#a" id="k" x1="4.205" x2="67.887" y1="68.425" y2="5.591"></linearGradient>
    <linearGradient xlink:href="#a" id="l" x1="8.191" x2="71.874" y1="72.465" y2="9.631"></linearGradient>
    <linearGradient xlink:href="#a" id="m" x1="12.664" x2="76.347" y1="76.998" y2="14.165"></linearGradient>
    <linearGradient xlink:href="#a" id="n" x1="10.681" x2="74.363" y1="74.988" y2="12.155"></linearGradient>
    <linearGradient xlink:href="#a" id="o" x1="-19.626" x2="44.056" y1="44.271" y2="-18.562"></linearGradient>
    <linearGradient xlink:href="#a" id="p" x1="-14.447" x2="49.236" y1="49.521" y2="-13.313"></linearGradient>
    <linearGradient xlink:href="#a" id="q" x1="-16.627" x2="47.056" y1="47.312" y2="-15.522"></linearGradient>
    <linearGradient xlink:href="#a" id="r" x1="-14.654" x2="49.029" y1="49.311" y2="-13.522"></linearGradient>
    <linearGradient xlink:href="#a" id="s" x1="-12.68" x2="51.002" y1="51.311" y2="-11.522"></linearGradient>
    <linearGradient xlink:href="#a" id="t" x1="-8.487" x2="55.195" y1="55.561" y2="-7.273"></linearGradient>
    <linearGradient xlink:href="#a" id="u" x1="-13.627" x2="50.056" y1="50.352" y2="-12.482"></linearGradient>
    <linearGradient xlink:href="#a" id="v" x1="-11.654" x2="52.029" y1="52.352" y2="-10.482"></linearGradient>
    <linearGradient xlink:href="#a" id="w" x1="-9.681" x2="54.002" y1="54.352" y2="-8.482"></linearGradient>
    <linearGradient xlink:href="#a" id="x" x1="-5.488" x2="58.195" y1="58.601" y2="-4.232"></linearGradient>
    <linearGradient xlink:href="#a" id="y" x1="-10.627" x2="53.055" y1="53.392" y2="-9.441"></linearGradient>
    <linearGradient xlink:href="#a" id="z" x1="-8.654" x2="55.028" y1="55.392" y2="-7.441"></linearGradient>
    <linearGradient xlink:href="#a" id="A" x1="-6.681" x2="57.002" y1="57.392" y2="-5.442"></linearGradient>
    <linearGradient xlink:href="#a" id="B" x1="-3.228" x2="60.455" y1="60.891" y2="-1.942"></linearGradient>
    <linearGradient xlink:href="#a" id="C" x1="-7.627" x2="56.055" y1="56.432" y2="-6.401"></linearGradient>
    <linearGradient xlink:href="#a" id="D" x1="-5.654" x2="58.028" y1="58.432" y2="-4.401"></linearGradient>
    <linearGradient xlink:href="#a" id="E" x1="-3.681" x2="60.001" y1="60.432" y2="-2.401"></linearGradient>
    <linearGradient xlink:href="#a" id="F" x1="-.228" x2="63.454" y1="63.932" y2="1.098"></linearGradient>
    <linearGradient xlink:href="#a" id="G" x1="-4.628" x2="59.055" y1="59.473" y2="-3.361"></linearGradient>
    <linearGradient xlink:href="#a" id="H" x1="-2.655" x2="61.028" y1="61.473" y2="-1.361"></linearGradient>
    <linearGradient xlink:href="#a" id="I" x1="-.681" x2="63.001" y1="63.472" y2=".639"></linearGradient>
    <linearGradient xlink:href="#a" id="J" x1="3.265" x2="66.947" y1="67.472" y2="4.639"></linearGradient>
    <linearGradient xlink:href="#a" id="K" x1="-1.628" x2="62.055" y1="62.513" y2="-.32"></linearGradient>
    <linearGradient xlink:href="#a" id="L" x1=".345" x2="64.028" y1="64.513" y2="1.679"></linearGradient>
    <linearGradient xlink:href="#a" id="M" x1="2.318" x2="66.001" y1="66.513" y2="3.679"></linearGradient>
    <linearGradient xlink:href="#a" id="N" x1="6.511" x2="70.194" y1="70.762" y2="7.929"></linearGradient>
    <linearGradient xlink:href="#a" id="O" x1="-9.267" x2="54.415" y1="54.77" y2="-8.063"></linearGradient>
  </defs>
  <path fill="url(#a)" d="M49.72,24.67,49.13,20H52a.987.987,0,0,0,.92-.62,1,1,0,0,0-.21-1.09l-7-7a1.008,1.008,0,0,0-1.42,0l-7,7a1,1,0,0,0-.21,1.09A.987.987,0,0,0,38,20h2.87l-.59,4.67A16.976,16.976,0,0,0,33,28.97V15a1,1,0,0,0-1-1H3a1,1,0,0,0-1,1V57a1,1,0,0,0,1,1H32a1,1,0,0,0,1-1V53.03A17,17,0,1,0,49.72,24.67ZM40.41,18,45,13.41,49.59,18H48a.981.981,0,0,0-.75.34.968.968,0,0,0-.24.78L47.87,26H42.13l.86-6.88a.968.968,0,0,0-.24-.78A.981.981,0,0,0,42,18ZM4,16H31v4H4Zm0,6H31v4H4Zm0,6H31v3.37c-.14.21-.28.42-.41.63H4Zm0,6H29.51a17.051,17.051,0,0,0-1.24,4H4Zm0,6H28.04c-.02.33-.04.66-.04,1a17.432,17.432,0,0,0,.28,3H4Zm0,6H28.75a17.331,17.331,0,0,0,1.85,4H4ZM31,56H4V52H31Zm14,0a15,15,0,0,1-4.99-29.15v.03a.968.968,0,0,0,.24.78A.981.981,0,0,0,41,28h8a.981.981,0,0,0,.75-.34.968.968,0,0,0,.24-.78v-.03A15,15,0,0,1,45,56Z"></path>
  <path fill="url(#b)" d="M45,8.338l8.336,7.409,1.328-1.494-9-8a1,1,0,0,0-1.328,0l-9,8,1.328,1.494Z"></path>
  <rect width="2" height="2" x="44" y="53" fill="url(#c)"></rect>
  <rect width="2" height="2" x="57" y="40" fill="url(#d)"></rect>
  <rect width="2" height="2" x="55" y="34" fill="url(#e)"></rect>
  <rect width="2" height="2" x="33" y="34" fill="url(#f)"></rect>
  <rect width="2" height="2" x="51" y="29" fill="url(#g)"></rect>
  <rect width="2" height="2" x="37" y="29" fill="url(#h)"></rect>
  <rect width="2" height="2" x="51" y="51" fill="url(#i)"></rect>
  <rect width="2" height="2" x="55" y="46" fill="url(#j)"></rect>
  <rect width="2" height="2" x="31" y="40" fill="url(#k)"></rect>
  <rect width="2" height="2" x="33" y="46" fill="url(#l)"></rect>
  <rect width="2" height="2" x="37" y="51" fill="url(#m)"></rect>
  <path fill="url(#n)" d="M48,41a3,3,0,0,0-2-2.816V29H44v9.184a2.992,2.992,0,0,0,1.647,5.742l3.505,5.6,1.7-1.06-3.511-5.612A2.968,2.968,0,0,0,48,41Zm-4,0a1,1,0,1,1,1,1A1,1,0,0,1,44,41Z"></path>
  <rect width="2" height="2" x="6" y="17" fill="url(#o)"></rect>
  <rect width="15" height="2" x="10" y="17" fill="url(#p)"></rect>
  <rect width="2" height="2" x="6" y="23" fill="url(#q)"></rect>
  <rect width="2" height="2" x="10" y="23" fill="url(#r)"></rect>
  <rect width="2" height="2" x="14" y="23" fill="url(#s)"></rect>
  <rect width="11" height="2" x="18" y="23" fill="url(#t)"></rect>
  <rect width="2" height="2" x="6" y="29" fill="url(#u)"></rect>
  <rect width="2" height="2" x="10" y="29" fill="url(#v)"></rect>
  <rect width="2" height="2" x="14" y="29" fill="url(#w)"></rect>
  <rect width="11" height="2" x="18" y="29" fill="url(#x)"></rect>
  <rect width="2" height="2" x="6" y="35" fill="url(#y)"></rect>
  <rect width="2" height="2" x="10" y="35" fill="url(#z)"></rect>
  <rect width="2" height="2" x="14" y="35" fill="url(#A)"></rect>
  <rect width="8" height="2" x="18" y="35" fill="url(#B)"></rect>
  <rect width="2" height="2" x="6" y="41" fill="url(#C)"></rect>
  <rect width="2" height="2" x="10" y="41" fill="url(#D)"></rect>
  <rect width="2" height="2" x="14" y="41" fill="url(#E)"></rect>
  <rect width="8" height="2" x="18" y="41" fill="url(#F)"></rect>
  <rect width="2" height="2" x="6" y="47" fill="url(#G)"></rect>
  <rect width="2" height="2" x="10" y="47" fill="url(#H)"></rect>
  <rect width="2" height="2" x="14" y="47" fill="url(#I)"></rect>
  <rect width="10" height="2" x="18" y="47" fill="url(#J)"></rect>
  <rect width="2" height="2" x="6" y="53" fill="url(#K)"></rect>
  <rect width="2" height="2" x="10" y="53" fill="url(#L)"></rect>
  <rect width="2" height="2" x="14" y="53" fill="url(#M)"></rect>
  <rect width="11" height="2" x="18" y="53" fill="url(#N)"></rect>
  <rect width="2" height="2" x="27" y="17" fill="url(#O)"></rect>
</svg>
