<svg version="1.2" xmlns="http://www.w3.org/2000/svg" viewBox="0 0 639 639" width="639" height="639"><style>.a{fill:#c9f4ff}.b{fill:#51b9ff}.c{fill:#007bfc}</style><path class="a" d="m244 116.4c-4.5-7.3-12.5-11.8-21.2-11.9h-128.4c-13.8 0-25.1 11.2-25.1 25.1 0 4.7 1.4 9.3 3.9 13.3l33 48.6 165.3-35.8z"/><path class="b" d="m272.3 156.7c-4.6-7.4-12.6-11.9-21.3-12h-128c-9.3-0.4-18.2 4.5-22.8 12.6-4.6 8.2-4.3 18.3 0.9 26.1l36.9 58.5 170.8-26.7z"/><path class="c" d="m136.4 239.5c-4.2-6.7-5-15-2.3-22.4 3.9-9.8 13.4-16.2 23.9-16h128c8.7 0 16.7 4.5 21.2 11.9l115 182.3c2.5 4 3.8 8.6 3.8 13.3 0 4.8-1.3 9.4-3.8 13.4l-64.2 101.8c-4.7 7.3-12.7 11.7-21.3 11.7-8.6 0-16.6-4.4-21.2-11.7z"/><path class="c" d="m460.1 297.8c4.7 7.2 12.7 11.6 21.3 11.6 8.6 0 16.6-4.4 21.2-11.6l22.1-35 42.1-66.9c2.5-4 3.9-8.6 3.9-13.3-0.1-4.8-1.4-9.4-3.9-13.4l-33.4-52.8c-4.5-7.3-12.6-11.8-21.2-11.9h-128.5c-6.6 0-13 2.6-17.7 7.3-4.7 4.7-7.3 11.1-7.3 17.8-0.1 4.7 1.3 9.4 3.9 13.3z"/></svg>